<svg width="320" height="87" viewBox="0 0 320 87" fill="none" xmlns="http://www.w3.org/2000/svg">
<rect width="320" height="87" rx="24" fill="#1C3FCA" fill-opacity="0.20"/>
<path d="M17.179 23H16.2557L18.9261 15.7273H19.8352L22.5057 23H21.5824L19.4091 16.8778H19.3523L17.179 23ZM17.5199 20.1591H21.2415V20.9403H17.5199V20.1591ZM23.2532 15.7273L25.4123 21.8494H25.4975L27.6566 15.7273H28.5799L25.9094 23H25.0004L22.3299 15.7273H23.2532ZM29.386 23H28.4627L31.1332 15.7273H32.0423L34.7127 23H33.7894L31.6161 16.8778H31.5593L29.386 23ZM29.7269 20.1591H33.4485V20.9403H29.7269V20.1591ZM36.7262 15.7273V23H35.8455V15.7273H36.7262ZM38.492 23V15.7273H39.3727V22.2188H42.7534V23H38.492ZM44.8743 23H43.951L46.6214 15.7273H47.5305L50.201 23H49.2777L47.1044 16.8778H47.0476L44.8743 23ZM45.2152 20.1591H48.9368V20.9403H45.2152V20.1591ZM51.3338 23V15.7273H53.8764C54.383 15.7273 54.8009 15.8149 55.13 15.9901C55.459 16.1629 55.7041 16.3961 55.8651 16.6896C56.026 16.9808 56.1065 17.304 56.1065 17.6591C56.1065 17.9716 56.0509 18.2296 55.9396 18.4332C55.8307 18.6368 55.6863 18.7978 55.5064 18.9162C55.3288 19.0346 55.1359 19.1222 54.9276 19.179V19.25C55.1501 19.2642 55.3738 19.3423 55.5987 19.4844C55.8236 19.6264 56.0118 19.83 56.1634 20.0952C56.3149 20.3603 56.3906 20.6847 56.3906 21.0682C56.3906 21.4328 56.3078 21.7607 56.142 22.0518C55.9763 22.343 55.7147 22.5739 55.3572 22.7443C54.9998 22.9148 54.5346 23 53.9616 23H51.3338ZM52.2145 22.2188H53.9616C54.5369 22.2188 54.9453 22.1075 55.1868 21.8849C55.4306 21.66 55.5526 21.3878 55.5526 21.0682C55.5526 20.822 55.4898 20.5947 55.3643 20.3864C55.2389 20.1757 55.0601 20.0076 54.8281 19.8821C54.5961 19.7543 54.3215 19.6903 54.0043 19.6903H52.2145V22.2188ZM52.2145 18.9233H53.848C54.1132 18.9233 54.3523 18.8712 54.5653 18.767C54.7808 18.6629 54.9512 18.5161 55.0767 18.3267C55.2045 18.1373 55.2685 17.9148 55.2685 17.6591C55.2685 17.3395 55.1572 17.0684 54.9347 16.8459C54.7121 16.621 54.3594 16.5085 53.8764 16.5085H52.2145V18.9233ZM57.8377 23V15.7273H58.7184V22.2188H62.0991V23H57.8377ZM63.4627 23V15.7273H67.8519V16.5085H64.3434V18.9659H67.6246V19.7472H64.3434V22.2188H67.9087V23H63.4627ZM78.104 18H77.2234C77.1713 17.7467 77.0801 17.5241 76.9499 17.3324C76.8221 17.1406 76.6658 16.9796 76.4812 16.8494C76.2989 16.7169 76.0965 16.6174 75.8739 16.5511C75.6514 16.4848 75.4194 16.4517 75.1779 16.4517C74.7376 16.4517 74.3387 16.563 73.9812 16.7855C73.6261 17.008 73.3432 17.3359 73.1325 17.7692C72.9241 18.2024 72.82 18.7339 72.82 19.3636C72.82 19.9934 72.9241 20.5249 73.1325 20.9581C73.3432 21.3913 73.6261 21.7192 73.9812 21.9418C74.3387 22.1643 74.7376 22.2756 75.1779 22.2756C75.4194 22.2756 75.6514 22.2424 75.8739 22.1761C76.0965 22.1098 76.2989 22.0116 76.4812 21.8814C76.6658 21.7488 76.8221 21.5866 76.9499 21.3949C77.0801 21.2008 77.1713 20.9782 77.2234 20.7273H78.104C78.0378 21.099 77.917 21.4316 77.7418 21.7251C77.5666 22.0187 77.3488 22.2685 77.0884 22.4744C76.828 22.678 76.5356 22.8331 76.2113 22.9396C75.8893 23.0462 75.5449 23.0994 75.1779 23.0994C74.5576 23.0994 74.006 22.9479 73.5231 22.6449C73.0401 22.3419 72.6602 21.911 72.3832 21.3523C72.1062 20.7936 71.9677 20.1307 71.9677 19.3636C71.9677 18.5966 72.1062 17.9337 72.3832 17.375C72.6602 16.8163 73.0401 16.3854 73.5231 16.0824C74.006 15.7794 74.5576 15.6278 75.1779 15.6278C75.5449 15.6278 75.8893 15.6811 76.2113 15.7876C76.5356 15.8942 76.828 16.0504 77.0884 16.2564C77.3488 16.46 77.5666 16.7086 77.7418 17.0021C77.917 17.2933 78.0378 17.6259 78.104 18ZM79.5272 23V15.7273H81.9846C82.5527 15.7273 83.0191 15.8243 83.3837 16.0185C83.7483 16.2102 84.0182 16.4742 84.1934 16.8104C84.3685 17.1465 84.4561 17.5289 84.4561 17.9574C84.4561 18.3859 84.3685 18.7659 84.1934 19.0973C84.0182 19.4287 83.7495 19.6892 83.3873 19.8786C83.025 20.0656 82.5622 20.1591 81.9988 20.1591H80.0101V19.3636H81.9703C82.3586 19.3636 82.6711 19.3068 82.9078 19.1932C83.147 19.0795 83.3198 18.9186 83.4263 18.7102C83.5352 18.4995 83.5897 18.2486 83.5897 17.9574C83.5897 17.6662 83.5352 17.4117 83.4263 17.1939C83.3174 16.9761 83.1434 16.808 82.9043 16.6896C82.6652 16.5689 82.3491 16.5085 81.9561 16.5085H80.4078V23H79.5272ZM82.9505 19.733L84.7402 23H83.7175L81.9561 19.733H82.9505ZM85.9237 23V15.7273H90.3129V16.5085H86.8043V18.9659H90.0856V19.7472H86.8043V22.2188H90.3697V23H85.9237ZM94.1445 23H91.9002V15.7273H94.244C94.9495 15.7273 95.5531 15.8729 96.055 16.1641C96.5569 16.4529 96.9416 16.8684 97.2092 17.4105C97.4767 17.9503 97.6104 18.5966 97.6104 19.3494C97.6104 20.107 97.4755 20.7592 97.2056 21.3061C96.9357 21.8506 96.5427 22.2696 96.0266 22.5632C95.5105 22.8544 94.8832 23 94.1445 23ZM92.7809 22.2188H94.0877C94.689 22.2188 95.1874 22.1027 95.5827 21.8707C95.9781 21.6387 96.2728 21.3085 96.467 20.88C96.6611 20.4515 96.7582 19.9413 96.7582 19.3494C96.7582 18.7623 96.6623 18.2569 96.4705 17.8331C96.2788 17.407 95.9923 17.0803 95.6112 16.853C95.23 16.6233 94.7553 16.5085 94.1871 16.5085H92.7809V22.2188ZM99.9684 15.7273V23H99.0877V15.7273H99.9684ZM101.336 16.5085V15.7273H106.791V16.5085H104.504V23H103.623V16.5085H101.336ZM110.963 23V15.7273H111.843V22.2188H115.224V23H110.963ZM117.468 15.7273V23H116.588V15.7273H117.468ZM119.234 15.7273H120.285L122.757 21.7642H122.842L125.314 15.7273H126.365V23H125.541V17.4744H125.47L123.197 23H122.402L120.129 17.4744H120.058V23H119.234V15.7273ZM129.011 15.7273V23H128.131V15.7273H129.011ZM130.379 16.5085V15.7273H135.834V16.5085H133.547V23H132.666V16.5085H130.379Z" fill="white"/>
<path d="M28.9205 39.875L28.2983 42.2443H16.8693L17.483 39.875H28.9205ZM22.9801 53L17.1506 46.0625L17.1591 43.9318H20.0398C20.6818 43.9318 21.2188 43.8125 21.6506 43.5739C22.0824 43.3352 22.4063 43.0114 22.6222 42.6023C22.8381 42.1932 22.9489 41.7273 22.9545 41.2045C22.9489 40.4205 22.7188 39.7812 22.2642 39.2869C21.8153 38.7869 21.0739 38.5369 20.0398 38.5369H16.8693L17.5682 35.5455H20.0398C21.4886 35.5455 22.696 35.7642 23.6619 36.2017C24.6335 36.6335 25.3608 37.25 25.8438 38.0511C26.3324 38.8523 26.5795 39.8068 26.5852 40.9148C26.5795 41.8977 26.4148 42.7557 26.0909 43.4886C25.7727 44.2216 25.2699 44.8324 24.5824 45.321C23.9006 45.8097 23.0114 46.1733 21.9148 46.4119L21.7784 46.4631L26.9943 52.8466V53H22.9801ZM28.9375 35.5455L28.2983 37.9489H18.8892L19.5284 35.5455H28.9375ZM38.7898 35.5455V53H35.0994V39.0483H34.9972L31 41.554V38.2812L35.321 35.5455H38.7898ZM45.9808 50.6136L45.8871 51.5511C45.8132 52.3011 45.6712 53.0483 45.4609 53.7926C45.2564 54.5426 45.0405 55.2216 44.8132 55.8295C44.5916 56.4375 44.4126 56.9148 44.2763 57.2614H41.924C42.0092 56.9261 42.1257 56.4574 42.2734 55.8551C42.4212 55.2585 42.5604 54.5881 42.6911 53.8438C42.8217 53.0994 42.9041 52.3409 42.9382 51.5682L42.9808 50.6136H45.9808ZM55.407 53.3835C53.9411 53.3778 52.6797 53.017 51.6229 52.3011C50.5717 51.5852 49.7621 50.5483 49.1939 49.1903C48.6314 47.8324 48.353 46.1989 48.3587 44.2898C48.3587 42.3864 48.6399 40.7642 49.2024 39.4233C49.7706 38.0824 50.5803 37.0625 51.6314 36.3636C52.6882 35.6591 53.9467 35.3068 55.407 35.3068C56.8672 35.3068 58.1229 35.6591 59.174 36.3636C60.2308 37.0682 61.0433 38.0909 61.6115 39.4318C62.1797 40.767 62.4609 42.3864 62.4553 44.2898C62.4553 46.2045 62.1712 47.8409 61.603 49.1989C61.0405 50.5568 60.2337 51.5937 59.1825 52.3097C58.1314 53.0256 56.8729 53.3835 55.407 53.3835ZM55.407 50.3239C56.407 50.3239 57.2053 49.821 57.8018 48.8153C58.3984 47.8097 58.6939 46.3011 58.6882 44.2898C58.6882 42.9659 58.5518 41.8636 58.2791 40.983C58.0121 40.1023 57.6314 39.4403 57.1371 38.9972C56.6484 38.554 56.0717 38.3324 55.407 38.3324C54.4126 38.3324 53.6172 38.8295 53.0206 39.8239C52.424 40.8182 52.1229 42.3068 52.1172 44.2898C52.1172 45.6307 52.2507 46.75 52.5178 47.6477C52.7905 48.5398 53.174 49.2102 53.6683 49.6591C54.1626 50.1023 54.7422 50.3239 55.407 50.3239ZM71.9304 53.3835C70.4645 53.3778 69.2031 53.017 68.1463 52.3011C67.0952 51.5852 66.2855 50.5483 65.7173 49.1903C65.1548 47.8324 64.8764 46.1989 64.8821 44.2898C64.8821 42.3864 65.1634 40.7642 65.7259 39.4233C66.294 38.0824 67.1037 37.0625 68.1548 36.3636C69.2116 35.6591 70.4702 35.3068 71.9304 35.3068C73.3906 35.3068 74.6463 35.6591 75.6974 36.3636C76.7543 37.0682 77.5668 38.0909 78.1349 39.4318C78.7031 40.767 78.9844 42.3864 78.9787 44.2898C78.9787 46.2045 78.6946 47.8409 78.1264 49.1989C77.5639 50.5568 76.7571 51.5937 75.706 52.3097C74.6548 53.0256 73.3963 53.3835 71.9304 53.3835ZM71.9304 50.3239C72.9304 50.3239 73.7287 49.821 74.3253 48.8153C74.9219 47.8097 75.2173 46.3011 75.2116 44.2898C75.2116 42.9659 75.0753 41.8636 74.8026 40.983C74.5355 40.1023 74.1548 39.4403 73.6605 38.9972C73.1719 38.554 72.5952 38.3324 71.9304 38.3324C70.9361 38.3324 70.1406 38.8295 69.544 39.8239C68.9474 40.8182 68.6463 42.3068 68.6406 44.2898C68.6406 45.6307 68.7741 46.75 69.0412 47.6477C69.3139 48.5398 69.6974 49.2102 70.1918 49.6591C70.6861 50.1023 71.2656 50.3239 71.9304 50.3239ZM84.8871 50.6136L84.7933 51.5511C84.7195 52.3011 84.5774 53.0483 84.3672 53.7926C84.1626 54.5426 83.9467 55.2216 83.7195 55.8295C83.4979 56.4375 83.3189 56.9148 83.1825 57.2614H80.8303C80.9155 56.9261 81.032 56.4574 81.1797 55.8551C81.3274 55.2585 81.4666 54.5881 81.5973 53.8438C81.728 53.0994 81.8104 52.3409 81.8445 51.5682L81.8871 50.6136H84.8871ZM94.407 53.2386C93.2024 53.2386 92.1286 53.017 91.1854 52.5739C90.2479 52.1307 89.5036 51.5199 88.9524 50.7415C88.4013 49.9631 88.1143 49.071 88.0916 48.0653H91.6712C91.7109 48.7415 91.995 49.2898 92.5234 49.7102C93.0518 50.1307 93.6797 50.3409 94.407 50.3409C94.9865 50.3409 95.4979 50.2131 95.9411 49.9574C96.3899 49.696 96.7393 49.3352 96.9893 48.875C97.245 48.4091 97.3729 47.875 97.3729 47.2727C97.3729 46.6591 97.2422 46.1193 96.9808 45.6534C96.7251 45.1875 96.37 44.8239 95.9155 44.5625C95.4609 44.3011 94.9411 44.1676 94.3558 44.1619C93.8445 44.1619 93.3473 44.267 92.8643 44.4773C92.3871 44.6875 92.0149 44.9744 91.7479 45.3381L88.4666 44.75L89.2933 35.5455H99.9638V38.5625H92.3359L91.8842 42.9347H91.9865C92.2933 42.5028 92.7564 42.1449 93.3757 41.8608C93.995 41.5767 94.6882 41.4347 95.4553 41.4347C96.5064 41.4347 97.4439 41.6818 98.2678 42.1761C99.0916 42.6705 99.7422 43.3494 100.219 44.2131C100.697 45.071 100.933 46.0597 100.927 47.179C100.933 48.3551 100.66 49.4006 100.109 50.3153C99.5632 51.2244 98.799 51.9403 97.8161 52.4631C96.8388 52.9801 95.7024 53.2386 94.407 53.2386ZM110.2 53.2386C109.302 53.233 108.435 53.0824 107.6 52.7869C106.771 52.4915 106.026 52.0114 105.367 51.3466C104.708 50.6818 104.185 49.8011 103.799 48.7045C103.418 47.608 103.228 46.2614 103.228 44.6648C103.234 43.1989 103.401 41.8892 103.731 40.7358C104.066 39.5767 104.543 38.5937 105.163 37.7869C105.788 36.9801 106.535 36.3665 107.404 35.946C108.273 35.5199 109.248 35.3068 110.327 35.3068C111.492 35.3068 112.521 35.5341 113.413 35.9886C114.305 36.4375 115.021 37.0483 115.56 37.821C116.106 38.5938 116.435 39.4602 116.549 40.4205H112.91C112.768 39.8125 112.469 39.3352 112.015 38.9886C111.56 38.642 110.998 38.4688 110.327 38.4688C109.191 38.4688 108.327 38.9631 107.737 39.9517C107.151 40.9403 106.853 42.2841 106.842 43.983H106.961C107.222 43.4659 107.575 43.0256 108.018 42.6619C108.467 42.2926 108.975 42.0114 109.543 41.8182C110.117 41.6193 110.722 41.5199 111.359 41.5199C112.393 41.5199 113.313 41.7642 114.12 42.2528C114.927 42.7358 115.563 43.4006 116.029 44.2472C116.495 45.0937 116.728 46.0625 116.728 47.1534C116.728 48.3352 116.452 49.3864 115.901 50.3068C115.356 51.2273 114.592 51.9489 113.609 52.4716C112.631 52.9886 111.495 53.2443 110.2 53.2386ZM110.183 50.3409C110.751 50.3409 111.259 50.2045 111.708 49.9318C112.157 49.6591 112.509 49.2898 112.765 48.8239C113.021 48.358 113.148 47.8352 113.148 47.2557C113.148 46.6761 113.021 46.1562 112.765 45.696C112.515 45.2358 112.168 44.8693 111.725 44.5966C111.282 44.3239 110.776 44.1875 110.208 44.1875C109.782 44.1875 109.387 44.267 109.023 44.4261C108.665 44.5852 108.35 44.8068 108.077 45.0909C107.81 45.375 107.6 45.7045 107.447 46.0795C107.293 46.4489 107.217 46.8437 107.217 47.2642C107.217 47.8267 107.344 48.3409 107.6 48.8068C107.862 49.2727 108.214 49.6449 108.657 49.9233C109.106 50.2017 109.614 50.3409 110.183 50.3409ZM122.598 50.6136L122.504 51.5511C122.43 52.3011 122.288 53.0483 122.078 53.7926C121.874 54.5426 121.658 55.2216 121.43 55.8295C121.209 56.4375 121.03 56.9148 120.893 57.2614H118.541C118.626 56.9261 118.743 56.4574 118.891 55.8551C119.038 55.2585 119.178 54.5881 119.308 53.8438C119.439 53.0994 119.521 52.3409 119.555 51.5682L119.598 50.6136H122.598ZM125.619 49.9318V47.0256L132.906 35.5455H135.412V39.5682H133.929L129.335 46.8381V46.9744H139.69V49.9318H125.619ZM133.997 53V49.0455L134.065 47.7585V35.5455H137.526V53H133.997ZM142.149 53V50.3409L148.362 44.5881C148.891 44.0767 149.334 43.6165 149.692 43.2074C150.055 42.7983 150.331 42.3977 150.518 42.0057C150.706 41.608 150.8 41.179 150.8 40.7188C150.8 40.2074 150.683 39.767 150.45 39.3977C150.217 39.0227 149.899 38.7358 149.496 38.5369C149.092 38.3324 148.635 38.2301 148.124 38.2301C147.589 38.2301 147.124 38.3381 146.726 38.554C146.328 38.7699 146.021 39.0795 145.805 39.483C145.589 39.8864 145.482 40.3665 145.482 40.9233H141.979C141.979 39.7812 142.237 38.7898 142.754 37.9489C143.271 37.108 143.996 36.4574 144.928 35.9972C145.859 35.5369 146.933 35.3068 148.149 35.3068C149.399 35.3068 150.487 35.5284 151.413 35.9716C152.345 36.4091 153.07 37.017 153.587 37.7955C154.104 38.5739 154.362 39.4659 154.362 40.4716C154.362 41.1307 154.232 41.7812 153.97 42.4233C153.714 43.0653 153.257 43.7784 152.598 44.5625C151.939 45.3409 151.01 46.2756 149.811 47.3665L147.263 49.8636V49.983H154.592V53H142.149ZM157.266 53V50.3409L163.479 44.5881C164.008 44.0767 164.451 43.6165 164.809 43.2074C165.173 42.7983 165.448 42.3977 165.636 42.0057C165.823 41.608 165.917 41.179 165.917 40.7188C165.917 40.2074 165.8 39.767 165.567 39.3977C165.335 39.0227 165.016 38.7358 164.613 38.5369C164.21 38.3324 163.752 38.2301 163.241 38.2301C162.707 38.2301 162.241 38.3381 161.843 38.554C161.445 38.7699 161.138 39.0795 160.923 39.483C160.707 39.8864 160.599 40.3665 160.599 40.9233H157.096C157.096 39.7812 157.354 38.7898 157.871 37.9489C158.388 37.108 159.113 36.4574 160.045 35.9972C160.977 35.5369 162.05 35.3068 163.266 35.3068C164.516 35.3068 165.604 35.5284 166.531 35.9716C167.462 36.4091 168.187 37.017 168.704 37.7955C169.221 38.5739 169.479 39.4659 169.479 40.4716C169.479 41.1307 169.349 41.7812 169.087 42.4233C168.832 43.0653 168.374 43.7784 167.715 44.5625C167.056 45.3409 166.127 46.2756 164.928 47.3665L162.38 49.8636V49.983H169.71V53H157.266Z" fill="white"/>
<path d="M23.2159 65.3636C23.2159 66.1473 23.0691 66.8184 22.7756 67.3771C22.4844 67.9335 22.0866 68.3596 21.5824 68.6555C21.0805 68.9515 20.5111 69.0994 19.8743 69.0994C19.2375 69.0994 18.6669 68.9515 18.1626 68.6555C17.6607 68.3572 17.263 67.9299 16.9695 67.3736C16.6783 66.8149 16.5327 66.1449 16.5327 65.3636C16.5327 64.58 16.6783 63.91 16.9695 63.3537C17.263 62.795 17.6607 62.3677 18.1626 62.0717C18.6669 61.7758 19.2375 61.6278 19.8743 61.6278C20.5111 61.6278 21.0805 61.7758 21.5824 62.0717C22.0866 62.3677 22.4844 62.795 22.7756 63.3537C23.0691 63.91 23.2159 64.58 23.2159 65.3636ZM21.8913 65.3636C21.8913 64.812 21.8049 64.3468 21.6321 63.968C21.4616 63.5869 21.2249 63.2992 20.9219 63.1051C20.6188 62.9086 20.2696 62.8104 19.8743 62.8104C19.4789 62.8104 19.1297 62.9086 18.8267 63.1051C18.5237 63.2992 18.2857 63.5869 18.1129 63.968C17.9425 64.3468 17.8572 64.812 17.8572 65.3636C17.8572 65.9152 17.9425 66.3816 18.1129 66.7628C18.2857 67.1416 18.5237 67.4292 18.8267 67.6257C19.1297 67.8198 19.4789 67.9169 19.8743 67.9169C20.2696 67.9169 20.6188 67.8198 20.9219 67.6257C21.2249 67.4292 21.4616 67.1416 21.6321 66.7628C21.8049 66.3816 21.8913 65.9152 21.8913 65.3636ZM27.1674 63.5455V64.5398H23.943V63.5455H27.1674ZM24.7491 69V63.0305C24.7491 62.6636 24.8249 62.3582 24.9764 62.1143C25.1303 61.8705 25.3362 61.6882 25.5943 61.5675C25.8523 61.4467 26.1388 61.3864 26.4537 61.3864C26.6762 61.3864 26.8739 61.4041 27.0467 61.4396C27.2195 61.4751 27.3474 61.5071 27.4302 61.5355L27.1745 62.5298C27.1201 62.5133 27.0514 62.4967 26.9686 62.4801C26.8857 62.4612 26.7934 62.4517 26.6916 62.4517C26.4525 62.4517 26.2832 62.5097 26.1838 62.6257C26.0867 62.7393 26.0382 62.9027 26.0382 63.1158V69H24.7491ZM35.2924 63.5028L35.0403 64.4332H30.3279L30.5836 63.5028H35.2924ZM32.9238 69L30.438 66.0099L30.4345 65.2216H31.6632C31.9567 65.2216 32.2018 65.1731 32.3983 65.076C32.5971 64.9766 32.7475 64.8381 32.8493 64.6605C32.9534 64.4806 33.0055 64.2699 33.0055 64.0284C33.0055 63.6662 32.899 63.375 32.6859 63.1548C32.4728 62.9347 32.1319 62.8246 31.6632 62.8246H30.3279L30.6049 61.7273H31.6632C32.2598 61.7273 32.7534 61.8196 33.144 62.0043C33.537 62.1866 33.8306 62.4446 34.0247 62.7784C34.2212 63.1122 34.3194 63.5028 34.3194 63.9503C34.3194 64.3456 34.2472 64.6984 34.1028 65.0085C33.9584 65.3187 33.7311 65.5732 33.421 65.772C33.1109 65.9709 32.7048 66.1035 32.2029 66.1697L32.1603 66.1839L34.4047 68.9361V69H32.9238ZM35.2995 61.7273L35.0403 62.6719L31.2193 62.6577L31.4785 61.7273H35.2995ZM39.2235 61.7273V69H37.9061V63.0092H37.8635L36.1625 64.0959V62.8885L37.97 61.7273H39.2235ZM42.1932 68.0057L42.147 68.3963C42.1139 68.6946 42.0547 68.9976 41.9695 69.3054C41.8866 69.6155 41.799 69.9008 41.7067 70.1612C41.6143 70.4216 41.5398 70.6264 41.483 70.7756H40.6165C40.6496 70.6312 40.6946 70.4347 40.7514 70.1861C40.8106 69.9375 40.8674 69.6581 40.9219 69.348C40.9763 69.0379 41.013 68.723 41.032 68.4034L41.0568 68.0057H42.1932ZM46.024 69.1385C45.4392 69.1385 44.9373 68.9905 44.5183 68.6946C44.1016 68.3963 43.7808 67.9666 43.5559 67.4055C43.3334 66.8421 43.2221 66.1638 43.2221 65.3707C43.2245 64.5777 43.3369 63.9029 43.5595 63.3466C43.7844 62.7879 44.1052 62.3617 44.5218 62.0682C44.9409 61.7746 45.4416 61.6278 46.024 61.6278C46.6064 61.6278 47.1071 61.7746 47.5261 62.0682C47.9451 62.3617 48.2659 62.7879 48.4885 63.3466C48.7134 63.9053 48.8258 64.58 48.8258 65.3707C48.8258 66.1662 48.7134 66.8456 48.4885 67.4091C48.2659 67.9702 47.9451 68.3987 47.5261 68.6946C47.1094 68.9905 46.6087 69.1385 46.024 69.1385ZM46.024 68.027C46.4785 68.027 46.8372 67.8033 47.1 67.3558C47.3651 66.906 47.4977 66.2443 47.4977 65.3707C47.4977 64.7931 47.4373 64.3078 47.3166 63.9148C47.1958 63.5218 47.0254 63.2259 46.8052 63.027C46.585 62.8258 46.3246 62.7251 46.024 62.7251C45.5718 62.7251 45.2143 62.95 44.9515 63.3999C44.6887 63.8473 44.5562 64.5043 44.5538 65.3707C44.5514 65.9508 44.6094 66.4384 44.7278 66.8338C44.8485 67.2292 45.019 67.5275 45.2392 67.7287C45.4593 67.9276 45.7209 68.027 46.024 68.027ZM52.6939 69.1385C52.1091 69.1385 51.6072 68.9905 51.1882 68.6946C50.7715 68.3963 50.4508 67.9666 50.2259 67.4055C50.0033 66.8421 49.892 66.1638 49.892 65.3707C49.8944 64.5777 50.0069 63.9029 50.2294 63.3466C50.4543 62.7879 50.7751 62.3617 51.1918 62.0682C51.6108 61.7746 52.1115 61.6278 52.6939 61.6278C53.2763 61.6278 53.777 61.7746 54.196 62.0682C54.6151 62.3617 54.9358 62.7879 55.1584 63.3466C55.3833 63.9053 55.4957 64.58 55.4957 65.3707C55.4957 66.1662 55.3833 66.8456 55.1584 67.4091C54.9358 67.9702 54.6151 68.3987 54.196 68.6946C53.7794 68.9905 53.2786 69.1385 52.6939 69.1385ZM52.6939 68.027C53.1484 68.027 53.5071 67.8033 53.7699 67.3558C54.035 66.906 54.1676 66.2443 54.1676 65.3707C54.1676 64.7931 54.1072 64.3078 53.9865 63.9148C53.8658 63.5218 53.6953 63.2259 53.4751 63.027C53.255 62.8258 52.9946 62.7251 52.6939 62.7251C52.2417 62.7251 51.8842 62.95 51.6214 63.3999C51.3587 63.8473 51.2261 64.5043 51.2237 65.3707C51.2214 65.9508 51.2794 66.4384 51.3977 66.8338C51.5185 67.2292 51.6889 67.5275 51.9091 67.7287C52.1293 67.9276 52.3909 68.027 52.6939 68.027ZM57.9158 68.0057L57.8697 68.3963C57.8365 68.6946 57.7773 68.9976 57.6921 69.3054C57.6093 69.6155 57.5217 69.9008 57.4293 70.1612C57.337 70.4216 57.2624 70.6264 57.2056 70.7756H56.3391C56.3723 70.6312 56.4173 70.4347 56.4741 70.1861C56.5333 69.9375 56.5901 69.6581 56.6445 69.348C56.699 69.0379 56.7357 68.723 56.7546 68.4034L56.7795 68.0057H57.9158ZM61.7466 69.1385C61.1619 69.1385 60.66 68.9905 60.2409 68.6946C59.8243 68.3963 59.5035 67.9666 59.2786 67.4055C59.056 66.8421 58.9448 66.1638 58.9448 65.3707C58.9471 64.5777 59.0596 63.9029 59.2821 63.3466C59.507 62.7879 59.8278 62.3617 60.2445 62.0682C60.6635 61.7746 61.1642 61.6278 61.7466 61.6278C62.329 61.6278 62.8297 61.7746 63.2488 62.0682C63.6678 62.3617 63.9886 62.7879 64.2111 63.3466C64.436 63.9053 64.5485 64.58 64.5485 65.3707C64.5485 66.1662 64.436 66.8456 64.2111 67.4091C63.9886 67.9702 63.6678 68.3987 63.2488 68.6946C62.8321 68.9905 62.3314 69.1385 61.7466 69.1385ZM61.7466 68.027C62.2012 68.027 62.5598 67.8033 62.8226 67.3558C63.0878 66.906 63.2203 66.2443 63.2203 65.3707C63.2203 64.7931 63.16 64.3078 63.0392 63.9148C62.9185 63.5218 62.748 63.2259 62.5279 63.027C62.3077 62.8258 62.0473 62.7251 61.7466 62.7251C61.2944 62.7251 60.937 62.95 60.6742 63.3999C60.4114 63.8473 60.2788 64.5043 60.2765 65.3707C60.2741 65.9508 60.3321 66.4384 60.4505 66.8338C60.5712 67.2292 60.7417 67.5275 60.9618 67.7287C61.182 67.9276 61.4436 68.027 61.7466 68.027ZM68.4165 69.1385C67.8318 69.1385 67.3299 68.9905 66.9109 68.6946C66.4942 68.3963 66.1734 67.9666 65.9485 67.4055C65.726 66.8421 65.6147 66.1638 65.6147 65.3707C65.6171 64.5777 65.7295 63.9029 65.9521 63.3466C66.177 62.7879 66.4978 62.3617 66.9144 62.0682C67.3335 61.7746 67.8342 61.6278 68.4165 61.6278C68.9989 61.6278 69.4996 61.7746 69.9187 62.0682C70.3377 62.3617 70.6585 62.7879 70.881 63.3466C71.1059 63.9053 71.2184 64.58 71.2184 65.3707C71.2184 66.1662 71.1059 66.8456 70.881 67.4091C70.6585 67.9702 70.3377 68.3987 69.9187 68.6946C69.502 68.9905 69.0013 69.1385 68.4165 69.1385ZM68.4165 68.027C68.8711 68.027 69.2298 67.8033 69.4925 67.3558C69.7577 66.906 69.8903 66.2443 69.8903 65.3707C69.8903 64.7931 69.8299 64.3078 69.7092 63.9148C69.5884 63.5218 69.418 63.2259 69.1978 63.027C68.9776 62.8258 68.7172 62.7251 68.4165 62.7251C67.9644 62.7251 67.6069 62.95 67.3441 63.3999C67.0813 63.8473 66.9487 64.5043 66.9464 65.3707C66.944 65.9508 67.002 66.4384 67.1204 66.8338C67.2411 67.2292 67.4116 67.5275 67.6317 67.7287C67.8519 67.9276 68.1135 68.027 68.4165 68.027ZM75.0865 69.1385C74.5017 69.1385 73.9998 68.9905 73.5808 68.6946C73.1641 68.3963 72.8433 67.9666 72.6184 67.4055C72.3959 66.8421 72.2846 66.1638 72.2846 65.3707C72.287 64.5777 72.3994 63.9029 72.622 63.3466C72.8469 62.7879 73.1677 62.3617 73.5843 62.0682C74.0034 61.7746 74.5041 61.6278 75.0865 61.6278C75.6689 61.6278 76.1696 61.7746 76.5886 62.0682C77.0076 62.3617 77.3284 62.7879 77.551 63.3466C77.7759 63.9053 77.8883 64.58 77.8883 65.3707C77.8883 66.1662 77.7759 66.8456 77.551 67.4091C77.3284 67.9702 77.0076 68.3987 76.5886 68.6946C76.1719 68.9905 75.6712 69.1385 75.0865 69.1385ZM75.0865 68.027C75.541 68.027 75.8997 67.8033 76.1625 67.3558C76.4276 66.906 76.5602 66.2443 76.5602 65.3707C76.5602 64.7931 76.4998 64.3078 76.3791 63.9148C76.2583 63.5218 76.0879 63.2259 75.8677 63.027C75.6475 62.8258 75.3871 62.7251 75.0865 62.7251C74.6343 62.7251 74.2768 62.95 74.014 63.3999C73.7512 63.8473 73.6187 64.5043 73.6163 65.3707C73.6139 65.9508 73.6719 66.4384 73.7903 66.8338C73.911 67.2292 74.0815 67.5275 74.3017 67.7287C74.5218 67.9276 74.7834 68.027 75.0865 68.027Z" fill="#7B8995"/>
<rect x="185" y="12" width="123" height="26" rx="8" fill="#1C3FCA" fill-opacity="0.1"/>
<rect x="189" y="16" width="24" height="18" rx="5" fill="#1D86FF"/>
<path d="M207.741 27.9134L207.581 27.0436H205.8L205.517 27.9072L204.09 27.9103C204.769 26.1267 205.45 24.3437 206.133 22.5613C206.249 22.259 206.455 22.1052 206.759 22.1067C206.991 22.109 207.37 22.109 207.896 22.1075L209 27.9111L207.741 27.9134ZM206.201 25.8521H207.349L206.92 23.6716L206.201 25.8521ZM197.001 22.1059L198.436 22.1075L196.217 27.9142L194.765 27.9126C194.399 26.3789 194.039 24.8438 193.682 23.3075C193.611 23.0013 193.471 22.7871 193.201 22.6858C192.961 22.5954 192.561 22.4562 192 22.2668V22.1082H194.293C194.69 22.1082 194.921 22.3178 194.996 22.7477C195.071 23.1784 195.259 24.2747 195.562 26.0369L197.001 22.1059ZM200.408 22.1075L199.273 27.9126L197.907 27.9111L199.041 22.1059L200.408 22.1075ZM203.177 22C203.586 22 204.101 22.1392 204.397 22.2668L204.158 23.4706C203.89 23.3531 203.449 23.1946 203.079 23.2C202.541 23.2101 202.208 23.4567 202.208 23.6933C202.208 24.0784 202.786 24.2724 203.381 24.693C204.06 25.1724 204.149 25.6031 204.141 26.0709C204.132 27.042 203.381 28 201.797 28C201.074 27.9884 200.814 27.9219 200.224 27.6938L200.474 26.4374C201.074 26.7119 201.328 26.7992 201.841 26.7992C202.31 26.7992 202.714 26.592 202.717 26.2309C202.72 25.9742 202.575 25.8466 202.048 25.5296C201.521 25.2119 200.782 24.7719 200.792 23.8889C200.804 22.7585 201.784 22 203.177 22Z" fill="white"/>
<path d="M223.76 26.564C223.472 26.564 223.208 26.496 222.968 26.36C222.736 26.216 222.548 26.028 222.404 25.796C222.268 25.556 222.2 25.292 222.2 25.004C222.2 24.564 222.352 24.192 222.656 23.888C222.96 23.584 223.328 23.432 223.76 23.432C224.208 23.432 224.584 23.584 224.888 23.888C225.192 24.192 225.344 24.564 225.344 25.004C225.344 25.444 225.192 25.816 224.888 26.12C224.584 26.416 224.208 26.564 223.76 26.564ZM229.303 26.564C229.015 26.564 228.751 26.496 228.511 26.36C228.279 26.216 228.091 26.028 227.947 25.796C227.811 25.556 227.743 25.292 227.743 25.004C227.743 24.564 227.895 24.192 228.199 23.888C228.503 23.584 228.871 23.432 229.303 23.432C229.751 23.432 230.127 23.584 230.431 23.888C230.735 24.192 230.887 24.564 230.887 25.004C230.887 25.444 230.735 25.816 230.431 26.12C230.127 26.416 229.751 26.564 229.303 26.564ZM234.846 26.564C234.558 26.564 234.294 26.496 234.054 26.36C233.822 26.216 233.634 26.028 233.49 25.796C233.354 25.556 233.286 25.292 233.286 25.004C233.286 24.564 233.438 24.192 233.742 23.888C234.046 23.584 234.414 23.432 234.846 23.432C235.294 23.432 235.67 23.584 235.974 23.888C236.278 24.192 236.43 24.564 236.43 25.004C236.43 25.444 236.278 25.816 235.974 26.12C235.67 26.416 235.294 26.564 234.846 26.564ZM240.389 26.564C240.101 26.564 239.837 26.496 239.597 26.36C239.365 26.216 239.177 26.028 239.033 25.796C238.897 25.556 238.829 25.292 238.829 25.004C238.829 24.564 238.981 24.192 239.285 23.888C239.589 23.584 239.957 23.432 240.389 23.432C240.837 23.432 241.213 23.584 241.517 23.888C241.821 24.192 241.973 24.564 241.973 25.004C241.973 25.444 241.821 25.816 241.517 26.12C241.213 26.416 240.837 26.564 240.389 26.564ZM251.83 26.624C251.91 27.024 252.082 27.328 252.346 27.536C252.61 27.744 252.966 27.848 253.414 27.848C253.982 27.848 254.398 27.624 254.662 27.176C254.926 26.728 255.058 25.964 255.058 24.884C254.866 25.156 254.594 25.368 254.242 25.52C253.898 25.664 253.522 25.736 253.114 25.736C252.594 25.736 252.122 25.632 251.698 25.424C251.274 25.208 250.938 24.892 250.69 24.476C250.45 24.052 250.33 23.54 250.33 22.94C250.33 22.06 250.586 21.36 251.098 20.84C251.618 20.312 252.33 20.048 253.234 20.048C254.322 20.048 255.094 20.412 255.55 21.14C256.014 21.86 256.246 22.968 256.246 24.464C256.246 25.496 256.158 26.34 255.982 26.996C255.814 27.652 255.518 28.148 255.094 28.484C254.67 28.82 254.082 28.988 253.33 28.988C252.474 28.988 251.814 28.764 251.35 28.316C250.886 27.868 250.626 27.304 250.57 26.624H251.83ZM253.354 24.584C253.834 24.584 254.21 24.436 254.482 24.14C254.762 23.836 254.902 23.436 254.902 22.94C254.902 22.388 254.754 21.96 254.458 21.656C254.17 21.344 253.774 21.188 253.27 21.188C252.766 21.188 252.366 21.348 252.07 21.668C251.782 21.98 251.638 22.392 251.638 22.904C251.638 23.392 251.778 23.796 252.058 24.116C252.346 24.428 252.778 24.584 253.354 24.584ZM257.563 21.5V20.252H260.059V29H258.679V21.5H257.563ZM261.915 22.412C261.963 21.668 262.247 21.088 262.767 20.672C263.295 20.256 263.967 20.048 264.783 20.048C265.343 20.048 265.827 20.148 266.235 20.348C266.643 20.548 266.951 20.82 267.159 21.164C267.367 21.508 267.471 21.896 267.471 22.328C267.471 22.824 267.339 23.248 267.075 23.6C266.811 23.952 266.495 24.188 266.127 24.308V24.356C266.599 24.5 266.967 24.764 267.231 25.148C267.495 25.524 267.627 26.008 267.627 26.6C267.627 27.072 267.519 27.492 267.303 27.86C267.087 28.228 266.767 28.52 266.343 28.736C265.919 28.944 265.411 29.048 264.819 29.048C263.955 29.048 263.243 28.828 262.683 28.388C262.131 27.94 261.835 27.3 261.795 26.468H263.115C263.147 26.892 263.311 27.24 263.607 27.512C263.903 27.776 264.303 27.908 264.807 27.908C265.295 27.908 265.671 27.776 265.935 27.512C266.199 27.24 266.331 26.892 266.331 26.468C266.331 25.908 266.151 25.512 265.791 25.28C265.439 25.04 264.895 24.92 264.159 24.92H263.847V23.792H264.171C264.819 23.784 265.311 23.676 265.647 23.468C265.991 23.26 266.163 22.932 266.163 22.484C266.163 22.1 266.039 21.796 265.791 21.572C265.543 21.34 265.191 21.224 264.735 21.224C264.287 21.224 263.939 21.34 263.691 21.572C263.443 21.796 263.295 22.076 263.247 22.412H261.915ZM269.82 27.14C270.588 26.476 271.192 25.932 271.632 25.508C272.08 25.076 272.452 24.628 272.748 24.164C273.044 23.7 273.192 23.236 273.192 22.772C273.192 22.292 273.076 21.916 272.844 21.644C272.62 21.372 272.264 21.236 271.776 21.236C271.304 21.236 270.936 21.388 270.672 21.692C270.416 21.988 270.28 22.388 270.264 22.892H268.944C268.968 21.98 269.24 21.284 269.76 20.804C270.288 20.316 270.956 20.072 271.764 20.072C272.636 20.072 273.316 20.312 273.804 20.792C274.3 21.272 274.548 21.912 274.548 22.712C274.548 23.288 274.4 23.844 274.104 24.38C273.816 24.908 273.468 25.384 273.06 25.808C272.66 26.224 272.148 26.708 271.524 27.26L270.984 27.74H274.788V28.88H268.956V27.884L269.82 27.14Z" fill="white"/>
<g opacity="0.9">
<path d="M294.667 25.6007V28.4007C294.667 30.734 293.733 31.6673 291.4 31.6673H288.6C286.267 31.6673 285.333 30.734 285.333 28.4007V25.6007C285.333 23.2673 286.267 22.334 288.6 22.334H291.4C293.733 22.334 294.667 23.2673 294.667 25.6007Z" stroke="white" stroke-width="1.3" stroke-linecap="round" stroke-linejoin="round"/>
<path d="M298.667 21.6007V24.4007C298.667 26.734 297.733 27.6673 295.4 27.6673H294.667V25.6007C294.667 23.2673 293.733 22.334 291.4 22.334H289.333V21.6007C289.333 19.2673 290.267 18.334 292.6 18.334H295.4C297.733 18.334 298.667 19.2673 298.667 21.6007Z" stroke="white" stroke-width="1.3" stroke-linecap="round" stroke-linejoin="round"/>
</g>
<rect x="252" y="46" width="56" height="24" rx="6" fill="white"/>
<path d="M268.387 57.9999C268.387 59.3199 267.32 60.3866 266 60.3866C264.68 60.3866 263.613 59.3199 263.613 57.9999C263.613 56.6799 264.68 55.6133 266 55.6133C267.32 55.6133 268.387 56.6799 268.387 57.9999Z" stroke="#1C3FCA" stroke-linecap="round" stroke-linejoin="round"/>
<path d="M266 63.5138C268.353 63.5138 270.547 62.1271 272.073 59.7271C272.673 58.7871 272.673 57.2071 272.073 56.2671C270.547 53.8671 268.353 52.4805 266 52.4805C263.647 52.4805 261.453 53.8671 259.927 56.2671C259.327 57.2071 259.327 58.7871 259.927 59.7271C261.453 62.1271 263.647 63.5138 266 63.5138Z" stroke="#1C3FCA" stroke-linecap="round" stroke-linejoin="round"/>
<path d="M278.756 62L276.156 54.55H277.636L279.676 60.72H279.386L281.426 54.55H282.906L280.316 62H278.756ZM283.739 62V54.55H285.099V62H283.739ZM286.532 62V54.55H291.482V55.75H287.892V57.66H291.282V58.86H287.892V60.8H291.482V62H286.532ZM293.869 62L291.869 54.55H293.329L294.899 60.9H294.519L296.159 54.55H297.569L299.199 60.9H298.819L300.389 54.55H301.849L299.849 62H298.289L296.639 55.82H297.079L295.429 62H293.869Z" fill="#1C3FCA"/>
</svg>