<svg width="328" height="234" viewBox="0 0 328 234" fill="none" xmlns="http://www.w3.org/2000/svg">
<path opacity="0.45" d="M103.831 145.377H224.167C235.913 145.377 245.074 135.202 243.838 123.53L235.814 47.2334C234.701 36.6747 225.453 28.8732 214.857 29.5656L107.923 36.4893C98.0937 37.1322 90.2427 44.8843 89.4762 54.7011L84.1103 124.074C83.2201 135.573 92.3075 145.377 103.831 145.377Z" fill="#5593D7"/>
<path d="M103.496 118.684C104.575 118.684 105.45 117.809 105.45 116.73C105.45 115.651 104.575 114.777 103.496 114.777C102.418 114.777 101.543 115.651 101.543 116.73C101.543 117.809 102.418 118.684 103.496 118.684Z" fill="#EA7FE0"/>
<path d="M131.773 47.0232L129.498 47.5672C129.065 47.6661 129.065 48.2843 129.498 48.3832L131.773 48.9273C133.269 49.2858 134.431 50.448 134.789 51.944L135.333 54.219C135.432 54.6517 136.051 54.6517 136.149 54.219L136.693 51.944C137.052 50.448 138.214 49.2858 139.71 48.9273L141.985 48.3832C142.418 48.2843 142.418 47.6661 141.985 47.5672L139.71 47.0232C138.214 46.6647 137.052 45.5025 136.693 44.0065L136.149 41.7315C136.051 41.2988 135.432 41.2988 135.333 41.7315L134.789 44.0065C134.431 45.5025 133.269 46.6647 131.773 47.0232Z" fill="white"/>
<path d="M194.074 108.595C177.952 95.8478 159.641 95.8973 155.462 95.8602C150.492 95.8231 145.645 104.453 166.688 110.289C166.688 110.289 150.85 118.078 145.522 119.141C138.165 120.612 128.113 105.294 121.894 106.938C113.19 109.225 130.858 126.114 141.59 131.245C147.537 133.261 153.793 133.409 158.64 135.4C165.464 137.477 167.171 137.588 167.171 137.588L167.715 145.365H215.624C215.624 145.365 210.197 121.33 194.074 108.582V108.595Z" fill="#E99E93"/>
<path d="M167.171 129.551C167.171 129.551 157.502 121.033 151.209 110.981C144.916 100.917 138.066 103.18 139.612 108.076C141.157 112.959 145.176 126.473 151.11 129.959C158.009 134.002 167.171 129.539 167.171 129.539V129.551Z" fill="#E99E93"/>
<path d="M160.432 134.707C160.432 134.707 145.237 122.541 139.389 110.993C134.431 101.189 128.064 103.13 128.262 107.099C128.484 111.649 133.492 121.651 137.906 126.572C142.616 131.826 149.923 136.129 160.432 134.707Z" fill="#E99E93"/>
<path d="M143.716 122.121C140.601 122.195 128.868 117.843 120.868 112.576C114.019 108.063 109.902 112.947 115.181 118.82C121.709 126.09 134.023 130.417 152.272 132.729C168.147 131.542 143.729 122.108 143.729 122.108L143.716 122.121Z" fill="#E99E93"/>
<path d="M165.724 125.162C165.724 125.162 165.625 125.162 165.576 125.138C160.68 123.345 156.241 119.29 151.617 112.391C151.493 112.193 151.543 111.933 151.728 111.809C151.926 111.686 152.186 111.735 152.309 111.921C156.834 118.671 161.137 122.615 165.86 124.346C166.07 124.42 166.182 124.668 166.107 124.878C166.046 125.051 165.885 125.15 165.712 125.15L165.724 125.162Z" fill="#D67570"/>
<path d="M158.256 135.498C158.256 135.498 158.182 135.498 158.145 135.486C146.684 132.247 141.405 114.851 141.194 114.109C141.133 113.887 141.256 113.652 141.479 113.59C141.701 113.528 141.936 113.652 141.998 113.874C142.047 114.047 147.364 131.567 158.38 134.682C158.603 134.744 158.726 134.979 158.664 135.202C158.615 135.387 158.442 135.511 158.256 135.511V135.498Z" fill="#D67570"/>
<path d="M150.084 134.596C150.084 134.596 149.997 134.596 149.96 134.584C132.391 129.267 128.237 108.879 128.2 108.669C128.15 108.447 128.299 108.224 128.534 108.175C128.756 108.125 128.979 108.273 129.028 108.508C129.065 108.706 133.133 128.612 150.207 133.78C150.43 133.842 150.554 134.077 150.492 134.299C150.442 134.485 150.269 134.596 150.096 134.596H150.084Z" fill="#D67570"/>
<path d="M145.039 132.494C145.039 132.494 145.002 132.494 144.978 132.494C137.176 131.282 130.932 125.991 127.075 121.75C122.896 117.175 120.522 112.823 120.497 112.774C120.386 112.576 120.46 112.316 120.67 112.205C120.881 112.094 121.128 112.168 121.239 112.378C121.338 112.551 130.636 129.428 145.114 131.666C145.336 131.703 145.497 131.913 145.46 132.148C145.423 132.358 145.25 132.506 145.052 132.506L145.039 132.494Z" fill="#D67570"/>
<path d="M165.724 125.162C165.588 125.162 165.44 125.088 165.365 124.952C165.242 124.754 165.316 124.495 165.514 124.383C165.86 124.173 174.02 119.376 182.366 120.971C182.588 121.02 182.737 121.231 182.699 121.466C182.662 121.7 182.44 121.849 182.205 121.799C174.181 120.254 166.021 125.063 165.934 125.113C165.872 125.15 165.798 125.175 165.724 125.175V125.162Z" fill="#D67570"/>
<path d="M172.302 116.73C172.302 116.73 172.24 116.73 172.203 116.73C167.282 115.494 166.318 110.598 166.281 110.388C166.244 110.165 166.392 109.942 166.615 109.905C166.837 109.868 167.06 110.017 167.097 110.239C167.134 110.425 168.012 114.826 172.401 115.927C172.623 115.988 172.759 116.211 172.71 116.433C172.66 116.619 172.487 116.755 172.302 116.755V116.73Z" fill="#D67570"/>
<path d="M173.995 139.059C173.995 139.059 173.958 139.059 173.934 139.059L167.109 138.033C166.886 137.996 166.725 137.786 166.763 137.563C166.8 137.341 166.997 137.18 167.232 137.217L174.057 138.243C174.28 138.28 174.44 138.49 174.403 138.713C174.366 138.923 174.193 139.072 173.995 139.072V139.059Z" fill="#D67570"/>
<path d="M161.037 66.5334L119.143 59.3422C115.562 58.7276 112.162 61.1318 111.547 64.7122L107.234 89.8388C106.619 93.4191 109.024 96.8197 112.604 97.4343L154.498 104.625C158.078 105.24 161.479 102.836 162.093 99.2555L166.406 74.1289C167.021 70.5486 164.617 67.1479 161.037 66.5334Z" fill="#3395FF"/>
<path d="M165.77 77.8324L110.91 68.4156L109.634 75.8488L164.494 85.2656L165.77 77.8324Z" fill="#1C3FCA"/>
<path d="M155.666 91.1445L148.878 89.9795C147.573 89.7553 146.332 90.6321 146.108 91.9377L145.502 95.4715C145.278 96.7771 146.154 98.0172 147.46 98.2413L154.247 99.4063C155.553 99.6304 156.793 98.7537 157.017 97.4481L157.624 93.9143C157.848 92.6087 156.971 91.3686 155.666 91.1445Z" fill="#FFCC4D"/>
<path d="M158.614 57.6684L157.094 29.8746L175.12 58.9172L162.324 60.7223C160.432 60.9943 158.713 59.5848 158.614 57.6684V57.6684Z" fill="#1C3FCA"/>
<path d="M157.365 31.0492L164.45 57.2728C164.92 59.0161 166.614 60.1412 168.406 59.8815L174.539 59.0161L157.365 31.0368V31.0492Z" fill="#A897FC"/>
<path d="M159.801 26.9197L190.092 22.6666C191.774 22.4316 193.406 23.3095 194.148 24.8302L206.524 50.4974C207.426 52.3644 206.252 54.5528 204.2 54.8495L172.771 59.3375C171.435 59.523 170.125 58.8183 169.569 57.5942L157.452 31.2223C156.599 29.3677 157.774 27.2041 159.801 26.9197V26.9197Z" fill="white"/>
<path d="M196.126 28.9474L194.197 24.9539C193.431 23.3589 191.712 22.4317 189.944 22.6789L159.603 26.9444C157.675 27.2164 156.55 29.2688 157.366 31.0492L158.824 34.2144L196.138 28.9597L196.126 28.9474Z" fill="#8262F9"/>
<path d="M169.272 28.8484L168.456 28.3909C168.888 27.5996 169.012 26.4622 168.777 25.3494C168.567 24.3727 168.134 23.5196 167.528 22.9261C166.984 22.3945 166.379 22.1472 165.81 22.2832C165.253 22.3945 164.784 22.8519 164.499 23.569C164.19 24.348 164.128 25.3123 164.326 26.2891L163.411 26.4869C163.164 25.3371 163.251 24.1749 163.634 23.2352C164.042 22.2214 164.747 21.5661 165.612 21.393C166.49 21.2199 167.392 21.529 168.171 22.2832C168.901 23.0003 169.432 24.0265 169.68 25.1763C169.964 26.524 169.803 27.8716 169.259 28.8731L169.272 28.8484Z" fill="#1C3FCA"/>
<path d="M188.016 26.5735L187.2 26.116C187.633 25.3247 187.756 24.1873 187.521 23.0745C187.126 21.1581 185.766 19.7487 184.566 20.0083C183.367 20.2556 182.749 21.7269 183.033 23.6556L182.106 23.7916C181.747 21.3436 182.662 19.4519 184.381 19.0934C186.136 18.7348 187.917 20.3916 188.449 22.8891C188.733 24.2367 188.572 25.5844 188.028 26.5858L188.016 26.5735Z" fill="#1C3FCA"/>
<path d="M179.299 27.8098L178.483 27.3524C178.916 26.5611 179.039 25.4236 178.804 24.3109C178.409 22.3945 177.049 20.985 175.849 21.2447C174.65 21.4919 174.032 22.9632 174.316 24.892L173.389 25.028C173.031 22.58 173.945 20.6883 175.664 20.3297C177.407 19.9836 179.2 21.6279 179.732 24.1254C180.016 25.4731 179.855 26.8207 179.311 27.8222L179.299 27.8098Z" fill="#1C3FCA"/>
<path d="M166.601 36.8106L172.128 36.0317C172.548 35.9699 172.956 36.1925 173.129 36.5757L174.242 38.9001C174.402 39.2463 174.192 39.642 173.809 39.7038L168.282 40.4827C167.862 40.5445 167.454 40.322 167.281 39.9387L166.168 37.6143C166.007 37.2681 166.218 36.8725 166.601 36.8106V36.8106Z" fill="#C0DFFF"/>
<path d="M176.962 35.3517L182.488 34.5728C182.909 34.511 183.317 34.7335 183.49 35.1168L184.602 37.4412C184.763 37.7874 184.553 38.183 184.17 38.2448L178.643 39.0238C178.223 39.0856 177.815 38.863 177.642 38.4798L176.529 36.1554C176.368 35.8092 176.578 35.4135 176.962 35.3517Z" fill="#C0DFFF"/>
<path d="M187.322 33.8928L192.849 33.1139C193.269 33.0521 193.677 33.2746 193.85 33.6579L194.963 35.9823C195.124 36.3285 194.914 36.7241 194.53 36.7859L189.004 37.5648C188.583 37.6267 188.175 37.4041 188.002 37.0208L186.89 34.6964C186.729 34.3503 186.939 33.9546 187.322 33.8928Z" fill="#C0DFFF"/>
<path d="M169.642 43.1409L175.169 42.362C175.589 42.3002 175.997 42.5227 176.171 42.906L177.283 45.2304C177.444 45.5766 177.234 45.9722 176.851 46.034L171.324 46.813C170.904 46.8748 170.496 46.6522 170.322 46.2689L169.21 43.9446C169.049 43.5984 169.259 43.2027 169.642 43.1409Z" fill="#C0DFFF"/>
<path d="M180.003 41.6696L185.53 40.8907C185.95 40.8289 186.358 41.0514 186.531 41.4347L187.644 43.7591C187.805 44.1053 187.595 44.5009 187.211 44.5627L181.685 45.3416C181.264 45.4035 180.856 45.1809 180.683 44.7976L179.57 42.4732C179.41 42.1271 179.62 41.7314 180.003 41.6696Z" fill="#C0DFFF"/>
<path d="M190.364 40.2107L195.891 39.4318C196.311 39.37 196.719 39.5925 196.892 39.9758L198.005 42.3002C198.165 42.6464 197.955 43.042 197.572 43.1039L192.045 43.8828C191.625 43.9446 191.217 43.722 191.044 43.3388L189.931 41.0144C189.77 40.6682 189.981 40.2726 190.364 40.2107Z" fill="#C0DFFF"/>
<path d="M172.684 49.4588L178.21 48.6799C178.631 48.6181 179.039 48.8407 179.212 49.2239L180.324 51.5483C180.485 51.8945 180.275 52.2901 179.892 52.352L174.365 53.1309C173.945 53.1927 173.537 52.9702 173.364 52.5869L172.251 50.2625C172.09 49.9163 172.3 49.5207 172.684 49.4588Z" fill="#C0DFFF"/>
<path d="M183.045 47.9999L188.571 47.2209C188.992 47.1591 189.4 47.3817 189.573 47.7649L190.686 50.0893C190.846 50.4355 190.636 50.8312 190.253 50.893L184.726 51.6719C184.306 51.7337 183.898 51.5112 183.725 51.1279L182.612 48.8035C182.451 48.4573 182.662 48.0617 183.045 47.9999Z" fill="#C0DFFF"/>
<path d="M193.405 46.5409L198.932 45.762C199.352 45.7002 199.76 45.9227 199.933 46.306L201.046 48.6304C201.207 48.9766 200.997 49.3722 200.613 49.4341L195.087 50.213C194.666 50.2748 194.258 50.0522 194.085 49.669L192.973 47.3446C192.812 46.9984 193.022 46.6028 193.405 46.5409Z" fill="#C0DFFF"/>
<path d="M185.296 85.4127C185.296 79.985 189.104 75.4599 194.185 74.3347V74.0627H197.078C203.149 74.2977 208.008 79.2926 208.008 85.4127C208.008 91.5451 203.149 96.5277 197.078 96.7627H194.185V96.503C189.104 95.3779 185.296 90.8404 185.296 85.4251V85.4127Z" fill="#FF9D00"/>
<path d="M194.074 96.7627C200.342 96.7627 205.424 91.6811 205.424 85.4127C205.424 79.1443 200.342 74.0627 194.074 74.0627C187.806 74.0627 182.724 79.1443 182.724 85.4127C182.724 91.6811 187.806 96.7627 194.074 96.7627Z" fill="#FFCC4D"/>
<path d="M194.074 95.0317C188.77 95.0317 184.443 90.7167 184.443 85.4003C184.443 80.0839 188.758 75.7689 194.074 75.7689C199.39 75.7689 203.705 80.0839 203.705 85.4003C203.705 90.7167 199.39 95.0317 194.074 95.0317ZM194.074 76.5107C189.166 76.5107 185.172 80.5043 185.172 85.4127C185.172 90.3211 189.166 94.3146 194.074 94.3146C198.982 94.3146 202.976 90.3211 202.976 85.4127C202.976 80.5043 198.982 76.5107 194.074 76.5107Z" fill="#FF9D00"/>
<path d="M175.504 86.3895C175.368 86.3895 175.232 86.3647 175.096 86.3153C174.539 86.0927 174.267 85.4622 174.478 84.9058C174.478 84.8687 174.836 83.9167 174.428 83.1378C174.156 82.6185 173.55 82.2352 172.623 82.0127C172.042 81.8767 171.683 81.2832 171.819 80.7021C171.955 80.121 172.549 79.7501 173.13 79.8985C174.7 80.2694 175.788 81.0359 176.357 82.1487C177.21 83.7931 176.567 85.5116 176.493 85.6971C176.32 86.1298 175.912 86.3895 175.479 86.3895H175.504Z" fill="#1FC994"/>
<path d="M218.801 116.075C218.579 116.075 218.356 116.013 218.158 115.89L211.086 111.537C210.703 111.303 210.468 110.87 210.505 110.412C210.53 109.955 210.802 109.559 211.21 109.361L218.331 106.011C218.715 105.825 219.16 105.862 219.518 106.085C219.877 106.308 220.087 106.703 220.087 107.136L220.038 114.839C220.038 115.284 219.79 115.692 219.407 115.914C219.222 116.013 219.011 116.075 218.801 116.075V116.075ZM214.325 110.635L217.577 112.638L217.602 109.089L214.325 110.635V110.635Z" fill="#8262F9"/>
<path d="M99.503 73.9021C98.5757 73.9021 97.6484 73.5806 96.8571 72.9253C95.3487 71.6766 94.5698 69.2656 95.9669 67.0649C96.3378 66.4838 97.1044 66.3231 97.6731 66.6816C98.2542 67.0525 98.415 67.8191 98.0564 68.3878C97.3888 69.4387 97.7597 70.4649 98.4397 71.0213C98.7117 71.2438 99.6761 71.8991 100.715 70.91C101.209 70.4402 101.988 70.4649 102.458 70.9595C102.928 71.454 102.903 72.2453 102.408 72.7028C101.568 73.4941 100.542 73.8897 99.503 73.8897V73.9021Z" fill="#7A66F2"/>
<path d="M225.627 66.731C225.342 66.731 225.058 66.6321 224.835 66.4467C224.625 66.3848 224.106 66.3477 223.76 66.3106C222.536 66.2117 221.015 66.0757 220.434 64.8394C219.865 63.6153 219.865 62.4531 219.853 61.6C219.853 61.3157 219.853 60.9448 219.816 60.7593C219.717 60.7346 219.531 60.7099 219.185 60.7346H218.987C216.935 60.8459 215.698 60.9077 214.845 60.0422C213.992 59.2015 213.992 57.9404 214.079 55.9622C214.116 55.2822 214.685 54.7258 215.377 54.7876C216.057 54.8247 216.589 55.3934 216.552 56.0858C216.527 56.6174 216.465 58.0393 216.626 58.336C216.799 58.3855 217.85 58.336 218.876 58.2742H219.074C219.778 58.2371 220.829 58.2742 221.559 58.9542C222.325 59.6837 222.338 60.6975 222.338 61.5877C222.338 62.2677 222.338 62.9724 222.622 63.6648C222.907 63.7637 223.587 63.8255 223.97 63.8503C224.984 63.9368 225.948 64.011 226.541 64.6663C226.999 65.1732 226.974 65.9521 226.467 66.4096C226.232 66.6321 225.936 66.731 225.639 66.731H225.627Z" fill="#EA7FE0"/>
<path d="M40.7941 184V170.909H49.3083V172.897H43.1656V176.451H48.8673V178.439H43.1656V182.012H49.3595V184H40.7941ZM60.3953 174.182L56.8989 184H54.3421L50.8456 174.182H53.3129L55.5693 181.475H55.6716L57.9344 174.182H60.3953ZM66.0091 184.192C65.0248 184.192 64.1746 183.987 63.4587 183.578C62.7471 183.165 62.1995 182.581 61.816 181.827C61.4324 181.068 61.2407 180.175 61.2407 179.148C61.2407 178.138 61.4324 177.252 61.816 176.489C62.2037 175.722 62.7449 175.126 63.4395 174.7C64.1341 174.269 64.9502 174.054 65.8877 174.054C66.4928 174.054 67.0638 174.152 67.6008 174.348C68.142 174.54 68.6192 174.838 69.0326 175.243C69.4502 175.648 69.7783 176.163 70.017 176.79C70.2556 177.412 70.3749 178.153 70.3749 179.014V179.724H62.3273V178.164H68.1569C68.1526 177.721 68.0567 177.327 67.8692 176.982C67.6817 176.632 67.4197 176.357 67.083 176.157C66.7506 175.957 66.3628 175.857 65.9197 175.857C65.4466 175.857 65.0312 175.972 64.6732 176.202C64.3153 176.428 64.0361 176.726 63.8358 177.097C63.6398 177.463 63.5397 177.866 63.5354 178.305V179.666C63.5354 180.237 63.6398 180.727 63.8486 181.136C64.0574 181.541 64.3493 181.852 64.7243 182.07C65.0993 182.283 65.5383 182.389 66.0411 182.389C66.3778 182.389 66.6824 182.342 66.9552 182.249C67.2279 182.151 67.4644 182.008 67.6647 181.82C67.865 181.633 68.0162 181.401 68.1185 181.124L70.279 181.366C70.1427 181.937 69.8827 182.436 69.4992 182.862C69.1199 183.284 68.6341 183.612 68.0418 183.847C67.4495 184.077 66.7719 184.192 66.0091 184.192ZM72.3325 184V174.182H74.5761V175.818H74.6784C74.8573 175.251 75.1642 174.815 75.5988 174.508C76.0377 174.197 76.5384 174.041 77.1009 174.041C77.2288 174.041 77.3715 174.048 77.5292 174.06C77.6911 174.069 77.8254 174.084 77.9319 174.105V176.234C77.8339 176.2 77.6784 176.17 77.4653 176.144C77.2565 176.114 77.0541 176.099 76.858 176.099C76.4362 176.099 76.0569 176.191 75.7203 176.374C75.3879 176.553 75.1258 176.803 74.934 177.122C74.7423 177.442 74.6464 177.81 74.6464 178.228V184H72.3325ZM81.2062 187.682C80.8909 187.682 80.599 187.656 80.3305 187.605C80.0663 187.558 79.8554 187.503 79.6977 187.439L80.2346 185.636C80.5713 185.734 80.8717 185.781 81.1359 185.777C81.4001 185.773 81.6324 185.69 81.8327 185.528C82.0372 185.37 82.2098 185.106 82.3504 184.735L82.5486 184.205L78.9882 174.182H81.4427L83.7055 181.597H83.8078L86.077 174.182H88.5379L84.6068 185.189C84.4236 185.709 84.1807 186.154 83.8781 186.525C83.5756 186.9 83.2048 187.185 82.7659 187.381C82.3312 187.582 81.8113 187.682 81.2062 187.682ZM95.0418 174.182V175.972H89.3976V174.182H95.0418ZM90.7911 171.83H93.105V181.047C93.105 181.358 93.1519 181.597 93.2457 181.763C93.3437 181.925 93.4715 182.036 93.6292 182.095C93.7868 182.155 93.9616 182.185 94.1533 182.185C94.2982 182.185 94.4303 182.174 94.5496 182.153C94.6732 182.131 94.767 182.112 94.8309 182.095L95.2208 183.904C95.0972 183.947 94.9204 183.994 94.6903 184.045C94.4644 184.096 94.1874 184.126 93.8593 184.134C93.2797 184.151 92.7577 184.064 92.2932 183.872C91.8287 183.676 91.4601 183.374 91.1874 182.964C90.9189 182.555 90.7868 182.044 90.7911 181.43V171.83ZM99.5019 178.247V184H97.1879V170.909H99.4507V175.85H99.5658C99.7959 175.296 100.152 174.859 100.633 174.54C101.119 174.216 101.737 174.054 102.487 174.054C103.169 174.054 103.763 174.197 104.27 174.482C104.777 174.768 105.169 175.185 105.446 175.735C105.728 176.285 105.868 176.956 105.868 177.749V184H103.554V178.107C103.554 177.446 103.384 176.933 103.043 176.566C102.706 176.195 102.233 176.01 101.624 176.01C101.215 176.01 100.848 176.099 100.525 176.278C100.205 176.453 99.9536 176.707 99.7703 177.039C99.5914 177.371 99.5019 177.774 99.5019 178.247ZM108.227 184V174.182H110.541V184H108.227ZM109.39 172.788C109.024 172.788 108.709 172.667 108.444 172.424C108.18 172.177 108.048 171.881 108.048 171.536C108.048 171.186 108.18 170.89 108.444 170.647C108.709 170.4 109.024 170.276 109.39 170.276C109.761 170.276 110.076 170.4 110.336 170.647C110.601 170.89 110.733 171.186 110.733 171.536C110.733 171.881 110.601 172.177 110.336 172.424C110.076 172.667 109.761 172.788 109.39 172.788ZM115.234 178.247V184H112.92V174.182H115.132V175.85H115.247C115.473 175.3 115.833 174.864 116.327 174.54C116.826 174.216 117.442 174.054 118.175 174.054C118.852 174.054 119.442 174.199 119.945 174.489C120.452 174.778 120.844 175.198 121.121 175.748C121.403 176.298 121.541 176.964 121.537 177.749V184H119.223V178.107C119.223 177.45 119.052 176.937 118.712 176.566C118.375 176.195 117.908 176.01 117.312 176.01C116.907 176.01 116.547 176.099 116.231 176.278C115.92 176.453 115.675 176.707 115.496 177.039C115.322 177.371 115.234 177.774 115.234 178.247ZM128.159 187.886C127.328 187.886 126.614 187.773 126.018 187.548C125.421 187.326 124.942 187.028 124.579 186.653C124.217 186.278 123.966 185.862 123.825 185.406L125.909 184.901C126.003 185.093 126.139 185.283 126.318 185.47C126.497 185.662 126.738 185.82 127.04 185.943C127.347 186.071 127.733 186.135 128.197 186.135C128.854 186.135 129.397 185.975 129.827 185.656C130.258 185.34 130.473 184.82 130.473 184.096V182.236H130.358C130.239 182.474 130.064 182.719 129.834 182.971C129.608 183.222 129.307 183.433 128.932 183.604C128.562 183.774 128.095 183.859 127.533 183.859C126.778 183.859 126.094 183.683 125.481 183.329C124.871 182.971 124.386 182.438 124.023 181.731C123.665 181.019 123.486 180.129 123.486 179.059C123.486 177.981 123.665 177.071 124.023 176.33C124.386 175.584 124.873 175.019 125.487 174.636C126.101 174.248 126.785 174.054 127.539 174.054C128.114 174.054 128.587 174.152 128.958 174.348C129.333 174.54 129.631 174.772 129.853 175.045C130.074 175.313 130.243 175.567 130.358 175.805H130.486V174.182H132.768V184.16C132.768 184.999 132.567 185.694 132.167 186.244C131.766 186.793 131.219 187.205 130.524 187.477C129.829 187.75 129.041 187.886 128.159 187.886ZM128.178 182.044C128.668 182.044 129.086 181.925 129.431 181.686C129.776 181.447 130.038 181.104 130.217 180.657C130.396 180.21 130.486 179.673 130.486 179.046C130.486 178.428 130.396 177.887 130.217 177.423C130.043 176.958 129.783 176.598 129.437 176.342C129.097 176.082 128.677 175.952 128.178 175.952C127.663 175.952 127.232 176.087 126.887 176.355C126.542 176.624 126.282 176.992 126.107 177.461C125.932 177.925 125.845 178.454 125.845 179.046C125.845 179.647 125.932 180.173 126.107 180.625C126.286 181.072 126.548 181.422 126.893 181.673C127.243 181.92 127.671 182.044 128.178 182.044ZM142.429 184.198C141.807 184.198 141.247 184.087 140.748 183.866C140.254 183.64 139.862 183.308 139.572 182.869C139.286 182.43 139.144 181.888 139.144 181.245C139.144 180.691 139.246 180.233 139.451 179.871C139.655 179.509 139.934 179.219 140.288 179.001C140.642 178.784 141.04 178.62 141.483 178.509C141.931 178.394 142.393 178.311 142.87 178.26C143.446 178.2 143.912 178.147 144.27 178.1C144.628 178.049 144.888 177.972 145.05 177.87C145.216 177.763 145.299 177.599 145.299 177.378V177.339C145.299 176.858 145.157 176.485 144.871 176.221C144.585 175.957 144.174 175.825 143.637 175.825C143.071 175.825 142.621 175.948 142.289 176.195C141.96 176.442 141.739 176.734 141.624 177.071L139.463 176.764C139.634 176.168 139.915 175.669 140.307 175.268C140.699 174.864 141.179 174.561 141.745 174.361C142.312 174.156 142.938 174.054 143.625 174.054C144.098 174.054 144.568 174.109 145.037 174.22C145.506 174.331 145.934 174.514 146.322 174.77C146.71 175.021 147.021 175.364 147.255 175.799C147.494 176.234 147.613 176.777 147.613 177.429V184H145.389V182.651H145.312C145.171 182.924 144.973 183.18 144.718 183.418C144.466 183.653 144.149 183.842 143.765 183.987C143.386 184.128 142.941 184.198 142.429 184.198ZM143.03 182.498C143.495 182.498 143.897 182.406 144.238 182.223C144.579 182.036 144.841 181.788 145.024 181.482C145.212 181.175 145.306 180.84 145.306 180.478V179.321C145.233 179.381 145.11 179.436 144.935 179.487C144.764 179.538 144.573 179.583 144.36 179.621C144.147 179.66 143.936 179.694 143.727 179.724C143.518 179.754 143.337 179.779 143.184 179.8C142.838 179.847 142.529 179.924 142.257 180.031C141.984 180.137 141.769 180.286 141.611 180.478C141.453 180.665 141.375 180.908 141.375 181.207C141.375 181.633 141.53 181.955 141.841 182.172C142.152 182.389 142.549 182.498 143.03 182.498ZM150.042 184V170.909H152.356V175.805H152.452C152.571 175.567 152.74 175.313 152.957 175.045C153.174 174.772 153.468 174.54 153.839 174.348C154.21 174.152 154.683 174.054 155.258 174.054C156.017 174.054 156.701 174.248 157.31 174.636C157.924 175.019 158.409 175.588 158.767 176.342C159.13 177.092 159.311 178.013 159.311 179.104C159.311 180.182 159.134 181.098 158.78 181.852C158.426 182.607 157.945 183.182 157.335 183.578C156.726 183.974 156.036 184.173 155.264 184.173C154.702 184.173 154.235 184.079 153.865 183.891C153.494 183.704 153.196 183.478 152.97 183.214C152.748 182.945 152.576 182.692 152.452 182.453H152.318V184H150.042ZM152.311 179.091C152.311 179.726 152.401 180.282 152.58 180.759C152.763 181.237 153.025 181.609 153.366 181.878C153.711 182.142 154.129 182.274 154.619 182.274C155.13 182.274 155.559 182.138 155.904 181.865C156.249 181.588 156.509 181.211 156.684 180.734C156.862 180.252 156.952 179.705 156.952 179.091C156.952 178.482 156.865 177.94 156.69 177.467C156.515 176.994 156.255 176.624 155.91 176.355C155.565 176.087 155.134 175.952 154.619 175.952C154.125 175.952 153.705 176.082 153.36 176.342C153.014 176.602 152.752 176.967 152.573 177.435C152.399 177.904 152.311 178.456 152.311 179.091ZM165.56 184.192C164.602 184.192 163.771 183.981 163.068 183.559C162.364 183.137 161.819 182.547 161.431 181.788C161.048 181.03 160.856 180.143 160.856 179.129C160.856 178.115 161.048 177.227 161.431 176.464C161.819 175.701 162.364 175.109 163.068 174.687C163.771 174.265 164.602 174.054 165.56 174.054C166.519 174.054 167.35 174.265 168.053 174.687C168.756 175.109 169.3 175.701 169.683 176.464C170.071 177.227 170.265 178.115 170.265 179.129C170.265 180.143 170.071 181.03 169.683 181.788C169.3 182.547 168.756 183.137 168.053 183.559C167.35 183.981 166.519 184.192 165.56 184.192ZM165.573 182.338C166.093 182.338 166.528 182.195 166.877 181.91C167.227 181.62 167.487 181.232 167.657 180.746C167.832 180.261 167.919 179.719 167.919 179.123C167.919 178.522 167.832 177.979 167.657 177.493C167.487 177.003 167.227 176.613 166.877 176.323C166.528 176.033 166.093 175.888 165.573 175.888C165.041 175.888 164.597 176.033 164.244 176.323C163.894 176.613 163.632 177.003 163.457 177.493C163.287 177.979 163.202 178.522 163.202 179.123C163.202 179.719 163.287 180.261 163.457 180.746C163.632 181.232 163.894 181.62 164.244 181.91C164.597 182.195 165.041 182.338 165.573 182.338ZM178.487 179.871V174.182H180.801V184H178.557V182.255H178.455C178.233 182.805 177.869 183.254 177.362 183.604C176.859 183.953 176.239 184.128 175.502 184.128C174.858 184.128 174.289 183.985 173.795 183.7C173.305 183.41 172.921 182.99 172.644 182.44C172.367 181.886 172.229 181.217 172.229 180.433V174.182H174.543V180.075C174.543 180.697 174.713 181.192 175.054 181.558C175.395 181.925 175.843 182.108 176.397 182.108C176.737 182.108 177.068 182.025 177.387 181.859C177.707 181.692 177.969 181.445 178.174 181.117C178.382 180.785 178.487 180.369 178.487 179.871ZM188.083 174.182V175.972H182.439V174.182H188.083ZM183.832 171.83H186.146V181.047C186.146 181.358 186.193 181.597 186.287 181.763C186.385 181.925 186.513 182.036 186.67 182.095C186.828 182.155 187.003 182.185 187.194 182.185C187.339 182.185 187.471 182.174 187.591 182.153C187.714 182.131 187.808 182.112 187.872 182.095L188.262 183.904C188.138 183.947 187.961 183.994 187.731 184.045C187.505 184.096 187.228 184.126 186.9 184.134C186.321 184.151 185.799 184.064 185.334 183.872C184.87 183.676 184.501 183.374 184.228 182.964C183.96 182.555 183.828 182.044 183.832 181.43V171.83ZM195.921 187.682C195.606 187.682 195.314 187.656 195.045 187.605C194.781 187.558 194.57 187.503 194.413 187.439L194.949 185.636C195.286 185.734 195.587 185.781 195.851 185.777C196.115 185.773 196.347 185.69 196.547 185.528C196.752 185.37 196.925 185.106 197.065 184.735L197.263 184.205L193.703 174.182H196.158L198.42 181.597H198.523L200.792 174.182H203.253L199.322 185.189C199.138 185.709 198.896 186.154 198.593 186.525C198.29 186.9 197.92 187.185 197.481 187.381C197.046 187.582 196.526 187.682 195.921 187.682ZM208.803 184.192C207.844 184.192 207.013 183.981 206.31 183.559C205.607 183.137 205.061 182.547 204.673 181.788C204.29 181.03 204.098 180.143 204.098 179.129C204.098 178.115 204.29 177.227 204.673 176.464C205.061 175.701 205.607 175.109 206.31 174.687C207.013 174.265 207.844 174.054 208.803 174.054C209.761 174.054 210.592 174.265 211.296 174.687C211.999 175.109 212.542 175.701 212.926 176.464C213.313 177.227 213.507 178.115 213.507 179.129C213.507 180.143 213.313 181.03 212.926 181.788C212.542 182.547 211.999 183.137 211.296 183.559C210.592 183.981 209.761 184.192 208.803 184.192ZM208.815 182.338C209.335 182.338 209.77 182.195 210.119 181.91C210.469 181.62 210.729 181.232 210.899 180.746C211.074 180.261 211.161 179.719 211.161 179.123C211.161 178.522 211.074 177.979 210.899 177.493C210.729 177.003 210.469 176.613 210.119 176.323C209.77 176.033 209.335 175.888 208.815 175.888C208.283 175.888 207.84 176.033 207.486 176.323C207.136 176.613 206.874 177.003 206.7 177.493C206.529 177.979 206.444 178.522 206.444 179.123C206.444 179.719 206.529 180.261 206.7 180.746C206.874 181.232 207.136 181.62 207.486 181.91C207.84 182.195 208.283 182.338 208.815 182.338ZM221.729 179.871V174.182H224.043V184H221.799V182.255H221.697C221.475 182.805 221.111 183.254 220.604 183.604C220.101 183.953 219.481 184.128 218.744 184.128C218.1 184.128 217.532 183.985 217.037 183.7C216.547 183.41 216.164 182.99 215.887 182.44C215.61 181.886 215.471 181.217 215.471 180.433V174.182H217.785V180.075C217.785 180.697 217.956 181.192 218.296 181.558C218.637 181.925 219.085 182.108 219.639 182.108C219.98 182.108 220.31 182.025 220.63 181.859C220.949 181.692 221.211 181.445 221.416 181.117C221.625 180.785 221.729 180.369 221.729 179.871ZM226.422 184V174.182H228.666V175.818H228.768C228.947 175.251 229.254 174.815 229.689 174.508C230.128 174.197 230.628 174.041 231.191 174.041C231.319 174.041 231.461 174.048 231.619 174.06C231.781 174.069 231.915 174.084 232.022 174.105V176.234C231.924 176.2 231.768 176.17 231.555 176.144C231.346 176.114 231.144 176.099 230.948 176.099C230.526 176.099 230.147 176.191 229.81 176.374C229.478 176.553 229.216 176.803 229.024 177.122C228.832 177.442 228.736 177.81 228.736 178.228V184H226.422ZM249.331 175.326H246.941C246.873 174.934 246.747 174.587 246.564 174.284C246.38 173.977 246.152 173.717 245.88 173.504C245.607 173.291 245.296 173.131 244.946 173.025C244.601 172.914 244.228 172.859 243.828 172.859C243.116 172.859 242.486 173.038 241.936 173.396C241.386 173.749 240.956 174.269 240.645 174.955C240.334 175.637 240.178 176.47 240.178 177.455C240.178 178.456 240.334 179.3 240.645 179.986C240.96 180.668 241.39 181.183 241.936 181.533C242.486 181.878 243.114 182.05 243.821 182.05C244.214 182.05 244.58 181.999 244.921 181.897C245.266 181.79 245.575 181.635 245.848 181.43C246.125 181.226 246.357 180.974 246.544 180.676C246.736 180.378 246.868 180.037 246.941 179.653L249.331 179.666C249.242 180.288 249.048 180.872 248.75 181.418C248.456 181.963 248.07 182.445 247.593 182.862C247.116 183.276 246.557 183.599 245.918 183.834C245.279 184.064 244.569 184.179 243.79 184.179C242.639 184.179 241.612 183.913 240.709 183.38C239.805 182.847 239.093 182.078 238.574 181.072C238.054 180.067 237.794 178.861 237.794 177.455C237.794 176.044 238.056 174.838 238.58 173.837C239.104 172.831 239.818 172.062 240.721 171.529C241.625 170.996 242.647 170.73 243.79 170.73C244.518 170.73 245.196 170.832 245.822 171.037C246.449 171.241 247.007 171.542 247.497 171.938C247.987 172.33 248.39 172.812 248.705 173.383C249.025 173.95 249.233 174.597 249.331 175.326ZM254.226 184.198C253.604 184.198 253.044 184.087 252.545 183.866C252.051 183.64 251.659 183.308 251.369 182.869C251.083 182.43 250.941 181.888 250.941 181.245C250.941 180.691 251.043 180.233 251.247 179.871C251.452 179.509 251.731 179.219 252.085 179.001C252.438 178.784 252.837 178.62 253.28 178.509C253.728 178.394 254.19 178.311 254.667 178.26C255.242 178.2 255.709 178.147 256.067 178.1C256.425 178.049 256.685 177.972 256.847 177.87C257.013 177.763 257.096 177.599 257.096 177.378V177.339C257.096 176.858 256.953 176.485 256.668 176.221C256.382 175.957 255.971 175.825 255.434 175.825C254.867 175.825 254.418 175.948 254.085 176.195C253.757 176.442 253.536 176.734 253.421 177.071L251.26 176.764C251.431 176.168 251.712 175.669 252.104 175.268C252.496 174.864 252.975 174.561 253.542 174.361C254.109 174.156 254.735 174.054 255.421 174.054C255.894 174.054 256.365 174.109 256.834 174.22C257.303 174.331 257.731 174.514 258.119 174.77C258.507 175.021 258.818 175.364 259.052 175.799C259.291 176.234 259.41 176.777 259.41 177.429V184H257.186V182.651H257.109C256.968 182.924 256.77 183.18 256.514 183.418C256.263 183.653 255.946 183.842 255.562 183.987C255.183 184.128 254.737 184.198 254.226 184.198ZM254.827 182.498C255.291 182.498 255.694 182.406 256.035 182.223C256.376 182.036 256.638 181.788 256.821 181.482C257.009 181.175 257.103 180.84 257.103 180.478V179.321C257.03 179.381 256.907 179.436 256.732 179.487C256.561 179.538 256.37 179.583 256.157 179.621C255.943 179.66 255.733 179.694 255.524 179.724C255.315 179.754 255.134 179.779 254.98 179.8C254.635 179.847 254.326 179.924 254.054 180.031C253.781 180.137 253.566 180.286 253.408 180.478C253.25 180.665 253.171 180.908 253.171 181.207C253.171 181.633 253.327 181.955 253.638 182.172C253.949 182.389 254.345 182.498 254.827 182.498ZM261.737 184V174.182H263.98V175.818H264.083C264.262 175.251 264.568 174.815 265.003 174.508C265.442 174.197 265.943 174.041 266.505 174.041C266.633 174.041 266.776 174.048 266.934 174.06C267.095 174.069 267.23 174.084 267.336 174.105V176.234C267.238 176.2 267.083 176.17 266.87 176.144C266.661 176.114 266.458 176.099 266.262 176.099C265.84 176.099 265.461 176.191 265.125 176.374C264.792 176.553 264.53 176.803 264.338 177.122C264.147 177.442 264.051 177.81 264.051 178.228V184H261.737ZM272.113 184.173C271.341 184.173 270.651 183.974 270.042 183.578C269.432 183.182 268.951 182.607 268.597 181.852C268.243 181.098 268.066 180.182 268.066 179.104C268.066 178.013 268.245 177.092 268.603 176.342C268.966 175.588 269.454 175.019 270.067 174.636C270.681 174.248 271.365 174.054 272.119 174.054C272.694 174.054 273.167 174.152 273.538 174.348C273.909 174.54 274.203 174.772 274.42 175.045C274.638 175.313 274.806 175.567 274.925 175.805H275.021V170.909H277.341V184H275.066V182.453H274.925C274.806 182.692 274.633 182.945 274.407 183.214C274.182 183.478 273.883 183.704 273.513 183.891C273.142 184.079 272.675 184.173 272.113 184.173ZM272.758 182.274C273.248 182.274 273.666 182.142 274.011 181.878C274.356 181.609 274.618 181.237 274.797 180.759C274.976 180.282 275.066 179.726 275.066 179.091C275.066 178.456 274.976 177.904 274.797 177.435C274.623 176.967 274.363 176.602 274.017 176.342C273.677 176.082 273.257 175.952 272.758 175.952C272.243 175.952 271.812 176.087 271.467 176.355C271.122 176.624 270.862 176.994 270.687 177.467C270.513 177.94 270.425 178.482 270.425 179.091C270.425 179.705 270.513 180.252 270.687 180.734C270.866 181.211 271.128 181.588 271.473 181.865C271.823 182.138 272.251 182.274 272.758 182.274ZM287.567 176.777L285.458 177.007C285.398 176.794 285.294 176.594 285.144 176.406C285 176.219 284.804 176.067 284.556 175.952C284.309 175.837 284.007 175.78 283.649 175.78C283.167 175.78 282.762 175.884 282.434 176.093C282.11 176.302 281.951 176.572 281.955 176.905C281.951 177.19 282.055 177.423 282.268 177.602C282.485 177.781 282.843 177.928 283.342 178.043L285.017 178.401C285.946 178.601 286.636 178.918 287.088 179.353C287.544 179.788 287.774 180.357 287.778 181.06C287.774 181.678 287.593 182.223 287.235 182.696C286.881 183.165 286.389 183.531 285.758 183.795C285.127 184.06 284.403 184.192 283.585 184.192C282.383 184.192 281.416 183.94 280.683 183.438C279.95 182.93 279.513 182.225 279.372 181.322L281.629 181.104C281.731 181.548 281.948 181.882 282.281 182.108C282.613 182.334 283.046 182.447 283.578 182.447C284.128 182.447 284.569 182.334 284.902 182.108C285.238 181.882 285.407 181.603 285.407 181.271C285.407 180.989 285.298 180.757 285.081 180.574C284.867 180.391 284.535 180.25 284.083 180.152L282.409 179.8C281.467 179.604 280.77 179.274 280.318 178.81C279.867 178.341 279.643 177.749 279.647 177.033C279.643 176.428 279.807 175.903 280.139 175.46C280.476 175.013 280.943 174.668 281.539 174.425C282.14 174.178 282.833 174.054 283.617 174.054C284.767 174.054 285.673 174.299 286.333 174.789C286.998 175.279 287.409 175.942 287.567 176.777Z" fill="white"/>
<path opacity="0.8" d="M49.9554 202H48.7225C48.6496 201.645 48.522 201.334 48.3397 201.065C48.1607 200.797 47.9419 200.571 47.6834 200.389C47.4282 200.204 47.1448 200.064 46.8333 199.972C46.5217 199.879 46.1969 199.832 45.8588 199.832C45.2424 199.832 44.6839 199.988 44.1834 200.3C43.6863 200.611 43.2902 201.07 42.9952 201.677C42.7035 202.283 42.5577 203.027 42.5577 203.909C42.5577 204.791 42.7035 205.535 42.9952 206.141C43.2902 206.748 43.6863 207.207 44.1834 207.518C44.6839 207.83 45.2424 207.986 45.8588 207.986C46.1969 207.986 46.5217 207.939 46.8333 207.847C47.1448 207.754 47.4282 207.616 47.6834 207.434C47.9419 207.248 48.1607 207.021 48.3397 206.753C48.522 206.481 48.6496 206.17 48.7225 205.818H49.9554C49.8626 206.339 49.6936 206.804 49.4483 207.215C49.2031 207.626 48.8981 207.976 48.5336 208.264C48.169 208.549 47.7596 208.766 47.3056 208.915C46.8548 209.065 46.3726 209.139 45.8588 209.139C44.9905 209.139 44.2182 208.927 43.5421 208.503C42.8659 208.079 42.334 207.475 41.9462 206.693C41.5584 205.911 41.3645 204.983 41.3645 203.909C41.3645 202.835 41.5584 201.907 41.9462 201.125C42.334 200.343 42.8659 199.74 43.5421 199.315C44.2182 198.891 44.9905 198.679 45.8588 198.679C46.3726 198.679 46.8548 198.754 47.3056 198.903C47.7596 199.052 48.169 199.271 48.5336 199.559C48.8981 199.844 49.2031 200.192 49.4483 200.603C49.6936 201.011 49.8626 201.476 49.9554 202ZM54.0359 209.179C53.552 209.179 53.1128 209.088 52.7184 208.906C52.324 208.72 52.0108 208.453 51.7788 208.105C51.5468 207.754 51.4308 207.33 51.4308 206.832C51.4308 206.395 51.5169 206.04 51.6893 205.768C51.8616 205.493 52.092 205.278 52.3803 205.122C52.6687 204.966 52.9869 204.85 53.3349 204.774C53.6862 204.695 54.0392 204.632 54.3938 204.585C54.8578 204.526 55.234 204.481 55.5224 204.451C55.814 204.418 56.0262 204.363 56.1587 204.287C56.2946 204.211 56.3626 204.078 56.3626 203.889V203.849C56.3626 203.359 56.2283 202.978 55.9599 202.706C55.6947 202.434 55.292 202.298 54.7518 202.298C54.1916 202.298 53.7525 202.421 53.4343 202.666C53.1161 202.911 52.8924 203.173 52.7631 203.452L51.6495 203.054C51.8484 202.59 52.1135 202.229 52.445 201.97C52.7797 201.708 53.1443 201.526 53.5387 201.423C53.9364 201.317 54.3275 201.264 54.712 201.264C54.9573 201.264 55.239 201.294 55.5572 201.354C55.8787 201.41 56.1886 201.528 56.4869 201.707C56.7885 201.886 57.0387 202.156 57.2376 202.517C57.4364 202.878 57.5359 203.362 57.5359 203.969V209H56.3626V207.966H56.3029C56.2234 208.132 56.0908 208.309 55.9052 208.498C55.7196 208.687 55.4727 208.848 55.1644 208.98C54.8562 209.113 54.48 209.179 54.0359 209.179ZM54.2148 208.125C54.6789 208.125 55.07 208.034 55.3881 207.852C55.7096 207.669 55.9516 207.434 56.114 207.146C56.2797 206.857 56.3626 206.554 56.3626 206.236V205.162C56.3129 205.222 56.2035 205.276 56.0344 205.326C55.8687 205.372 55.6765 205.414 55.4577 205.45C55.2423 205.483 55.0318 205.513 54.8263 205.54C54.6242 205.563 54.4601 205.583 54.3342 205.599C54.0292 205.639 53.7442 205.704 53.479 205.793C53.2172 205.879 53.0051 206.01 52.8427 206.186C52.6836 206.358 52.604 206.594 52.604 206.892C52.604 207.3 52.7549 207.608 53.0565 207.817C53.3614 208.022 53.7475 208.125 54.2148 208.125ZM59.6774 209V201.364H60.8109V202.517H60.8904C61.0297 202.139 61.2815 201.833 61.6461 201.597C62.0107 201.362 62.4217 201.244 62.8791 201.244C62.9653 201.244 63.073 201.246 63.2022 201.249C63.3315 201.253 63.4293 201.258 63.4956 201.264V202.457C63.4558 202.447 63.3646 202.433 63.2221 202.413C63.0829 202.389 62.9354 202.378 62.7797 202.378C62.4084 202.378 62.077 202.456 61.7853 202.612C61.497 202.764 61.2683 202.976 61.0993 203.248C60.9335 203.516 60.8507 203.823 60.8507 204.168V209H59.6774ZM67.5375 209.159C66.9011 209.159 66.3393 208.998 65.8521 208.677C65.3649 208.352 64.9837 207.895 64.7086 207.305C64.4335 206.711 64.296 206.01 64.296 205.202C64.296 204.4 64.4335 203.704 64.7086 203.114C64.9837 202.524 65.3665 202.068 65.8571 201.746C66.3476 201.425 66.9144 201.264 67.5574 201.264C68.0545 201.264 68.4473 201.347 68.7356 201.513C69.0273 201.675 69.2493 201.861 69.4018 202.07C69.5576 202.275 69.6786 202.444 69.7647 202.577H69.8642V198.818H71.0375V209H69.9039V207.827H69.7647C69.6786 207.966 69.5559 208.142 69.3968 208.354C69.2377 208.562 69.0107 208.75 68.7157 208.915C68.4208 209.078 68.028 209.159 67.5375 209.159ZM67.6966 208.105C68.1672 208.105 68.5649 207.982 68.8897 207.737C69.2145 207.489 69.4615 207.146 69.6305 206.708C69.7995 206.267 69.8841 205.759 69.8841 205.182C69.8841 204.612 69.8012 204.113 69.6355 203.685C69.4698 203.254 69.2245 202.92 68.8997 202.681C68.5749 202.439 68.1738 202.318 67.6966 202.318C67.1994 202.318 66.7851 202.446 66.4537 202.701C66.1255 202.953 65.8786 203.296 65.7129 203.73C65.5505 204.161 65.4693 204.645 65.4693 205.182C65.4693 205.725 65.5521 206.219 65.7179 206.663C65.8869 207.104 66.1355 207.455 66.4636 207.717C66.795 207.976 67.206 208.105 67.6966 208.105ZM78.6788 198.818V209H77.4458V198.818H78.6788ZM82.1651 204.406V209H80.9918V201.364H82.1254V202.557H82.2248C82.4038 202.169 82.6755 201.857 83.0401 201.622C83.4047 201.384 83.8754 201.264 84.4521 201.264C84.9691 201.264 85.4215 201.37 85.8093 201.582C86.1971 201.791 86.4987 202.109 86.7141 202.537C86.9296 202.961 87.0373 203.498 87.0373 204.148V209H85.864V204.227C85.864 203.627 85.7082 203.16 85.3967 202.825C85.0851 202.487 84.6576 202.318 84.114 202.318C83.7395 202.318 83.4047 202.399 83.1097 202.562C82.8181 202.724 82.5877 202.961 82.4187 203.273C82.2496 203.584 82.1651 203.962 82.1651 204.406ZM92.5819 201.364V202.358H88.4654V201.364H92.5819ZM89.6983 209V200.31C89.6983 199.872 89.8011 199.508 90.0066 199.216C90.2121 198.924 90.4789 198.705 90.807 198.56C91.1351 198.414 91.4815 198.341 91.8461 198.341C92.1344 198.341 92.3697 198.364 92.552 198.411C92.7343 198.457 92.8702 198.5 92.9597 198.54L92.6216 199.554C92.562 199.534 92.4791 199.509 92.373 199.479C92.2703 199.45 92.1344 199.435 91.9654 199.435C91.5776 199.435 91.2975 199.532 91.1252 199.728C90.9561 199.924 90.8716 200.21 90.8716 200.588V209H89.6983ZM97.014 209.159C96.3246 209.159 95.7198 208.995 95.1994 208.667C94.6824 208.339 94.278 207.88 93.9863 207.29C93.698 206.7 93.5538 206.01 93.5538 205.222C93.5538 204.426 93.698 203.732 93.9863 203.138C94.278 202.545 94.6824 202.085 95.1994 201.756C95.7198 201.428 96.3246 201.264 97.014 201.264C97.7034 201.264 98.3066 201.428 98.8237 201.756C99.344 202.085 99.7484 202.545 100.037 203.138C100.328 203.732 100.474 204.426 100.474 205.222C100.474 206.01 100.328 206.7 100.037 207.29C99.7484 207.88 99.344 208.339 98.8237 208.667C98.3066 208.995 97.7034 209.159 97.014 209.159ZM97.014 208.105C97.5377 208.105 97.9686 207.971 98.3066 207.702C98.6447 207.434 98.8949 207.081 99.0574 206.643C99.2198 206.206 99.301 205.732 99.301 205.222C99.301 204.711 99.2198 204.236 99.0574 203.795C98.8949 203.354 98.6447 202.998 98.3066 202.726C97.9686 202.454 97.5377 202.318 97.014 202.318C96.4904 202.318 96.0595 202.454 95.7214 202.726C95.3833 202.998 95.1331 203.354 94.9707 203.795C94.8083 204.236 94.7271 204.711 94.7271 205.222C94.7271 205.732 94.8083 206.206 94.9707 206.643C95.1331 207.081 95.3833 207.434 95.7214 207.702C96.0595 207.971 96.4904 208.105 97.014 208.105ZM102.265 209V201.364H103.399V202.517H103.478C103.618 202.139 103.869 201.833 104.234 201.597C104.599 201.362 105.01 201.244 105.467 201.244C105.553 201.244 105.661 201.246 105.79 201.249C105.919 201.253 106.017 201.258 106.083 201.264V202.457C106.044 202.447 105.953 202.433 105.81 202.413C105.671 202.389 105.523 202.378 105.368 202.378C104.996 202.378 104.665 202.456 104.373 202.612C104.085 202.764 103.856 202.976 103.687 203.248C103.521 203.516 103.439 203.823 103.439 204.168V209H102.265ZM107.474 209V201.364H108.608V202.557H108.707C108.866 202.149 109.123 201.833 109.478 201.607C109.832 201.379 110.258 201.264 110.756 201.264C111.259 201.264 111.679 201.379 112.013 201.607C112.351 201.833 112.615 202.149 112.804 202.557H112.883C113.079 202.162 113.372 201.849 113.763 201.617C114.154 201.382 114.623 201.264 115.17 201.264C115.853 201.264 116.412 201.478 116.846 201.906C117.28 202.33 117.497 202.991 117.497 203.889V209H116.324V203.889C116.324 203.326 116.17 202.923 115.861 202.681C115.553 202.439 115.19 202.318 114.773 202.318C114.236 202.318 113.82 202.481 113.525 202.805C113.23 203.127 113.082 203.535 113.082 204.028V209H111.889V203.77C111.889 203.336 111.748 202.986 111.466 202.721C111.185 202.452 110.822 202.318 110.378 202.318C110.073 202.318 109.788 202.399 109.523 202.562C109.261 202.724 109.049 202.95 108.886 203.238C108.727 203.523 108.648 203.853 108.648 204.227V209H107.474ZM121.889 209.179C121.405 209.179 120.966 209.088 120.572 208.906C120.177 208.72 119.864 208.453 119.632 208.105C119.4 207.754 119.284 207.33 119.284 206.832C119.284 206.395 119.37 206.04 119.543 205.768C119.715 205.493 119.945 205.278 120.234 205.122C120.522 204.966 120.84 204.85 121.188 204.774C121.54 204.695 121.893 204.632 122.247 204.585C122.711 204.526 123.088 204.481 123.376 204.451C123.668 204.418 123.88 204.363 124.012 204.287C124.148 204.211 124.216 204.078 124.216 203.889V203.849C124.216 203.359 124.082 202.978 123.813 202.706C123.548 202.434 123.146 202.298 122.605 202.298C122.045 202.298 121.606 202.421 121.288 202.666C120.97 202.911 120.746 203.173 120.617 203.452L119.503 203.054C119.702 202.59 119.967 202.229 120.298 201.97C120.633 201.708 120.998 201.526 121.392 201.423C121.79 201.317 122.181 201.264 122.566 201.264C122.811 201.264 123.093 201.294 123.411 201.354C123.732 201.41 124.042 201.528 124.34 201.707C124.642 201.886 124.892 202.156 125.091 202.517C125.29 202.878 125.389 203.362 125.389 203.969V209H124.216V207.966H124.156C124.077 208.132 123.944 208.309 123.759 208.498C123.573 208.687 123.326 208.848 123.018 208.98C122.71 209.113 122.334 209.179 121.889 209.179ZM122.068 208.125C122.532 208.125 122.923 208.034 123.242 207.852C123.563 207.669 123.805 207.434 123.968 207.146C124.133 206.857 124.216 206.554 124.216 206.236V205.162C124.166 205.222 124.057 205.276 123.888 205.326C123.722 205.372 123.53 205.414 123.311 205.45C123.096 205.483 122.885 205.513 122.68 205.54C122.478 205.563 122.314 205.583 122.188 205.599C121.883 205.639 121.598 205.704 121.333 205.793C121.071 205.879 120.859 206.01 120.696 206.186C120.537 206.358 120.458 206.594 120.458 206.892C120.458 207.3 120.608 207.608 120.91 207.817C121.215 208.022 121.601 208.125 122.068 208.125ZM130.852 201.364V202.358H126.895V201.364H130.852ZM128.048 199.534H129.221V206.812C129.221 207.144 129.269 207.393 129.365 207.558C129.465 207.721 129.591 207.83 129.743 207.886C129.899 207.939 130.063 207.966 130.235 207.966C130.365 207.966 130.471 207.959 130.554 207.946C130.636 207.929 130.703 207.916 130.752 207.906L130.991 208.96C130.912 208.99 130.801 209.02 130.658 209.05C130.516 209.083 130.335 209.099 130.116 209.099C129.785 209.099 129.46 209.028 129.142 208.886C128.827 208.743 128.565 208.526 128.356 208.234C128.151 207.943 128.048 207.575 128.048 207.131V199.534ZM132.617 209V201.364H133.79V209H132.617ZM133.213 200.091C132.985 200.091 132.788 200.013 132.622 199.857C132.459 199.701 132.378 199.514 132.378 199.295C132.378 199.077 132.459 198.889 132.622 198.734C132.788 198.578 132.985 198.5 133.213 198.5C133.442 198.5 133.638 198.578 133.8 198.734C133.966 198.889 134.049 199.077 134.049 199.295C134.049 199.514 133.966 199.701 133.8 199.857C133.638 200.013 133.442 200.091 133.213 200.091ZM139.041 209.159C138.352 209.159 137.747 208.995 137.227 208.667C136.71 208.339 136.305 207.88 136.014 207.29C135.725 206.7 135.581 206.01 135.581 205.222C135.581 204.426 135.725 203.732 136.014 203.138C136.305 202.545 136.71 202.085 137.227 201.756C137.747 201.428 138.352 201.264 139.041 201.264C139.731 201.264 140.334 201.428 140.851 201.756C141.371 202.085 141.776 202.545 142.064 203.138C142.356 203.732 142.502 204.426 142.502 205.222C142.502 206.01 142.356 206.7 142.064 207.29C141.776 207.88 141.371 208.339 140.851 208.667C140.334 208.995 139.731 209.159 139.041 209.159ZM139.041 208.105C139.565 208.105 139.996 207.971 140.334 207.702C140.672 207.434 140.922 207.081 141.085 206.643C141.247 206.206 141.328 205.732 141.328 205.222C141.328 204.711 141.247 204.236 141.085 203.795C140.922 203.354 140.672 202.998 140.334 202.726C139.996 202.454 139.565 202.318 139.041 202.318C138.518 202.318 138.087 202.454 137.749 202.726C137.411 202.998 137.16 203.354 136.998 203.795C136.836 204.236 136.754 204.711 136.754 205.222C136.754 205.732 136.836 206.206 136.998 206.643C137.16 207.081 137.411 207.434 137.749 207.702C138.087 207.971 138.518 208.105 139.041 208.105ZM145.466 204.406V209H144.293V201.364H145.426V202.557H145.526C145.705 202.169 145.976 201.857 146.341 201.622C146.705 201.384 147.176 201.264 147.753 201.264C148.27 201.264 148.722 201.37 149.11 201.582C149.498 201.791 149.799 202.109 150.015 202.537C150.23 202.961 150.338 203.498 150.338 204.148V209H149.165V204.227C149.165 203.627 149.009 203.16 148.697 202.825C148.386 202.487 147.958 202.318 147.415 202.318C147.04 202.318 146.705 202.399 146.411 202.562C146.119 202.724 145.888 202.961 145.719 203.273C145.55 203.584 145.466 203.962 145.466 204.406ZM154.232 207.608L154.153 208.145C154.096 208.523 154.01 208.927 153.894 209.358C153.781 209.789 153.664 210.195 153.541 210.576C153.418 210.957 153.317 211.26 153.238 211.486H152.343C152.386 211.274 152.442 210.994 152.512 210.646C152.581 210.298 152.651 209.908 152.721 209.477C152.794 209.05 152.853 208.612 152.9 208.165L152.959 207.608H154.232ZM159.946 199.912V198.818H167.582V199.912H164.38V209H163.147V199.912H159.946ZM168.533 209V201.364H169.666V202.517H169.746C169.885 202.139 170.137 201.833 170.502 201.597C170.866 201.362 171.277 201.244 171.735 201.244C171.821 201.244 171.928 201.246 172.058 201.249C172.187 201.253 172.285 201.258 172.351 201.264V202.457C172.311 202.447 172.22 202.433 172.078 202.413C171.938 202.389 171.791 202.378 171.635 202.378C171.264 202.378 170.932 202.456 170.641 202.612C170.352 202.764 170.124 202.976 169.955 203.248C169.789 203.516 169.706 203.823 169.706 204.168V209H168.533ZM175.989 209.179C175.505 209.179 175.066 209.088 174.672 208.906C174.277 208.72 173.964 208.453 173.732 208.105C173.5 207.754 173.384 207.33 173.384 206.832C173.384 206.395 173.47 206.04 173.642 205.768C173.815 205.493 174.045 205.278 174.333 205.122C174.622 204.966 174.94 204.85 175.288 204.774C175.639 204.695 175.992 204.632 176.347 204.585C176.811 204.526 177.187 204.481 177.475 204.451C177.767 204.418 177.979 204.363 178.112 204.287C178.248 204.211 178.316 204.078 178.316 203.889V203.849C178.316 203.359 178.181 202.978 177.913 202.706C177.648 202.434 177.245 202.298 176.705 202.298C176.145 202.298 175.706 202.421 175.387 202.666C175.069 202.911 174.846 203.173 174.716 203.452L173.603 203.054C173.801 202.59 174.067 202.229 174.398 201.97C174.733 201.708 175.097 201.526 175.492 201.423C175.89 201.317 176.281 201.264 176.665 201.264C176.91 201.264 177.192 201.294 177.51 201.354C177.832 201.41 178.142 201.528 178.44 201.707C178.742 201.886 178.992 202.156 179.191 202.517C179.39 202.878 179.489 203.362 179.489 203.969V209H178.316V207.966H178.256C178.176 208.132 178.044 208.309 177.858 208.498C177.673 208.687 177.426 208.848 177.118 208.98C176.809 209.113 176.433 209.179 175.989 209.179ZM176.168 208.125C176.632 208.125 177.023 208.034 177.341 207.852C177.663 207.669 177.905 207.434 178.067 207.146C178.233 206.857 178.316 206.554 178.316 206.236V205.162C178.266 205.222 178.157 205.276 177.988 205.326C177.822 205.372 177.63 205.414 177.411 205.45C177.195 205.483 176.985 205.513 176.779 205.54C176.577 205.563 176.413 205.583 176.287 205.599C175.982 205.639 175.697 205.704 175.432 205.793C175.17 205.879 174.958 206.01 174.796 206.186C174.637 206.358 174.557 206.594 174.557 206.892C174.557 207.3 174.708 207.608 175.01 207.817C175.315 208.022 175.701 208.125 176.168 208.125ZM182.804 204.406V209H181.631V201.364H182.764V202.557H182.863C183.042 202.169 183.314 201.857 183.679 201.622C184.043 201.384 184.514 201.264 185.091 201.264C185.608 201.264 186.06 201.37 186.448 201.582C186.836 201.791 187.137 202.109 187.353 202.537C187.568 202.961 187.676 203.498 187.676 204.148V209H186.503V204.227C186.503 203.627 186.347 203.16 186.035 202.825C185.724 202.487 185.296 202.318 184.753 202.318C184.378 202.318 184.043 202.399 183.748 202.562C183.457 202.724 183.226 202.961 183.057 203.273C182.888 203.584 182.804 203.962 182.804 204.406ZM195.229 203.074L194.175 203.372C194.109 203.196 194.011 203.026 193.882 202.86C193.756 202.691 193.583 202.552 193.365 202.442C193.146 202.333 192.866 202.278 192.525 202.278C192.057 202.278 191.668 202.386 191.356 202.602C191.048 202.814 190.894 203.084 190.894 203.412C190.894 203.704 191 203.934 191.212 204.103C191.424 204.272 191.756 204.413 192.206 204.526L193.34 204.804C194.023 204.97 194.531 205.223 194.866 205.565C195.201 205.903 195.368 206.339 195.368 206.872C195.368 207.31 195.242 207.701 194.99 208.045C194.742 208.39 194.394 208.662 193.946 208.861C193.499 209.06 192.979 209.159 192.385 209.159C191.606 209.159 190.962 208.99 190.451 208.652C189.941 208.314 189.618 207.82 189.482 207.17L190.596 206.892C190.702 207.303 190.902 207.611 191.197 207.817C191.495 208.022 191.885 208.125 192.365 208.125C192.912 208.125 193.346 208.009 193.668 207.777C193.993 207.542 194.155 207.26 194.155 206.932C194.155 206.667 194.062 206.445 193.877 206.266C193.691 206.083 193.406 205.947 193.022 205.858L191.749 205.56C191.05 205.394 190.536 205.137 190.208 204.789C189.883 204.438 189.721 203.999 189.721 203.472C189.721 203.041 189.842 202.66 190.083 202.328C190.329 201.997 190.662 201.737 191.083 201.548C191.507 201.359 191.988 201.264 192.525 201.264C193.28 201.264 193.873 201.43 194.304 201.761C194.739 202.093 195.047 202.53 195.229 203.074ZM199.382 209.179C198.898 209.179 198.459 209.088 198.064 208.906C197.67 208.72 197.356 208.453 197.124 208.105C196.892 207.754 196.776 207.33 196.776 206.832C196.776 206.395 196.863 206.04 197.035 205.768C197.207 205.493 197.438 205.278 197.726 205.122C198.014 204.966 198.333 204.85 198.681 204.774C199.032 204.695 199.385 204.632 199.74 204.585C200.204 204.526 200.58 204.481 200.868 204.451C201.16 204.418 201.372 204.363 201.504 204.287C201.64 204.211 201.708 204.078 201.708 203.889V203.849C201.708 203.359 201.574 202.978 201.306 202.706C201.04 202.434 200.638 202.298 200.097 202.298C199.537 202.298 199.098 202.421 198.78 202.666C198.462 202.911 198.238 203.173 198.109 203.452L196.995 203.054C197.194 202.59 197.459 202.229 197.791 201.97C198.125 201.708 198.49 201.526 198.884 201.423C199.282 201.317 199.673 201.264 200.058 201.264C200.303 201.264 200.585 201.294 200.903 201.354C201.224 201.41 201.534 201.528 201.833 201.707C202.134 201.886 202.384 202.156 202.583 202.517C202.782 202.878 202.882 203.362 202.882 203.969V209H201.708V207.966H201.649C201.569 208.132 201.436 208.309 201.251 208.498C201.065 208.687 200.818 208.848 200.51 208.98C200.202 209.113 199.826 209.179 199.382 209.179ZM199.561 208.125C200.025 208.125 200.416 208.034 200.734 207.852C201.055 207.669 201.297 207.434 201.46 207.146C201.625 206.857 201.708 206.554 201.708 206.236V205.162C201.659 205.222 201.549 205.276 201.38 205.326C201.214 205.372 201.022 205.414 200.803 205.45C200.588 205.483 200.378 205.513 200.172 205.54C199.97 205.563 199.806 205.583 199.68 205.599C199.375 205.639 199.09 205.704 198.825 205.793C198.563 205.879 198.351 206.01 198.188 206.186C198.029 206.358 197.95 206.594 197.95 206.892C197.95 207.3 198.101 207.608 198.402 207.817C198.707 208.022 199.093 208.125 199.561 208.125ZM208.125 209.159C207.409 209.159 206.793 208.99 206.276 208.652C205.759 208.314 205.361 207.848 205.083 207.255C204.804 206.662 204.665 205.984 204.665 205.222C204.665 204.446 204.808 203.762 205.093 203.168C205.381 202.572 205.782 202.106 206.296 201.771C206.813 201.433 207.416 201.264 208.105 201.264C208.642 201.264 209.126 201.364 209.557 201.562C209.988 201.761 210.341 202.04 210.616 202.398C210.891 202.756 211.062 203.173 211.128 203.651H209.955C209.865 203.303 209.667 202.994 209.358 202.726C209.053 202.454 208.642 202.318 208.125 202.318C207.668 202.318 207.267 202.437 206.922 202.676C206.581 202.911 206.314 203.245 206.122 203.675C205.933 204.103 205.838 204.605 205.838 205.182C205.838 205.772 205.931 206.286 206.117 206.723C206.306 207.161 206.571 207.5 206.912 207.742C207.257 207.984 207.661 208.105 208.125 208.105C208.43 208.105 208.707 208.052 208.956 207.946C209.204 207.84 209.415 207.688 209.587 207.489C209.759 207.29 209.882 207.051 209.955 206.773H211.128C211.062 207.223 210.898 207.629 210.636 207.991C210.377 208.349 210.034 208.634 209.607 208.846C209.183 209.055 208.689 209.159 208.125 209.159ZM216.164 201.364V202.358H212.207V201.364H216.164ZM213.36 199.534H214.534V206.812C214.534 207.144 214.582 207.393 214.678 207.558C214.777 207.721 214.903 207.83 215.056 207.886C215.212 207.939 215.376 207.966 215.548 207.966C215.677 207.966 215.783 207.959 215.866 207.946C215.949 207.929 216.015 207.916 216.065 207.906L216.304 208.96C216.224 208.99 216.113 209.02 215.971 209.05C215.828 209.083 215.647 209.099 215.429 209.099C215.097 209.099 214.772 209.028 214.454 208.886C214.139 208.743 213.877 208.526 213.669 208.234C213.463 207.943 213.36 207.575 213.36 207.131V199.534ZM217.929 209V201.364H219.103V209H217.929ZM218.526 200.091C218.297 200.091 218.1 200.013 217.934 199.857C217.772 199.701 217.691 199.514 217.691 199.295C217.691 199.077 217.772 198.889 217.934 198.734C218.1 198.578 218.297 198.5 218.526 198.5C218.755 198.5 218.95 198.578 219.113 198.734C219.278 198.889 219.361 199.077 219.361 199.295C219.361 199.514 219.278 199.701 219.113 199.857C218.95 200.013 218.755 200.091 218.526 200.091ZM224.354 209.159C223.664 209.159 223.06 208.995 222.539 208.667C222.022 208.339 221.618 207.88 221.326 207.29C221.038 206.7 220.894 206.01 220.894 205.222C220.894 204.426 221.038 203.732 221.326 203.138C221.618 202.545 222.022 202.085 222.539 201.756C223.06 201.428 223.664 201.264 224.354 201.264C225.043 201.264 225.646 201.428 226.164 201.756C226.684 202.085 227.088 202.545 227.377 203.138C227.668 203.732 227.814 204.426 227.814 205.222C227.814 206.01 227.668 206.7 227.377 207.29C227.088 207.88 226.684 208.339 226.164 208.667C225.646 208.995 225.043 209.159 224.354 209.159ZM224.354 208.105C224.878 208.105 225.308 207.971 225.646 207.702C225.985 207.434 226.235 207.081 226.397 206.643C226.56 206.206 226.641 205.732 226.641 205.222C226.641 204.711 226.56 204.236 226.397 203.795C226.235 203.354 225.985 202.998 225.646 202.726C225.308 202.454 224.878 202.318 224.354 202.318C223.83 202.318 223.399 202.454 223.061 202.726C222.723 202.998 222.473 203.354 222.311 203.795C222.148 204.236 222.067 204.711 222.067 205.222C222.067 205.732 222.148 206.206 222.311 206.643C222.473 207.081 222.723 207.434 223.061 207.702C223.399 207.971 223.83 208.105 224.354 208.105ZM230.778 204.406V209H229.605V201.364H230.739V202.557H230.838C231.017 202.169 231.289 201.857 231.653 201.622C232.018 201.384 232.489 201.264 233.065 201.264C233.582 201.264 234.035 201.37 234.423 201.582C234.81 201.791 235.112 202.109 235.327 202.537C235.543 202.961 235.651 203.498 235.651 204.148V209H234.477V204.227C234.477 203.627 234.321 203.16 234.01 202.825C233.698 202.487 233.271 202.318 232.727 202.318C232.353 202.318 232.018 202.399 231.723 202.562C231.431 202.724 231.201 202.961 231.032 203.273C230.863 203.584 230.778 203.962 230.778 204.406ZM241.891 209V198.818H243.124V207.906H247.857V209H241.891ZM249.607 209V201.364H250.78V209H249.607ZM250.204 200.091C249.975 200.091 249.778 200.013 249.612 199.857C249.45 199.701 249.368 199.514 249.368 199.295C249.368 199.077 249.45 198.889 249.612 198.734C249.778 198.578 249.975 198.5 250.204 198.5C250.432 198.5 250.628 198.578 250.79 198.734C250.956 198.889 251.039 199.077 251.039 199.295C251.039 199.514 250.956 199.701 250.79 199.857C250.628 200.013 250.432 200.091 250.204 200.091ZM252.929 209V201.364H254.063V202.557H254.162C254.321 202.149 254.578 201.833 254.933 201.607C255.288 201.379 255.713 201.264 256.211 201.264C256.714 201.264 257.134 201.379 257.468 201.607C257.806 201.833 258.07 202.149 258.259 202.557H258.338C258.534 202.162 258.827 201.849 259.218 201.617C259.609 201.382 260.078 201.264 260.625 201.264C261.308 201.264 261.867 201.478 262.301 201.906C262.735 202.33 262.952 202.991 262.952 203.889V209H261.779V203.889C261.779 203.326 261.625 202.923 261.316 202.681C261.008 202.439 260.645 202.318 260.228 202.318C259.691 202.318 259.275 202.481 258.98 202.805C258.685 203.127 258.537 203.535 258.537 204.028V209H257.344V203.77C257.344 203.336 257.203 202.986 256.922 202.721C256.64 202.452 256.277 202.318 255.833 202.318C255.528 202.318 255.243 202.399 254.978 202.562C254.716 202.724 254.504 202.95 254.341 203.238C254.182 203.523 254.103 203.853 254.103 204.227V209H252.929ZM265.097 209V201.364H266.271V209H265.097ZM265.694 200.091C265.465 200.091 265.268 200.013 265.102 199.857C264.94 199.701 264.859 199.514 264.859 199.295C264.859 199.077 264.94 198.889 265.102 198.734C265.268 198.578 265.465 198.5 265.694 198.5C265.923 198.5 266.118 198.578 266.281 198.734C266.446 198.889 266.529 199.077 266.529 199.295C266.529 199.514 266.446 199.701 266.281 199.857C266.118 200.013 265.923 200.091 265.694 200.091ZM271.741 201.364V202.358H267.783V201.364H271.741ZM268.937 199.534H270.11V206.812C270.11 207.144 270.158 207.393 270.254 207.558C270.354 207.721 270.479 207.83 270.632 207.886C270.788 207.939 270.952 207.966 271.124 207.966C271.253 207.966 271.359 207.959 271.442 207.946C271.525 207.929 271.591 207.916 271.641 207.906L271.88 208.96C271.8 208.99 271.689 209.02 271.547 209.05C271.404 209.083 271.224 209.099 271.005 209.099C270.673 209.099 270.349 209.028 270.03 208.886C269.715 208.743 269.454 208.526 269.245 208.234C269.039 207.943 268.937 207.575 268.937 207.131V199.534ZM278.778 203.074L277.724 203.372C277.658 203.196 277.56 203.026 277.431 202.86C277.305 202.691 277.132 202.552 276.914 202.442C276.695 202.333 276.415 202.278 276.073 202.278C275.606 202.278 275.217 202.386 274.905 202.602C274.597 202.814 274.443 203.084 274.443 203.412C274.443 203.704 274.549 203.934 274.761 204.103C274.973 204.272 275.304 204.413 275.755 204.526L276.889 204.804C277.571 204.97 278.08 205.223 278.415 205.565C278.75 205.903 278.917 206.339 278.917 206.872C278.917 207.31 278.791 207.701 278.539 208.045C278.291 208.39 277.943 208.662 277.495 208.861C277.048 209.06 276.527 209.159 275.934 209.159C275.155 209.159 274.511 208.99 274 208.652C273.49 208.314 273.167 207.82 273.031 207.17L274.144 206.892C274.25 207.303 274.451 207.611 274.746 207.817C275.044 208.022 275.434 208.125 275.914 208.125C276.461 208.125 276.895 208.009 277.217 207.777C277.542 207.542 277.704 207.26 277.704 206.932C277.704 206.667 277.611 206.445 277.426 206.266C277.24 206.083 276.955 205.947 276.57 205.858L275.298 205.56C274.598 205.394 274.085 205.137 273.757 204.789C273.432 204.438 273.269 203.999 273.269 203.472C273.269 203.041 273.39 202.66 273.632 202.328C273.878 201.997 274.211 201.737 274.632 201.548C275.056 201.359 275.536 201.264 276.073 201.264C276.829 201.264 277.422 201.43 277.853 201.761C278.287 202.093 278.596 202.53 278.778 203.074ZM282.433 207.608L282.354 208.145C282.297 208.523 282.211 208.927 282.095 209.358C281.982 209.789 281.865 210.195 281.742 210.576C281.62 210.957 281.518 211.26 281.439 211.486H280.544C280.587 211.274 280.643 210.994 280.713 210.646C280.783 210.298 280.852 209.908 280.922 209.477C280.995 209.05 281.054 208.612 281.101 208.165L281.161 207.608H282.433ZM109.702 221.364C109.642 220.86 109.4 220.469 108.976 220.19C108.551 219.912 108.031 219.773 107.415 219.773C106.964 219.773 106.569 219.846 106.231 219.991C105.897 220.137 105.635 220.338 105.446 220.593C105.26 220.848 105.167 221.138 105.167 221.463C105.167 221.735 105.232 221.969 105.361 222.164C105.494 222.356 105.663 222.517 105.868 222.646C106.074 222.772 106.289 222.877 106.515 222.96C106.74 223.039 106.947 223.104 107.136 223.153L108.17 223.432C108.435 223.501 108.73 223.598 109.055 223.72C109.383 223.843 109.697 224.01 109.995 224.222C110.296 224.431 110.545 224.7 110.741 225.028C110.936 225.356 111.034 225.759 111.034 226.236C111.034 226.786 110.89 227.283 110.601 227.727C110.316 228.171 109.899 228.524 109.349 228.786C108.802 229.048 108.137 229.179 107.355 229.179C106.626 229.179 105.994 229.061 105.461 228.826C104.93 228.591 104.513 228.263 104.208 227.842C103.906 227.421 103.736 226.932 103.696 226.375H104.969C105.002 226.759 105.131 227.078 105.356 227.33C105.585 227.578 105.873 227.764 106.221 227.886C106.573 228.006 106.951 228.065 107.355 228.065C107.826 228.065 108.248 227.989 108.623 227.837C108.997 227.681 109.294 227.465 109.513 227.19C109.731 226.912 109.841 226.587 109.841 226.216C109.841 225.878 109.746 225.603 109.557 225.391C109.368 225.179 109.12 225.006 108.812 224.874C108.503 224.741 108.17 224.625 107.812 224.526L106.559 224.168C105.764 223.939 105.134 223.612 104.67 223.188C104.206 222.764 103.974 222.209 103.974 221.523C103.974 220.953 104.128 220.455 104.437 220.031C104.748 219.604 105.166 219.272 105.689 219.037C106.216 218.798 106.805 218.679 107.454 218.679C108.111 218.679 108.694 218.797 109.204 219.032C109.715 219.264 110.119 219.582 110.417 219.987C110.719 220.391 110.878 220.85 110.895 221.364H109.702ZM112.902 231.864V221.364H114.036V222.577H114.175C114.261 222.444 114.38 222.275 114.533 222.07C114.688 221.861 114.911 221.675 115.199 221.513C115.491 221.347 115.885 221.264 116.382 221.264C117.025 221.264 117.592 221.425 118.082 221.746C118.573 222.068 118.956 222.524 119.231 223.114C119.506 223.704 119.643 224.4 119.643 225.202C119.643 226.01 119.506 226.711 119.231 227.305C118.956 227.895 118.575 228.352 118.087 228.677C117.6 228.998 117.038 229.159 116.402 229.159C115.911 229.159 115.519 229.078 115.224 228.915C114.929 228.75 114.702 228.562 114.543 228.354C114.384 228.142 114.261 227.966 114.175 227.827H114.075V231.864H112.902ZM114.055 225.182C114.055 225.759 114.14 226.267 114.309 226.708C114.478 227.146 114.725 227.489 115.05 227.737C115.375 227.982 115.772 228.105 116.243 228.105C116.733 228.105 117.143 227.976 117.471 227.717C117.802 227.455 118.051 227.104 118.217 226.663C118.386 226.219 118.47 225.725 118.47 225.182C118.47 224.645 118.387 224.161 118.222 223.73C118.059 223.296 117.812 222.953 117.481 222.701C117.153 222.446 116.74 222.318 116.243 222.318C115.766 222.318 115.365 222.439 115.04 222.681C114.715 222.92 114.47 223.254 114.304 223.685C114.138 224.113 114.055 224.612 114.055 225.182ZM124.635 229.159C123.899 229.159 123.264 228.997 122.731 228.672C122.201 228.344 121.791 227.886 121.503 227.3C121.218 226.71 121.075 226.024 121.075 225.241C121.075 224.459 121.218 223.77 121.503 223.173C121.791 222.573 122.192 222.106 122.706 221.771C123.223 221.433 123.826 221.264 124.516 221.264C124.913 221.264 125.306 221.33 125.694 221.463C126.082 221.596 126.435 221.811 126.753 222.109C127.071 222.404 127.325 222.795 127.513 223.283C127.702 223.77 127.797 224.37 127.797 225.082V225.58H121.911V224.565H126.604C126.604 224.134 126.518 223.75 126.345 223.412C126.176 223.074 125.934 222.807 125.619 222.612C125.308 222.416 124.94 222.318 124.516 222.318C124.048 222.318 123.644 222.434 123.303 222.666C122.964 222.895 122.704 223.193 122.522 223.561C122.34 223.929 122.249 224.323 122.249 224.744V225.42C122.249 225.997 122.348 226.486 122.547 226.887C122.749 227.285 123.029 227.588 123.387 227.797C123.745 228.002 124.161 228.105 124.635 228.105C124.943 228.105 125.222 228.062 125.47 227.976C125.722 227.886 125.939 227.754 126.121 227.578C126.304 227.399 126.445 227.177 126.544 226.912L127.678 227.23C127.558 227.615 127.358 227.953 127.076 228.244C126.794 228.533 126.446 228.758 126.032 228.92C125.618 229.08 125.152 229.159 124.635 229.159ZM130.755 224.406V229H129.582V221.364H130.715V222.557H130.815C130.994 222.169 131.265 221.857 131.63 221.622C131.995 221.384 132.465 221.264 133.042 221.264C133.559 221.264 134.011 221.37 134.399 221.582C134.787 221.791 135.089 222.109 135.304 222.537C135.519 222.961 135.627 223.498 135.627 224.148V229H134.454V224.227C134.454 223.627 134.298 223.16 133.987 222.825C133.675 222.487 133.247 222.318 132.704 222.318C132.329 222.318 131.995 222.399 131.7 222.562C131.408 222.724 131.178 222.961 131.009 223.273C130.839 223.584 130.755 223.962 130.755 224.406ZM140.655 229.159C140.018 229.159 139.456 228.998 138.969 228.677C138.482 228.352 138.101 227.895 137.826 227.305C137.551 226.711 137.413 226.01 137.413 225.202C137.413 224.4 137.551 223.704 137.826 223.114C138.101 222.524 138.484 222.068 138.974 221.746C139.465 221.425 140.032 221.264 140.675 221.264C141.172 221.264 141.564 221.347 141.853 221.513C142.144 221.675 142.367 221.861 142.519 222.07C142.675 222.275 142.796 222.444 142.882 222.577H142.981V218.818H144.155V229H143.021V227.827H142.882C142.796 227.966 142.673 228.142 142.514 228.354C142.355 228.562 142.128 228.75 141.833 228.915C141.538 229.078 141.145 229.159 140.655 229.159ZM140.814 228.105C141.284 228.105 141.682 227.982 142.007 227.737C142.332 227.489 142.579 227.146 142.748 226.708C142.917 226.267 143.001 225.759 143.001 225.182C143.001 224.612 142.918 224.113 142.753 223.685C142.587 223.254 142.342 222.92 142.017 222.681C141.692 222.439 141.291 222.318 140.814 222.318C140.317 222.318 139.902 222.446 139.571 222.701C139.243 222.953 138.996 223.296 138.83 223.73C138.668 224.161 138.586 224.645 138.586 225.182C138.586 225.725 138.669 226.219 138.835 226.663C139.004 227.104 139.253 227.455 139.581 227.717C139.912 227.976 140.323 228.105 140.814 228.105ZM146.466 229V221.364H147.64V229H146.466ZM147.063 220.091C146.834 220.091 146.637 220.013 146.471 219.857C146.309 219.701 146.228 219.514 146.228 219.295C146.228 219.077 146.309 218.889 146.471 218.734C146.637 218.578 146.834 218.5 147.063 218.5C147.292 218.5 147.487 218.578 147.65 218.734C147.815 218.889 147.898 219.077 147.898 219.295C147.898 219.514 147.815 219.701 147.65 219.857C147.487 220.013 147.292 220.091 147.063 220.091ZM150.962 224.406V229H149.789V221.364H150.922V222.557H151.022C151.201 222.169 151.472 221.857 151.837 221.622C152.202 221.384 152.672 221.264 153.249 221.264C153.766 221.264 154.218 221.37 154.606 221.582C154.994 221.791 155.296 222.109 155.511 222.537C155.726 222.961 155.834 223.498 155.834 224.148V229H154.661V224.227C154.661 223.627 154.505 223.16 154.194 222.825C153.882 222.487 153.454 222.318 152.911 222.318C152.536 222.318 152.202 222.399 151.907 222.562C151.615 222.724 151.385 222.961 151.216 223.273C151.047 223.584 150.962 223.962 150.962 224.406ZM161.061 232.023C160.494 232.023 160.007 231.95 159.599 231.804C159.191 231.661 158.852 231.473 158.58 231.237C158.311 231.005 158.097 230.757 157.938 230.491L158.873 229.835C158.979 229.974 159.113 230.134 159.276 230.312C159.438 230.495 159.66 230.652 159.942 230.785C160.227 230.921 160.6 230.989 161.061 230.989C161.677 230.989 162.186 230.839 162.587 230.541C162.988 230.243 163.188 229.776 163.188 229.139V227.588H163.089C163.003 227.727 162.88 227.9 162.721 228.105C162.565 228.307 162.34 228.488 162.045 228.647C161.753 228.803 161.359 228.881 160.862 228.881C160.245 228.881 159.692 228.735 159.201 228.443C158.714 228.152 158.328 227.727 158.043 227.17C157.761 226.614 157.62 225.937 157.62 225.142C157.62 224.36 157.758 223.679 158.033 223.099C158.308 222.515 158.691 222.065 159.181 221.746C159.672 221.425 160.239 221.264 160.882 221.264C161.379 221.264 161.773 221.347 162.065 221.513C162.36 221.675 162.585 221.861 162.741 222.07C162.9 222.275 163.023 222.444 163.109 222.577H163.228V221.364H164.362V229.219C164.362 229.875 164.213 230.409 163.914 230.82C163.619 231.234 163.222 231.537 162.721 231.729C162.224 231.925 161.67 232.023 161.061 232.023ZM161.021 227.827C161.491 227.827 161.889 227.719 162.214 227.504C162.539 227.288 162.786 226.978 162.955 226.574C163.124 226.17 163.208 225.686 163.208 225.122C163.208 224.572 163.125 224.086 162.96 223.665C162.794 223.245 162.549 222.915 162.224 222.676C161.899 222.437 161.498 222.318 161.021 222.318C160.524 222.318 160.109 222.444 159.778 222.696C159.45 222.948 159.203 223.286 159.037 223.71C158.875 224.134 158.794 224.605 158.794 225.122C158.794 225.652 158.876 226.121 159.042 226.529C159.211 226.933 159.46 227.252 159.788 227.484C160.119 227.712 160.53 227.827 161.021 227.827ZM170.606 229V218.818H174.046C174.845 218.818 175.498 218.962 176.005 219.251C176.516 219.536 176.893 219.922 177.139 220.409C177.384 220.896 177.507 221.44 177.507 222.04C177.507 222.64 177.384 223.185 177.139 223.675C176.897 224.166 176.522 224.557 176.015 224.849C175.508 225.137 174.858 225.281 174.066 225.281H171.6V224.188H174.026C174.573 224.188 175.012 224.093 175.344 223.904C175.675 223.715 175.916 223.46 176.065 223.138C176.217 222.814 176.294 222.447 176.294 222.04C176.294 221.632 176.217 221.268 176.065 220.946C175.916 220.625 175.674 220.373 175.339 220.19C175.004 220.005 174.56 219.912 174.007 219.912H171.839V229H170.606ZM181.581 229.179C181.097 229.179 180.658 229.088 180.263 228.906C179.869 228.72 179.556 228.453 179.324 228.105C179.092 227.754 178.976 227.33 178.976 226.832C178.976 226.395 179.062 226.04 179.234 225.768C179.407 225.493 179.637 225.278 179.925 225.122C180.214 224.966 180.532 224.85 180.88 224.774C181.231 224.695 181.584 224.632 181.939 224.585C182.403 224.526 182.779 224.481 183.067 224.451C183.359 224.418 183.571 224.363 183.704 224.287C183.84 224.211 183.907 224.078 183.907 223.889V223.849C183.907 223.359 183.773 222.978 183.505 222.706C183.24 222.434 182.837 222.298 182.297 222.298C181.737 222.298 181.297 222.421 180.979 222.666C180.661 222.911 180.437 223.173 180.308 223.452L179.194 223.054C179.393 222.59 179.658 222.229 179.99 221.97C180.325 221.708 180.689 221.526 181.084 221.423C181.481 221.317 181.872 221.264 182.257 221.264C182.502 221.264 182.784 221.294 183.102 221.354C183.424 221.41 183.733 221.528 184.032 221.707C184.333 221.886 184.584 222.156 184.782 222.517C184.981 222.878 185.081 223.362 185.081 223.969V229H183.907V227.966H183.848C183.768 228.132 183.636 228.309 183.45 228.498C183.265 228.687 183.018 228.848 182.709 228.98C182.401 229.113 182.025 229.179 181.581 229.179ZM181.76 228.125C182.224 228.125 182.615 228.034 182.933 227.852C183.255 227.669 183.497 227.434 183.659 227.146C183.825 226.857 183.907 226.554 183.907 226.236V225.162C183.858 225.222 183.748 225.276 183.579 225.326C183.414 225.372 183.221 225.414 183.003 225.45C182.787 225.483 182.577 225.513 182.371 225.54C182.169 225.563 182.005 225.583 181.879 225.599C181.574 225.639 181.289 225.704 181.024 225.793C180.762 225.879 180.55 226.01 180.388 226.186C180.229 226.358 180.149 226.594 180.149 226.892C180.149 227.3 180.3 227.608 180.601 227.817C180.906 228.022 181.292 228.125 181.76 228.125ZM190.543 221.364V222.358H186.586V221.364H190.543ZM187.739 219.534H188.913V226.812C188.913 227.144 188.961 227.393 189.057 227.558C189.156 227.721 189.282 227.83 189.435 227.886C189.59 227.939 189.754 227.966 189.927 227.966C190.056 227.966 190.162 227.959 190.245 227.946C190.328 227.929 190.394 227.916 190.444 227.906L190.683 228.96C190.603 228.99 190.492 229.02 190.349 229.05C190.207 229.083 190.026 229.099 189.808 229.099C189.476 229.099 189.151 229.028 188.833 228.886C188.518 228.743 188.256 228.526 188.048 228.234C187.842 227.943 187.739 227.575 187.739 227.131V219.534ZM195.629 221.364V222.358H191.672V221.364H195.629ZM192.825 219.534H193.999V226.812C193.999 227.144 194.047 227.393 194.143 227.558C194.242 227.721 194.368 227.83 194.521 227.886C194.676 227.939 194.84 227.966 195.013 227.966C195.142 227.966 195.248 227.959 195.331 227.946C195.414 227.929 195.48 227.916 195.53 227.906L195.768 228.96C195.689 228.99 195.578 229.02 195.435 229.05C195.293 229.083 195.112 229.099 194.893 229.099C194.562 229.099 194.237 229.028 193.919 228.886C193.604 228.743 193.342 228.526 193.134 228.234C192.928 227.943 192.825 227.575 192.825 227.131V219.534ZM200.514 229.159C199.778 229.159 199.143 228.997 198.61 228.672C198.079 228.344 197.67 227.886 197.382 227.3C197.097 226.71 196.954 226.024 196.954 225.241C196.954 224.459 197.097 223.77 197.382 223.173C197.67 222.573 198.071 222.106 198.585 221.771C199.102 221.433 199.705 221.264 200.395 221.264C200.792 221.264 201.185 221.33 201.573 221.463C201.961 221.596 202.314 221.811 202.632 222.109C202.95 222.404 203.203 222.795 203.392 223.283C203.581 223.77 203.676 224.37 203.676 225.082V225.58H197.789V224.565H202.483C202.483 224.134 202.396 223.75 202.224 223.412C202.055 223.074 201.813 222.807 201.498 222.612C201.187 222.416 200.819 222.318 200.395 222.318C199.927 222.318 199.523 222.434 199.181 222.666C198.843 222.895 198.583 223.193 198.401 223.561C198.219 223.929 198.127 224.323 198.127 224.744V225.42C198.127 225.997 198.227 226.486 198.426 226.887C198.628 227.285 198.908 227.588 199.266 227.797C199.624 228.002 200.04 228.105 200.514 228.105C200.822 228.105 201.1 228.062 201.349 227.976C201.601 227.886 201.818 227.754 202 227.578C202.183 227.399 202.324 227.177 202.423 226.912L203.556 227.23C203.437 227.615 203.237 227.953 202.955 228.244C202.673 228.533 202.325 228.758 201.911 228.92C201.497 229.08 201.031 229.159 200.514 229.159ZM205.461 229V221.364H206.594V222.517H206.674C206.813 222.139 207.065 221.833 207.429 221.597C207.794 221.362 208.205 221.244 208.662 221.244C208.748 221.244 208.856 221.246 208.985 221.249C209.115 221.253 209.212 221.258 209.279 221.264V222.457C209.239 222.447 209.148 222.433 209.005 222.413C208.866 222.389 208.719 222.378 208.563 222.378C208.192 222.378 207.86 222.456 207.569 222.612C207.28 222.764 207.051 222.976 206.882 223.248C206.717 223.516 206.634 223.823 206.634 224.168V229H205.461ZM211.843 224.406V229H210.67V221.364H211.803V222.557H211.903C212.081 222.169 212.353 221.857 212.718 221.622C213.082 221.384 213.553 221.264 214.13 221.264C214.647 221.264 215.099 221.37 215.487 221.582C215.875 221.791 216.176 222.109 216.392 222.537C216.607 222.961 216.715 223.498 216.715 224.148V229H215.542V224.227C215.542 223.627 215.386 223.16 215.074 222.825C214.763 222.487 214.335 222.318 213.792 222.318C213.417 222.318 213.082 222.399 212.787 222.562C212.496 222.724 212.265 222.961 212.096 223.273C211.927 223.584 211.843 223.962 211.843 224.406ZM224.268 223.074L223.214 223.372C223.148 223.196 223.05 223.026 222.921 222.86C222.795 222.691 222.623 222.552 222.404 222.442C222.185 222.333 221.905 222.278 221.564 222.278C221.096 222.278 220.707 222.386 220.395 222.602C220.087 222.814 219.933 223.084 219.933 223.412C219.933 223.704 220.039 223.934 220.251 224.103C220.463 224.272 220.795 224.413 221.245 224.526L222.379 224.804C223.062 224.97 223.57 225.223 223.905 225.565C224.24 225.903 224.407 226.339 224.407 226.872C224.407 227.31 224.281 227.701 224.029 228.045C223.781 228.39 223.433 228.662 222.985 228.861C222.538 229.06 222.018 229.159 221.424 229.159C220.645 229.159 220.001 228.99 219.49 228.652C218.98 228.314 218.657 227.82 218.521 227.17L219.635 226.892C219.741 227.303 219.941 227.611 220.236 227.817C220.534 228.022 220.924 228.125 221.404 228.125C221.951 228.125 222.386 228.009 222.707 227.777C223.032 227.542 223.194 227.26 223.194 226.932C223.194 226.667 223.101 226.445 222.916 226.266C222.73 226.083 222.445 225.947 222.061 225.858L220.788 225.56C220.089 225.394 219.575 225.137 219.247 224.789C218.922 224.438 218.76 223.999 218.76 223.472C218.76 223.041 218.881 222.66 219.123 222.328C219.368 221.997 219.701 221.737 220.122 221.548C220.546 221.359 221.027 221.264 221.564 221.264C222.319 221.264 222.913 221.43 223.343 221.761C223.778 222.093 224.086 222.53 224.268 223.074Z" fill="white"/>
</svg>