<svg width="328" height="234" viewBox="0 0 328 234" fill="none" xmlns="http://www.w3.org/2000/svg">
<path opacity="0.45" d="M238.977 50.1116L241.884 125.117C242.331 136.593 233.149 146.144 221.66 146.157L106.36 146.195C94.5642 146.195 85.2555 136.147 86.1609 124.39L91.4145 56.2579C92.1924 46.2095 100.239 38.2525 110.3 37.6022L217.439 30.678C228.801 29.9384 238.543 38.7243 238.977 50.0988V50.1116Z" fill="#3395FF"/>
<path d="M210.607 107.444L210.946 106.875C209.917 105.302 209.542 103.038 210.086 100.423C211.188 95.061 215.654 90.2676 220.061 89.7108C220.412 89.6623 220.763 89.6502 221.089 89.6624L221.356 89.2145L223.305 90.2192C225.677 91.4417 226.851 94.5405 226.052 98.4019C224.951 103.764 220.484 108.558 216.078 109.114C214.88 109.26 213.815 109.09 212.919 108.642L210.607 107.444Z" fill="#FF9D00"/>
<path d="M222.016 102.069C225.092 97.0936 224.871 91.3816 221.522 89.3108C218.173 87.2399 212.964 89.5944 209.888 94.5696C206.812 99.5449 207.033 105.257 210.382 107.328C213.731 109.399 218.94 107.044 222.016 102.069Z" fill="#FFCC4D"/>
<path d="M213.378 106.415C212.313 106.415 211.369 106.028 210.667 105.289C209.444 103.994 209.081 101.803 209.686 99.2613C210.715 94.9158 214.298 90.8971 217.688 90.3039C219.104 90.0618 220.363 90.425 221.234 91.357C222.457 92.6522 222.82 94.8432 222.215 97.3851C221.186 101.731 217.603 105.749 214.214 106.343C213.923 106.391 213.645 106.415 213.378 106.415V106.415ZM218.608 90.8002C218.378 90.8002 218.123 90.8244 217.869 90.8729C214.674 91.4297 211.272 95.291 210.292 99.4792C209.747 101.779 210.05 103.825 211.103 104.951C211.817 105.713 212.834 106.004 214.032 105.786C217.228 105.229 220.629 101.368 221.609 97.1794C222.154 94.8795 221.852 92.8338 220.798 91.7081C220.23 91.1028 219.479 90.8002 218.608 90.8002V90.8002Z" fill="#FF9D00"/>
<path d="M119.594 51.2175H117.541V51.4889C113.896 52.4445 111.182 55.9011 111.182 60.0184C111.182 64.1357 113.884 67.5923 117.541 68.5479V68.8193H119.594C124.242 68.8193 128.005 64.8789 128.005 60.0184C128.005 55.1579 124.242 51.2175 119.594 51.2175V51.2175Z" fill="#FF9D00"/>
<path d="M117.541 68.8311C122.186 68.8311 125.952 64.8908 125.952 60.0302C125.952 55.1696 122.186 51.2293 117.541 51.2293C112.895 51.2293 109.129 55.1696 109.129 60.0302C109.129 64.8908 112.895 68.8311 117.541 68.8311Z" fill="#FFCC4D"/>
<path d="M117.541 67.262C113.718 67.262 110.616 64.0177 110.616 60.0302C110.616 56.0427 113.718 52.7984 117.541 52.7984C121.363 52.7984 124.466 56.0427 124.466 60.0302C124.466 64.0177 121.363 67.262 117.541 67.262ZM117.541 53.3529C114.037 53.3529 111.182 56.3494 111.182 60.0302C111.182 63.711 114.037 66.7076 117.541 66.7076C121.045 66.7076 123.899 63.711 123.899 60.0302C123.899 56.3494 121.045 53.3529 117.541 53.3529V53.3529Z" fill="#FF9D00"/>
<path d="M222.295 17.7367C227.306 17.7551 231.372 21.8378 231.353 26.8619L231.267 50.4141L213.096 50.3475L213.182 26.7826C213.201 21.7712 217.284 17.7056 222.308 17.724L222.295 17.7367Z" fill="#7DBBFF"/>
<path d="M231.262 50.7236L213.091 50.6599C212.913 50.6599 212.772 50.5196 212.772 50.3411L212.862 26.7887C212.862 24.2767 213.856 21.9176 215.642 20.1451C217.414 18.3854 219.76 17.4163 222.26 17.4163H222.298C224.81 17.4163 227.169 18.4109 228.942 20.1961C230.714 21.9814 231.683 24.3404 231.67 26.8525L231.581 50.4049C231.581 50.4941 231.543 50.5706 231.492 50.6344C231.428 50.6981 231.352 50.7236 231.262 50.7236ZM213.41 50.0223L230.944 50.0861L231.033 26.8525C231.033 24.5062 230.14 22.3002 228.483 20.6424C226.825 18.9847 224.632 18.0666 222.298 18.0538H222.26C219.926 18.0538 217.733 18.9592 216.088 20.6042C214.43 22.2491 213.512 24.4552 213.499 26.7887L213.41 50.0223Z" fill="#7DBBFF"/>
<path d="M134.669 26.5465L134.375 108.451L194.831 109.037V109.305C194.818 114.329 198.86 118.41 203.885 118.422C208.909 118.435 212.989 114.393 213.002 109.369L213.295 26.7888C213.308 21.7646 217.401 17.7096 222.426 17.7223L143.799 17.4673C138.775 17.4546 134.694 21.5096 134.669 26.5338V26.5465Z" fill="white"/>
<path d="M203.923 118.741H203.885C201.373 118.741 199.013 117.747 197.241 115.961C195.481 114.189 194.512 111.842 194.512 109.356L134.375 108.769C134.197 108.769 134.056 108.629 134.056 108.451L134.35 26.5465C134.362 21.3693 138.583 17.1613 143.76 17.1613H143.799L222.426 17.4163C222.604 17.4035 222.744 17.5566 222.744 17.7351C222.744 17.9136 222.604 18.0539 222.426 18.0539H222.387C220.054 18.0539 217.86 18.9592 216.203 20.6042C214.545 22.2492 213.614 24.4552 213.614 26.8015L213.321 109.381C213.321 111.893 212.326 114.253 210.541 116.025C208.768 117.785 206.409 118.754 203.923 118.754V118.741ZM134.694 108.132L194.831 108.718C195.009 108.718 195.15 108.859 195.15 109.037V109.305C195.15 111.651 196.042 113.857 197.7 115.515C199.358 117.173 201.551 118.091 203.885 118.104H203.923C206.256 118.104 208.45 117.198 210.095 115.553C211.752 113.908 212.67 111.702 212.683 109.369L212.977 26.7888C212.977 24.2767 213.971 21.9176 215.756 20.1451C216.7 19.2143 217.797 18.5002 218.995 18.0411L143.786 17.7988H143.76C138.94 17.7988 135 21.7136 134.987 26.5465L134.694 108.132V108.132Z" fill="#7DBBFF"/>
<path d="M201.028 68.8311L144.423 68.6653C143.25 68.6653 142.294 67.6962 142.294 66.523C142.294 65.3499 143.263 64.3935 144.436 64.3935L201.041 64.5593C202.214 64.5593 203.17 65.5284 203.17 66.7015C203.17 67.8747 202.201 68.8311 201.028 68.8311V68.8311Z" fill="#C0DFFF"/>
<path d="M201.028 87.7801L144.423 87.6143C143.25 87.6143 142.294 86.6452 142.294 85.472C142.294 84.2988 143.263 83.3425 144.436 83.3425L201.041 83.5082C202.214 83.5082 203.17 84.4774 203.17 85.6505C203.17 86.8237 202.201 87.7801 201.028 87.7801V87.7801Z" fill="#C0DFFF"/>
<path d="M194.847 109.305L194.872 102.534L125.605 102.317L125.579 109.088C125.567 114.112 129.609 118.193 134.633 118.206L203.9 118.422C198.876 118.41 194.834 114.316 194.847 109.305Z" fill="#7DBBFF"/>
<path d="M203.9 118.741L134.633 118.524C132.121 118.524 129.762 117.53 127.99 115.744C126.217 113.959 125.248 111.6 125.261 109.088L125.286 102.317C125.286 102.138 125.427 101.998 125.605 101.998L194.872 102.215C194.962 102.215 195.038 102.253 195.102 102.304C195.166 102.368 195.191 102.444 195.191 102.534L195.166 109.305C195.153 114.138 199.068 118.091 203.9 118.104C204.079 118.104 204.219 118.244 204.219 118.422C204.219 118.601 204.079 118.741 203.9 118.741ZM125.924 102.649L125.898 109.101C125.898 111.447 126.791 113.653 128.449 115.311C130.094 116.969 132.3 117.887 134.633 117.9L200.496 118.104C196.989 116.726 194.502 113.296 194.528 109.318L194.553 102.865L125.924 102.649Z" fill="#7DBBFF"/>
<path d="M154.369 81.366H119.697C116.19 81.366 113.347 84.2091 113.347 87.7163V131.786C113.347 135.293 116.19 138.136 119.697 138.136H154.369C157.876 138.136 160.719 135.293 160.719 131.786V87.7163C160.719 84.2091 157.876 81.366 154.369 81.366Z" fill="#0967D8"/>
<path d="M146.578 81.366H111.906C108.399 81.366 105.556 84.2091 105.556 87.7163V131.786C105.556 135.293 108.399 138.136 111.906 138.136H146.578C150.085 138.136 152.928 135.293 152.928 131.786V87.7163C152.928 84.2091 150.085 81.366 146.578 81.366Z" fill="#3395FF"/>
<path d="M145.455 86.7089H113.015C111.846 86.7089 110.898 87.6566 110.898 88.8257V101.654C110.898 102.823 111.846 103.771 113.015 103.771H145.455C146.625 103.771 147.572 102.823 147.572 101.654V88.8257C147.572 87.6566 146.625 86.7089 145.455 86.7089Z" fill="white"/>
<path d="M118.001 111.077H113.015C111.846 111.077 110.898 112.025 110.898 113.194V118.18C110.898 119.349 111.846 120.297 113.015 120.297H118.001C119.17 120.297 120.118 119.349 120.118 118.18V113.194C120.118 112.025 119.17 111.077 118.001 111.077Z" fill="#C0DFFF"/>
<path d="M130.498 111.077H125.512C124.343 111.077 123.395 112.025 123.395 113.194V118.18C123.395 119.349 124.343 120.297 125.512 120.297H130.498C131.667 120.297 132.615 119.349 132.615 118.18V113.194C132.615 112.025 131.667 111.077 130.498 111.077Z" fill="#C0DFFF"/>
<path d="M118.001 123.561H113.015C111.846 123.561 110.898 124.509 110.898 125.678V130.664C110.898 131.833 111.846 132.781 113.015 132.781H118.001C119.17 132.781 120.118 131.833 120.118 130.664V125.678C120.118 124.509 119.17 123.561 118.001 123.561Z" fill="#C0DFFF"/>
<path d="M130.498 123.561H125.512C124.343 123.561 123.395 124.509 123.395 125.678V130.664C123.395 131.833 124.343 132.781 125.512 132.781H130.498C131.667 132.781 132.615 131.833 132.615 130.664V125.678C132.615 124.509 131.667 123.561 130.498 123.561Z" fill="#C0DFFF"/>
<path d="M145.29 111.077H138.009C136.84 111.077 135.892 112.025 135.892 113.194V130.664C135.892 131.833 136.84 132.781 138.009 132.781H145.29C146.459 132.781 147.407 131.833 147.407 130.664V113.194C147.407 112.025 146.459 111.077 145.29 111.077Z" fill="#EA7FE0"/>
<path d="M142.089 90.1264L141.643 89.8713C141.515 89.7948 141.375 89.7821 141.235 89.8203C141.094 89.8586 140.98 89.9478 140.903 90.0754L135.407 99.6009C135.254 99.8559 135.343 100.2 135.611 100.34L136.057 100.595C136.147 100.647 136.236 100.672 136.325 100.672C136.517 100.672 136.695 100.57 136.797 100.404L142.293 90.8787C142.446 90.6237 142.357 90.2794 142.089 90.1391V90.1264Z" fill="#B2B8CE"/>
<path d="M142.471 94.3599C141.119 94.3599 140.023 95.4566 140.023 96.8082V98.2364C140.023 99.5881 141.119 100.685 142.471 100.685C143.823 100.685 144.919 99.5881 144.919 98.2364V96.8082C144.919 95.4566 143.823 94.3599 142.471 94.3599ZM143.326 98.2364C143.326 98.7082 142.943 99.1036 142.471 99.1036C141.999 99.1036 141.604 98.721 141.604 98.2364V96.8082C141.604 96.3364 141.987 95.9539 142.471 95.9539C142.956 95.9539 143.326 96.3364 143.326 96.8082V98.2364V98.2364Z" fill="#B2B8CE"/>
<path d="M135.127 89.7948C133.775 89.7948 132.678 90.8914 132.678 92.2431V93.6713C132.678 95.023 133.775 96.1196 135.127 96.1196C136.478 96.1196 137.575 95.023 137.575 93.6713V92.2431C137.575 90.8914 136.478 89.7948 135.127 89.7948ZM134.272 92.2431C134.272 91.7713 134.655 91.376 135.127 91.376C135.598 91.376 135.994 91.7586 135.994 92.2431V93.6713C135.994 94.1431 135.611 94.5384 135.127 94.5384C134.642 94.5384 134.272 94.1559 134.272 93.6713V92.2431Z" fill="#B2B8CE"/>
<path d="M117.249 115.043H116.152V113.947C116.152 113.717 115.961 113.526 115.731 113.526H115.31C115.081 113.526 114.89 113.717 114.89 113.947V115.043H113.793C113.563 115.043 113.372 115.234 113.372 115.464V115.885C113.372 116.114 113.563 116.306 113.793 116.306H114.89V117.402C114.89 117.632 115.081 117.823 115.31 117.823H115.731C115.961 117.823 116.152 117.632 116.152 117.402V116.306H117.249C117.478 116.306 117.67 116.114 117.67 115.885V115.464C117.67 115.234 117.478 115.043 117.249 115.043Z" fill="white"/>
<path d="M129.682 114.304L129.389 114.01C129.223 113.844 128.955 113.844 128.789 114.01L128.011 114.788L127.234 114.01C127.068 113.844 126.8 113.844 126.634 114.01L126.341 114.304C126.175 114.469 126.175 114.737 126.341 114.903L127.119 115.681L126.341 116.459C126.175 116.624 126.175 116.892 126.341 117.058L126.634 117.351C126.8 117.517 127.068 117.517 127.234 117.351L128.011 116.573L128.789 117.351C128.955 117.517 129.223 117.517 129.389 117.351L129.682 117.058C129.848 116.892 129.848 116.624 129.682 116.459L128.904 115.681L129.682 114.903C129.848 114.737 129.848 114.469 129.682 114.304V114.304Z" fill="white"/>
<path d="M117.249 127.54H113.767C113.535 127.54 113.347 127.728 113.347 127.961V128.394C113.347 128.627 113.535 128.815 113.767 128.815H117.249C117.481 128.815 117.669 128.627 117.669 128.394V127.961C117.669 127.728 117.481 127.54 117.249 127.54Z" fill="white"/>
<path d="M143.39 120.016H139.908C139.676 120.016 139.488 120.205 139.488 120.437V120.871C139.488 121.103 139.676 121.291 139.908 121.291H143.39C143.622 121.291 143.81 121.103 143.81 120.871V120.437C143.81 120.205 143.622 120.016 143.39 120.016Z" fill="#CC4EC0"/>
<path d="M143.39 122.567H139.908C139.676 122.567 139.488 122.755 139.488 122.987V123.421C139.488 123.653 139.676 123.842 139.908 123.842H143.39C143.622 123.842 143.81 123.653 143.81 123.421V122.987C143.81 122.755 143.622 122.567 143.39 122.567Z" fill="#CC4EC0"/>
<path d="M129.747 127.54H126.266C126.034 127.54 125.845 127.728 125.845 127.961V128.394C125.845 128.627 126.034 128.815 126.266 128.815H129.747C129.98 128.815 130.168 128.627 130.168 128.394V127.961C130.168 127.728 129.98 127.54 129.747 127.54Z" fill="white"/>
<path d="M127.999 127.004C128.356 127.004 128.65 126.711 128.65 126.354C128.65 125.997 128.356 125.704 127.999 125.704C127.642 125.704 127.349 125.997 127.349 126.354C127.349 126.711 127.642 127.004 127.999 127.004Z" fill="white"/>
<path d="M127.999 129.338C127.642 129.338 127.349 129.631 127.349 129.988C127.349 130.345 127.642 130.639 127.999 130.639C128.356 130.639 128.65 130.345 128.65 129.988C128.65 129.631 128.356 129.338 127.999 129.338Z" fill="white"/>
<path d="M202.749 48.2243C202.621 48.2243 202.481 48.2243 202.341 48.1988L162.262 44.1565C162.084 44.1438 161.956 43.978 161.982 43.8122C161.995 43.6337 162.135 43.5062 162.326 43.5317L202.405 47.574C204.228 47.7525 205.822 46.4391 206.013 44.6283L206.893 35.8679C206.982 34.9881 206.727 34.1337 206.166 33.4579C205.605 32.782 204.827 32.3485 203.948 32.272L178.227 29.6706C178.049 29.6579 177.921 29.4921 177.947 29.3263C177.96 29.1478 178.113 29.0203 178.291 29.0458L204.011 31.6471C205.057 31.7491 206.001 32.2592 206.664 33.0753C207.327 33.8914 207.633 34.9116 207.531 35.9572L206.651 44.7176C206.549 45.7632 206.039 46.7069 205.223 47.37C204.509 47.9438 203.642 48.2498 202.749 48.2498V48.2243Z" fill="#EA7FE0"/>
<path d="M144.104 48.9894C143.25 48.9894 142.421 48.7089 141.732 48.1861C140.903 47.5485 140.355 46.6304 140.215 45.5848L139.029 36.8626C138.736 34.7203 140.253 32.7311 142.395 32.4505L170.309 28.676C170.474 28.676 170.64 28.778 170.666 28.9438C170.691 29.1096 170.564 29.2754 170.398 29.3009L142.485 33.0754C140.687 33.3176 139.424 34.9754 139.666 36.7733L140.852 45.4955C140.967 46.3626 141.413 47.1405 142.115 47.676C142.816 48.2116 143.67 48.4411 144.55 48.3136L158.705 46.4009C158.87 46.3881 159.036 46.5029 159.062 46.6686C159.087 46.8344 158.96 47.0002 158.794 47.0257L144.64 48.9384C144.461 48.9639 144.283 48.9767 144.104 48.9767V48.9894Z" fill="#EA7FE0"/>
<path d="M162.962 50.0606C162.962 50.0606 162.898 50.0606 162.86 50.0478L159.545 48.9002C159.379 48.8364 159.29 48.6579 159.353 48.4921C159.417 48.3263 159.596 48.2371 159.761 48.3008L163.077 49.4485C163.243 49.5122 163.332 49.6908 163.268 49.8565C163.217 49.9841 163.102 50.0733 162.962 50.0733V50.0606Z" fill="#EA7FE0"/>
<path d="M174.351 33.1263C174.249 33.1263 174.16 33.0753 174.096 32.9988C173.994 32.8586 174.02 32.6545 174.16 32.5525L175.524 31.5451C175.626 31.4814 175.754 31.4686 175.856 31.5196L177.195 32.17L178.547 30.8183C178.674 30.6908 178.878 30.6908 178.993 30.8183C179.108 30.9458 179.12 31.1498 178.993 31.2646L177.475 32.7821C177.386 32.8841 177.233 32.9096 177.106 32.8458L175.728 32.17L174.517 33.0626C174.517 33.0626 174.39 33.1263 174.326 33.1263H174.351Z" fill="#EA7FE0"/>
<path d="M158.373 50.0733C158.22 50.0733 158.08 49.9586 158.054 49.8056L157.825 48.2244C157.799 48.0458 157.914 47.8928 158.092 47.8673C158.284 47.8418 158.424 47.9566 158.45 48.1351L158.679 49.7163C158.705 49.8948 158.59 50.0478 158.411 50.0733C158.399 50.0733 158.373 50.0733 158.36 50.0733H158.373Z" fill="#EA7FE0"/>
<path d="M176.226 30.1042C176.136 30.1042 176.047 30.0659 175.996 30.0022L174.555 28.421C174.44 28.2935 174.44 28.0894 174.581 27.9747C174.708 27.8599 174.912 27.8599 175.027 28.0002L176.468 29.5814C176.583 29.7089 176.583 29.9129 176.442 30.0277C176.379 30.0787 176.302 30.1169 176.226 30.1169V30.1042Z" fill="#EA7FE0"/>
<path d="M178.863 46.3616L168.998 20.9711C168.09 18.6375 165.071 18.0366 163.338 19.8393L144.432 39.4446C142.685 41.2472 143.635 44.2795 146.095 44.7686L175.272 50.6376C177.732 51.1267 179.772 48.7092 178.863 46.3616V46.3616Z" fill="#EA7FE0"/>
<path d="M162.416 39.0673C161.815 38.9415 161.424 38.3826 161.508 37.7817L162.709 29.3694C162.835 28.4472 163.729 27.8183 164.638 28C165.546 28.1817 166.119 29.1039 165.895 29.9983L163.757 38.2149C163.604 38.8018 163.017 39.1651 162.43 39.0533L162.416 39.0673Z" fill="white"/>
<path d="M161.829 42.966C162.462 42.966 162.975 42.4529 162.975 41.8201C162.975 41.1873 162.462 40.6743 161.829 40.6743C161.196 40.6743 160.683 41.1873 160.683 41.8201C160.683 42.4529 161.196 42.966 161.829 42.966Z" fill="white"/>
<path d="M134.507 174.508C134.447 173.95 134.196 173.515 133.753 173.204C133.314 172.893 132.743 172.737 132.04 172.737C131.545 172.737 131.121 172.812 130.768 172.961C130.414 173.11 130.143 173.312 129.956 173.568C129.768 173.824 129.673 174.116 129.668 174.444C129.668 174.717 129.73 174.953 129.854 175.153C129.982 175.354 130.154 175.524 130.371 175.665C130.589 175.801 130.83 175.916 131.094 176.01C131.358 176.104 131.624 176.183 131.893 176.246L133.12 176.553C133.614 176.668 134.089 176.824 134.545 177.02C135.006 177.216 135.417 177.463 135.779 177.761C136.146 178.06 136.435 178.42 136.648 178.842C136.862 179.263 136.968 179.758 136.968 180.325C136.968 181.092 136.772 181.767 136.38 182.351C135.988 182.93 135.421 183.384 134.68 183.712C133.942 184.036 133.05 184.198 132.001 184.198C130.983 184.198 130.099 184.04 129.349 183.725C128.603 183.41 128.019 182.95 127.597 182.344C127.18 181.739 126.954 181.002 126.92 180.133H129.253C129.287 180.589 129.428 180.968 129.675 181.271C129.922 181.573 130.244 181.799 130.64 181.948C131.04 182.097 131.488 182.172 131.982 182.172C132.498 182.172 132.95 182.095 133.337 181.942C133.729 181.784 134.036 181.567 134.258 181.29C134.479 181.009 134.592 180.68 134.597 180.305C134.592 179.964 134.492 179.683 134.296 179.462C134.1 179.236 133.825 179.048 133.472 178.899C133.122 178.746 132.713 178.609 132.244 178.49L130.755 178.107C129.677 177.83 128.825 177.41 128.198 176.847C127.576 176.281 127.265 175.528 127.265 174.591C127.265 173.82 127.474 173.144 127.891 172.565C128.313 171.985 128.886 171.536 129.611 171.216C130.335 170.892 131.156 170.73 132.072 170.73C133.001 170.73 133.815 170.892 134.513 171.216C135.217 171.536 135.768 171.981 136.169 172.552C136.57 173.119 136.776 173.771 136.789 174.508H134.507ZM143.327 184.192C142.342 184.192 141.492 183.987 140.776 183.578C140.064 183.165 139.517 182.581 139.133 181.827C138.75 181.068 138.558 180.175 138.558 179.148C138.558 178.138 138.75 177.252 139.133 176.489C139.521 175.722 140.062 175.126 140.757 174.7C141.452 174.269 142.268 174.054 143.205 174.054C143.81 174.054 144.381 174.152 144.918 174.348C145.459 174.54 145.937 174.838 146.35 175.243C146.768 175.648 147.096 176.163 147.334 176.79C147.573 177.412 147.692 178.153 147.692 179.014V179.724H139.645V178.164H145.474C145.47 177.721 145.374 177.327 145.187 176.982C144.999 176.632 144.737 176.357 144.4 176.157C144.068 175.957 143.68 175.857 143.237 175.857C142.764 175.857 142.349 175.972 141.991 176.202C141.633 176.428 141.354 176.726 141.153 177.097C140.957 177.463 140.857 177.866 140.853 178.305V179.666C140.853 180.237 140.957 180.727 141.166 181.136C141.375 181.541 141.667 181.852 142.042 182.07C142.417 182.283 142.856 182.389 143.358 182.389C143.695 182.389 144 182.342 144.273 182.249C144.545 182.151 144.782 182.008 144.982 181.82C145.182 181.633 145.334 181.401 145.436 181.124L147.596 181.366C147.46 181.937 147.2 182.436 146.817 182.862C146.437 183.284 145.952 183.612 145.359 183.847C144.767 184.077 144.089 184.192 143.327 184.192ZM149.65 184V174.182H151.893V175.818H151.996C152.175 175.251 152.482 174.815 152.916 174.508C153.355 174.197 153.856 174.041 154.418 174.041C154.546 174.041 154.689 174.048 154.847 174.06C155.009 174.069 155.143 174.084 155.249 174.105V176.234C155.151 176.2 154.996 176.17 154.783 176.144C154.574 176.114 154.371 176.099 154.175 176.099C153.754 176.099 153.374 176.191 153.038 176.374C152.705 176.553 152.443 176.803 152.251 177.122C152.06 177.442 151.964 177.81 151.964 178.228V184H149.65ZM165.855 174.182L162.359 184H159.802L156.306 174.182H158.773L161.029 181.475H161.132L163.394 174.182H165.855ZM167.456 184V174.182H169.77V184H167.456ZM168.62 172.788C168.253 172.788 167.938 172.667 167.674 172.424C167.41 172.177 167.278 171.881 167.278 171.536C167.278 171.186 167.41 170.89 167.674 170.647C167.938 170.4 168.253 170.276 168.62 170.276C168.991 170.276 169.306 170.4 169.566 170.647C169.83 170.89 169.962 171.186 169.962 171.536C169.962 171.881 169.83 172.177 169.566 172.424C169.306 172.667 168.991 172.788 168.62 172.788ZM176.433 184.192C175.452 184.192 174.611 183.977 173.908 183.546C173.209 183.116 172.67 182.521 172.29 181.763C171.915 181 171.728 180.122 171.728 179.129C171.728 178.132 171.92 177.252 172.303 176.489C172.687 175.722 173.228 175.126 173.927 174.7C174.63 174.269 175.461 174.054 176.42 174.054C177.217 174.054 177.922 174.201 178.536 174.495C179.153 174.785 179.646 175.196 180.012 175.729C180.379 176.257 180.587 176.875 180.638 177.582H178.427C178.337 177.109 178.124 176.715 177.788 176.4C177.455 176.08 177.01 175.92 176.452 175.92C175.979 175.92 175.563 176.048 175.205 176.304C174.847 176.555 174.568 176.918 174.368 177.391C174.172 177.864 174.074 178.43 174.074 179.091C174.074 179.76 174.172 180.335 174.368 180.817C174.564 181.294 174.839 181.663 175.192 181.923C175.55 182.178 175.97 182.306 176.452 182.306C176.793 182.306 177.097 182.242 177.366 182.114C177.638 181.982 177.866 181.793 178.05 181.545C178.233 181.298 178.359 180.998 178.427 180.644H180.638C180.583 181.339 180.379 181.955 180.025 182.491C179.671 183.024 179.19 183.442 178.58 183.744C177.971 184.043 177.255 184.192 176.433 184.192ZM186.885 184.192C185.901 184.192 185.051 183.987 184.335 183.578C183.623 183.165 183.075 182.581 182.692 181.827C182.308 181.068 182.117 180.175 182.117 179.148C182.117 178.138 182.308 177.252 182.692 176.489C183.08 175.722 183.621 175.126 184.316 174.7C185.01 174.269 185.826 174.054 186.764 174.054C187.369 174.054 187.94 174.152 188.477 174.348C189.018 174.54 189.495 174.838 189.909 175.243C190.326 175.648 190.654 176.163 190.893 176.79C191.132 177.412 191.251 178.153 191.251 179.014V179.724H183.203V178.164H189.033C189.029 177.721 188.933 177.327 188.745 176.982C188.558 176.632 188.296 176.357 187.959 176.157C187.627 175.957 187.239 175.857 186.796 175.857C186.323 175.857 185.907 175.972 185.549 176.202C185.191 176.428 184.912 176.726 184.712 177.097C184.516 177.463 184.416 177.866 184.411 178.305V179.666C184.411 180.237 184.516 180.727 184.725 181.136C184.933 181.541 185.225 181.852 185.6 182.07C185.975 182.283 186.414 182.389 186.917 182.389C187.254 182.389 187.558 182.342 187.831 182.249C188.104 182.151 188.34 182.008 188.541 181.82C188.741 181.633 188.892 181.401 188.994 181.124L191.155 181.366C191.019 181.937 190.759 182.436 190.375 182.862C189.996 183.284 189.51 183.612 188.918 183.847C188.325 184.077 187.648 184.192 186.885 184.192ZM200.968 176.777L198.859 177.007C198.799 176.794 198.695 176.594 198.546 176.406C198.401 176.219 198.205 176.067 197.958 175.952C197.711 175.837 197.408 175.78 197.05 175.78C196.569 175.78 196.164 175.884 195.836 176.093C195.512 176.302 195.352 176.572 195.356 176.905C195.352 177.19 195.456 177.423 195.669 177.602C195.887 177.781 196.245 177.928 196.743 178.043L198.418 178.401C199.347 178.601 200.037 178.918 200.489 179.353C200.945 179.788 201.175 180.357 201.179 181.06C201.175 181.678 200.994 182.223 200.636 182.696C200.282 183.165 199.79 183.531 199.159 183.795C198.529 184.06 197.804 184.192 196.986 184.192C195.784 184.192 194.817 183.94 194.084 183.438C193.351 182.93 192.914 182.225 192.774 181.322L195.03 181.104C195.132 181.548 195.35 181.882 195.682 182.108C196.015 182.334 196.447 182.447 196.98 182.447C197.529 182.447 197.971 182.334 198.303 182.108C198.64 181.882 198.808 181.603 198.808 181.271C198.808 180.989 198.699 180.757 198.482 180.574C198.269 180.391 197.936 180.25 197.485 180.152L195.81 179.8C194.868 179.604 194.172 179.274 193.72 178.81C193.268 178.341 193.044 177.749 193.049 177.033C193.044 176.428 193.208 175.903 193.541 175.46C193.877 175.013 194.344 174.668 194.941 174.425C195.542 174.178 196.234 174.054 197.018 174.054C198.169 174.054 199.074 174.299 199.735 174.789C200.4 175.279 200.811 175.942 200.968 176.777Z" fill="white"/>
<path opacity="0.8" d="M42.508 205.818H43.8603L44.9938 207.31L45.2921 207.707L46.9824 209.955H45.6301L44.5165 208.463L44.2381 208.085L42.508 205.818ZM47.4 203.909C47.4 204.983 47.2061 205.911 46.8184 206.693C46.4306 207.475 45.8986 208.079 45.2225 208.503C44.5463 208.927 43.7741 209.139 42.9057 209.139C42.0373 209.139 41.2651 208.927 40.589 208.503C39.9128 208.079 39.3809 207.475 38.9931 206.693C38.6053 205.911 38.4114 204.983 38.4114 203.909C38.4114 202.835 38.6053 201.907 38.9931 201.125C39.3809 200.343 39.9128 199.74 40.589 199.315C41.2651 198.891 42.0373 198.679 42.9057 198.679C43.7741 198.679 44.5463 198.891 45.2225 199.315C45.8986 199.74 46.4306 200.343 46.8184 201.125C47.2061 201.907 47.4 202.835 47.4 203.909ZM46.2069 203.909C46.2069 203.027 46.0594 202.283 45.7644 201.677C45.4727 201.07 45.0766 200.611 44.5762 200.3C44.079 199.988 43.5222 199.832 42.9057 199.832C42.2892 199.832 41.7308 199.988 41.2303 200.3C40.7331 200.611 40.3371 201.07 40.0421 201.677C39.7504 202.283 39.6046 203.027 39.6046 203.909C39.6046 204.791 39.7504 205.535 40.0421 206.141C40.3371 206.748 40.7331 207.207 41.2303 207.518C41.7308 207.83 42.2892 207.986 42.9057 207.986C43.5222 207.986 44.079 207.83 44.5762 207.518C45.0766 207.207 45.4727 206.748 45.7644 206.141C46.0594 205.535 46.2069 204.791 46.2069 203.909ZM54.1266 205.878V201.364H55.2999V209H54.1266V207.707H54.0471C53.8681 208.095 53.5897 208.425 53.2118 208.697C52.834 208.965 52.3567 209.099 51.78 209.099C51.3027 209.099 50.8785 208.995 50.5073 208.786C50.1361 208.574 49.8444 208.256 49.6323 207.832C49.4202 207.404 49.3141 206.866 49.3141 206.216V201.364H50.4874V206.136C50.4874 206.693 50.6432 207.137 50.9547 207.469C51.2696 207.8 51.6706 207.966 52.1578 207.966C52.4495 207.966 52.7462 207.891 53.0478 207.742C53.3527 207.593 53.6079 207.364 53.8134 207.056C54.0222 206.748 54.1266 206.355 54.1266 205.878ZM57.4489 209V201.364H58.6222V209H57.4489ZM58.0455 200.091C57.8168 200.091 57.6196 200.013 57.4538 199.857C57.2914 199.701 57.2102 199.514 57.2102 199.295C57.2102 199.077 57.2914 198.889 57.4538 198.734C57.6196 198.578 57.8168 198.5 58.0455 198.5C58.2741 198.5 58.4697 198.578 58.6321 198.734C58.7978 198.889 58.8807 199.077 58.8807 199.295C58.8807 199.514 58.7978 199.701 58.6321 199.857C58.4697 200.013 58.2741 200.091 58.0455 200.091ZM63.8734 209.159C63.1575 209.159 62.541 208.99 62.024 208.652C61.5069 208.314 61.1092 207.848 60.8308 207.255C60.5524 206.662 60.4132 205.984 60.4132 205.222C60.4132 204.446 60.5557 203.762 60.8407 203.168C61.1291 202.572 61.5301 202.106 62.0439 201.771C62.5609 201.433 63.1641 201.264 63.8535 201.264C64.3904 201.264 64.8743 201.364 65.3052 201.562C65.7361 201.761 66.0891 202.04 66.3642 202.398C66.6393 202.756 66.81 203.173 66.8762 203.651H65.7029C65.6135 203.303 65.4146 202.994 65.1064 202.726C64.8014 202.454 64.3904 202.318 63.8734 202.318C63.416 202.318 63.015 202.437 62.6703 202.676C62.3289 202.911 62.0621 203.245 61.8699 203.675C61.6809 204.103 61.5865 204.605 61.5865 205.182C61.5865 205.772 61.6793 206.286 61.8649 206.723C62.0538 207.161 62.319 207.5 62.6603 207.742C63.005 207.984 63.4094 208.105 63.8734 208.105C64.1783 208.105 64.4551 208.052 64.7037 207.946C64.9522 207.84 65.1627 207.688 65.335 207.489C65.5074 207.29 65.63 207.051 65.7029 206.773H66.8762C66.81 207.223 66.6459 207.629 66.3841 207.991C66.1255 208.349 65.7825 208.634 65.3549 208.846C64.9307 209.055 64.4368 209.159 63.8734 209.159ZM69.6852 206.216L69.6653 204.764H69.9039L73.2449 201.364H74.6966L71.1369 204.963H71.0375L69.6852 206.216ZM68.5914 209V198.818H69.7647V209H68.5914ZM73.4437 209L70.4608 205.222L71.296 204.406L74.9352 209H73.4437ZM82.3913 209.179C81.9074 209.179 81.4683 209.088 81.0739 208.906C80.6795 208.72 80.3662 208.453 80.1342 208.105C79.9022 207.754 79.7862 207.33 79.7862 206.832C79.7862 206.395 79.8724 206.04 80.0447 205.768C80.2171 205.493 80.4474 205.278 80.7358 205.122C81.0241 204.966 81.3423 204.85 81.6903 204.774C82.0417 204.695 82.3946 204.632 82.7493 204.585C83.2133 204.526 83.5895 204.481 83.8778 204.451C84.1695 204.418 84.3816 204.363 84.5142 204.287C84.6501 204.211 84.718 204.078 84.718 203.889V203.849C84.718 203.359 84.5838 202.978 84.3153 202.706C84.0502 202.434 83.6475 202.298 83.1072 202.298C82.5471 202.298 82.108 202.421 81.7898 202.666C81.4716 202.911 81.2479 203.173 81.1186 203.452L80.005 203.054C80.2038 202.59 80.469 202.229 80.8004 201.97C81.1352 201.708 81.4998 201.526 81.8942 201.423C82.2919 201.317 82.683 201.264 83.0675 201.264C83.3127 201.264 83.5945 201.294 83.9126 201.354C84.2341 201.41 84.544 201.528 84.8423 201.707C85.1439 201.886 85.3942 202.156 85.593 202.517C85.7919 202.878 85.8913 203.362 85.8913 203.969V209H84.718V207.966H84.6584C84.5788 208.132 84.4463 208.309 84.2607 208.498C84.075 208.687 83.8281 208.848 83.5199 208.98C83.2116 209.113 82.8355 209.179 82.3913 209.179ZM82.5703 208.125C83.0343 208.125 83.4254 208.034 83.7436 207.852C84.0651 207.669 84.3071 207.434 84.4695 207.146C84.6352 206.857 84.718 206.554 84.718 206.236V205.162C84.6683 205.222 84.5589 205.276 84.3899 205.326C84.2242 205.372 84.032 205.414 83.8132 205.45C83.5978 205.483 83.3873 205.513 83.1818 205.54C82.9796 205.563 82.8156 205.583 82.6896 205.599C82.3847 205.639 82.0997 205.704 81.8345 205.793C81.5727 205.879 81.3606 206.01 81.1982 206.186C81.0391 206.358 80.9595 206.594 80.9595 206.892C80.9595 207.3 81.1103 207.608 81.4119 207.817C81.7169 208.022 82.103 208.125 82.5703 208.125ZM91.1351 209.159C90.4192 209.159 89.8027 208.99 89.2857 208.652C88.7686 208.314 88.3709 207.848 88.0925 207.255C87.8141 206.662 87.6749 205.984 87.6749 205.222C87.6749 204.446 87.8174 203.762 88.1025 203.168C88.3908 202.572 88.7918 202.106 89.3056 201.771C89.8226 201.433 90.4258 201.264 91.1152 201.264C91.6522 201.264 92.1361 201.364 92.5669 201.562C92.9978 201.761 93.3508 202.04 93.6259 202.398C93.901 202.756 94.0717 203.173 94.138 203.651H92.9647C92.8752 203.303 92.6763 202.994 92.3681 202.726C92.0632 202.454 91.6522 202.318 91.1351 202.318C90.6777 202.318 90.2767 202.437 89.932 202.676C89.5906 202.911 89.3238 203.245 89.1316 203.675C88.9426 204.103 88.8482 204.605 88.8482 205.182C88.8482 205.772 88.941 206.286 89.1266 206.723C89.3155 207.161 89.5807 207.5 89.9221 207.742C90.2667 207.984 90.6711 208.105 91.1351 208.105C91.44 208.105 91.7168 208.052 91.9654 207.946C92.214 207.84 92.4244 207.688 92.5968 207.489C92.7691 207.29 92.8917 207.051 92.9647 206.773H94.138C94.0717 207.223 93.9076 207.629 93.6458 207.991C93.3873 208.349 93.0442 208.634 92.6167 208.846C92.1924 209.055 91.6986 209.159 91.1351 209.159ZM98.9554 209.159C98.2395 209.159 97.623 208.99 97.106 208.652C96.589 208.314 96.1912 207.848 95.9128 207.255C95.6344 206.662 95.4952 205.984 95.4952 205.222C95.4952 204.446 95.6377 203.762 95.9228 203.168C96.2111 202.572 96.6122 202.106 97.1259 201.771C97.6429 201.433 98.2462 201.264 98.9355 201.264C99.4725 201.264 99.9564 201.364 100.387 201.562C100.818 201.761 101.171 202.04 101.446 202.398C101.721 202.756 101.892 203.173 101.958 203.651H100.785C100.695 203.303 100.497 202.994 100.188 202.726C99.8835 202.454 99.4725 202.318 98.9554 202.318C98.498 202.318 98.097 202.437 97.7523 202.676C97.4109 202.911 97.1441 203.245 96.9519 203.675C96.763 204.103 96.6685 204.605 96.6685 205.182C96.6685 205.772 96.7613 206.286 96.9469 206.723C97.1358 207.161 97.401 207.5 97.7424 207.742C98.0871 207.984 98.4914 208.105 98.9554 208.105C99.2604 208.105 99.5371 208.052 99.7857 207.946C100.034 207.84 100.245 207.688 100.417 207.489C100.589 207.29 100.712 207.051 100.785 206.773H101.958C101.892 207.223 101.728 207.629 101.466 207.991C101.208 208.349 100.865 208.634 100.437 208.846C100.013 209.055 99.5189 209.159 98.9554 209.159ZM106.875 209.159C106.139 209.159 105.505 208.997 104.971 208.672C104.441 208.344 104.031 207.886 103.743 207.3C103.458 206.71 103.316 206.024 103.316 205.241C103.316 204.459 103.458 203.77 103.743 203.173C104.031 202.573 104.432 202.106 104.946 201.771C105.463 201.433 106.066 201.264 106.756 201.264C107.154 201.264 107.546 201.33 107.934 201.463C108.322 201.596 108.675 201.811 108.993 202.109C109.311 202.404 109.565 202.795 109.754 203.283C109.943 203.77 110.037 204.37 110.037 205.082V205.58H104.151V204.565H108.844C108.844 204.134 108.758 203.75 108.585 203.412C108.416 203.074 108.174 202.807 107.86 202.612C107.548 202.416 107.18 202.318 106.756 202.318C106.289 202.318 105.884 202.434 105.543 202.666C105.205 202.895 104.945 203.193 104.762 203.561C104.58 203.929 104.489 204.323 104.489 204.744V205.42C104.489 205.997 104.588 206.486 104.787 206.887C104.989 207.285 105.269 207.588 105.627 207.797C105.985 208.002 106.401 208.105 106.875 208.105C107.183 208.105 107.462 208.062 107.71 207.976C107.962 207.886 108.179 207.754 108.362 207.578C108.544 207.399 108.685 207.177 108.784 206.912L109.918 207.23C109.798 207.615 109.598 207.953 109.316 208.244C109.035 208.533 108.686 208.758 108.272 208.92C107.858 209.08 107.392 209.159 106.875 209.159ZM117.231 203.074L116.177 203.372C116.111 203.196 116.013 203.026 115.884 202.86C115.758 202.691 115.585 202.552 115.367 202.442C115.148 202.333 114.868 202.278 114.526 202.278C114.059 202.278 113.67 202.386 113.358 202.602C113.05 202.814 112.896 203.084 112.896 203.412C112.896 203.704 113.002 203.934 113.214 204.103C113.426 204.272 113.758 204.413 114.208 204.526L115.342 204.804C116.025 204.97 116.533 205.223 116.868 205.565C117.203 205.903 117.37 206.339 117.37 206.872C117.37 207.31 117.244 207.701 116.992 208.045C116.744 208.39 116.396 208.662 115.948 208.861C115.501 209.06 114.981 209.159 114.387 209.159C113.608 209.159 112.964 208.99 112.453 208.652C111.943 208.314 111.62 207.82 111.484 207.17L112.597 206.892C112.704 207.303 112.904 207.611 113.199 207.817C113.497 208.022 113.887 208.125 114.367 208.125C114.914 208.125 115.348 208.009 115.67 207.777C115.995 207.542 116.157 207.26 116.157 206.932C116.157 206.667 116.064 206.445 115.879 206.266C115.693 206.083 115.408 205.947 115.024 205.858L113.751 205.56C113.052 205.394 112.538 205.137 112.21 204.789C111.885 204.438 111.722 203.999 111.722 203.472C111.722 203.041 111.843 202.66 112.085 202.328C112.331 201.997 112.664 201.737 113.085 201.548C113.509 201.359 113.99 201.264 114.526 201.264C115.282 201.264 115.875 201.43 116.306 201.761C116.74 202.093 117.049 202.53 117.231 203.074ZM124.545 203.074L123.491 203.372C123.425 203.196 123.327 203.026 123.198 202.86C123.072 202.691 122.9 202.552 122.681 202.442C122.462 202.333 122.182 202.278 121.841 202.278C121.374 202.278 120.984 202.386 120.673 202.602C120.364 202.814 120.21 203.084 120.21 203.412C120.21 203.704 120.316 203.934 120.528 204.103C120.741 204.272 121.072 204.413 121.523 204.526L122.656 204.804C123.339 204.97 123.848 205.223 124.183 205.565C124.517 205.903 124.685 206.339 124.685 206.872C124.685 207.31 124.559 207.701 124.307 208.045C124.058 208.39 123.71 208.662 123.263 208.861C122.815 209.06 122.295 209.159 121.702 209.159C120.923 209.159 120.278 208.99 119.768 208.652C119.257 208.314 118.934 207.82 118.798 207.17L119.912 206.892C120.018 207.303 120.219 207.611 120.513 207.817C120.812 208.022 121.201 208.125 121.682 208.125C122.229 208.125 122.663 208.009 122.984 207.777C123.309 207.542 123.472 207.26 123.472 206.932C123.472 206.667 123.379 206.445 123.193 206.266C123.008 206.083 122.723 205.947 122.338 205.858L121.065 205.56C120.366 205.394 119.852 205.137 119.524 204.789C119.199 204.438 119.037 203.999 119.037 203.472C119.037 203.041 119.158 202.66 119.4 202.328C119.645 201.997 119.978 201.737 120.399 201.548C120.823 201.359 121.304 201.264 121.841 201.264C122.597 201.264 123.19 201.43 123.621 201.761C124.055 202.093 124.363 202.53 124.545 203.074ZM133.709 201.364V202.358H129.752V201.364H133.709ZM130.905 199.534H132.079V206.812C132.079 207.144 132.127 207.393 132.223 207.558C132.322 207.721 132.448 207.83 132.601 207.886C132.756 207.939 132.921 207.966 133.093 207.966C133.222 207.966 133.328 207.959 133.411 207.946C133.494 207.929 133.56 207.916 133.61 207.906L133.849 208.96C133.769 208.99 133.658 209.02 133.515 209.05C133.373 209.083 133.192 209.099 132.974 209.099C132.642 209.099 132.317 209.028 131.999 208.886C131.684 208.743 131.422 208.526 131.214 208.234C131.008 207.943 130.905 207.575 130.905 207.131V199.534ZM138.494 209.159C137.805 209.159 137.2 208.995 136.68 208.667C136.163 208.339 135.758 207.88 135.467 207.29C135.178 206.7 135.034 206.01 135.034 205.222C135.034 204.426 135.178 203.732 135.467 203.138C135.758 202.545 136.163 202.085 136.68 201.756C137.2 201.428 137.805 201.264 138.494 201.264C139.184 201.264 139.787 201.428 140.304 201.756C140.825 202.085 141.229 202.545 141.517 203.138C141.809 203.732 141.955 204.426 141.955 205.222C141.955 206.01 141.809 206.7 141.517 207.29C141.229 207.88 140.825 208.339 140.304 208.667C139.787 208.995 139.184 209.159 138.494 209.159ZM138.494 208.105C139.018 208.105 139.449 207.971 139.787 207.702C140.125 207.434 140.375 207.081 140.538 206.643C140.7 206.206 140.781 205.732 140.781 205.222C140.781 204.711 140.7 204.236 140.538 203.795C140.375 203.354 140.125 202.998 139.787 202.726C139.449 202.454 139.018 202.318 138.494 202.318C137.971 202.318 137.54 202.454 137.202 202.726C136.864 202.998 136.614 203.354 136.451 203.795C136.289 204.236 136.208 204.711 136.208 205.222C136.208 205.732 136.289 206.206 136.451 206.643C136.614 207.081 136.864 207.434 137.202 207.702C137.54 207.971 137.971 208.105 138.494 208.105ZM150.885 209.159C150.149 209.159 149.514 208.997 148.981 208.672C148.451 208.344 148.041 207.886 147.753 207.3C147.468 206.71 147.325 206.024 147.325 205.241C147.325 204.459 147.468 203.77 147.753 203.173C148.041 202.573 148.442 202.106 148.956 201.771C149.473 201.433 150.076 201.264 150.766 201.264C151.163 201.264 151.556 201.33 151.944 201.463C152.332 201.596 152.685 201.811 153.003 202.109C153.321 202.404 153.575 202.795 153.763 203.283C153.952 203.77 154.047 204.37 154.047 205.082V205.58H148.161V204.565H152.854C152.854 204.134 152.768 203.75 152.595 203.412C152.426 203.074 152.184 202.807 151.869 202.612C151.558 202.416 151.19 202.318 150.766 202.318C150.298 202.318 149.894 202.434 149.553 202.666C149.214 202.895 148.954 203.193 148.772 203.561C148.59 203.929 148.499 204.323 148.499 204.744V205.42C148.499 205.997 148.598 206.486 148.797 206.887C148.999 207.285 149.279 207.588 149.637 207.797C149.995 208.002 150.411 208.105 150.885 208.105C151.193 208.105 151.472 208.062 151.72 207.976C151.972 207.886 152.189 207.754 152.371 207.578C152.554 207.399 152.695 207.177 152.794 206.912L153.928 207.23C153.808 207.615 153.608 207.953 153.326 208.244C153.044 208.533 152.696 208.758 152.282 208.92C151.868 209.08 151.402 209.159 150.885 209.159ZM160.207 204.088V205.182H155.752V204.088H160.207ZM167.68 203.074L166.626 203.372C166.56 203.196 166.462 203.026 166.333 202.86C166.207 202.691 166.035 202.552 165.816 202.442C165.597 202.333 165.317 202.278 164.976 202.278C164.508 202.278 164.119 202.386 163.807 202.602C163.499 202.814 163.345 203.084 163.345 203.412C163.345 203.704 163.451 203.934 163.663 204.103C163.875 204.272 164.207 204.413 164.657 204.526L165.791 204.804C166.474 204.97 166.983 205.223 167.317 205.565C167.652 205.903 167.819 206.339 167.819 206.872C167.819 207.31 167.693 207.701 167.442 208.045C167.193 208.39 166.845 208.662 166.398 208.861C165.95 209.06 165.43 209.159 164.836 209.159C164.058 209.159 163.413 208.99 162.903 208.652C162.392 208.314 162.069 207.82 161.933 207.17L163.047 206.892C163.153 207.303 163.353 207.611 163.648 207.817C163.947 208.022 164.336 208.125 164.817 208.125C165.363 208.125 165.798 208.009 166.119 207.777C166.444 207.542 166.606 207.26 166.606 206.932C166.606 206.667 166.514 206.445 166.328 206.266C166.142 206.083 165.857 205.947 165.473 205.858L164.2 205.56C163.501 205.394 162.987 205.137 162.659 204.789C162.334 204.438 162.172 203.999 162.172 203.472C162.172 203.041 162.293 202.66 162.535 202.328C162.78 201.997 163.113 201.737 163.534 201.548C163.958 201.359 164.439 201.264 164.976 201.264C165.731 201.264 166.325 201.43 166.756 201.761C167.19 202.093 167.498 202.53 167.68 203.074ZM172.907 201.364V202.358H168.949V201.364H172.907ZM170.103 199.534H171.276V206.812C171.276 207.144 171.324 207.393 171.42 207.558C171.52 207.721 171.645 207.83 171.798 207.886C171.954 207.939 172.118 207.966 172.29 207.966C172.419 207.966 172.525 207.959 172.608 207.946C172.691 207.929 172.757 207.916 172.807 207.906L173.046 208.96C172.966 208.99 172.855 209.02 172.713 209.05C172.57 209.083 172.39 209.099 172.171 209.099C171.839 209.099 171.515 209.028 171.196 208.886C170.882 208.743 170.62 208.526 170.411 208.234C170.205 207.943 170.103 207.575 170.103 207.131V199.534ZM176.919 209.179C176.435 209.179 175.996 209.088 175.601 208.906C175.207 208.72 174.894 208.453 174.662 208.105C174.43 207.754 174.314 207.33 174.314 206.832C174.314 206.395 174.4 206.04 174.572 205.768C174.744 205.493 174.975 205.278 175.263 205.122C175.551 204.966 175.87 204.85 176.218 204.774C176.569 204.695 176.922 204.632 177.277 204.585C177.741 204.526 178.117 204.481 178.405 204.451C178.697 204.418 178.909 204.363 179.042 204.287C179.177 204.211 179.245 204.078 179.245 203.889V203.849C179.245 203.359 179.111 202.978 178.843 202.706C178.578 202.434 178.175 202.298 177.635 202.298C177.074 202.298 176.635 202.421 176.317 202.666C175.999 202.911 175.775 203.173 175.646 203.452L174.532 203.054C174.731 202.59 174.996 202.229 175.328 201.97C175.663 201.708 176.027 201.526 176.422 201.423C176.819 201.317 177.21 201.264 177.595 201.264C177.84 201.264 178.122 201.294 178.44 201.354C178.761 201.41 179.071 201.528 179.37 201.707C179.671 201.886 179.922 202.156 180.12 202.517C180.319 202.878 180.419 203.362 180.419 203.969V209H179.245V207.966H179.186C179.106 208.132 178.974 208.309 178.788 208.498C178.602 208.687 178.355 208.848 178.047 208.98C177.739 209.113 177.363 209.179 176.919 209.179ZM177.098 208.125C177.562 208.125 177.953 208.034 178.271 207.852C178.592 207.669 178.834 207.434 178.997 207.146C179.163 206.857 179.245 206.554 179.245 206.236V205.162C179.196 205.222 179.086 205.276 178.917 205.326C178.752 205.372 178.559 205.414 178.341 205.45C178.125 205.483 177.915 205.513 177.709 205.54C177.507 205.563 177.343 205.583 177.217 205.599C176.912 205.639 176.627 205.704 176.362 205.793C176.1 205.879 175.888 206.01 175.725 206.186C175.566 206.358 175.487 206.594 175.487 206.892C175.487 207.3 175.638 207.608 175.939 207.817C176.244 208.022 176.63 208.125 177.098 208.125ZM185.881 201.364V202.358H181.924V201.364H185.881ZM183.077 199.534H184.251V206.812C184.251 207.144 184.299 207.393 184.395 207.558C184.494 207.721 184.62 207.83 184.773 207.886C184.928 207.939 185.092 207.966 185.265 207.966C185.394 207.966 185.5 207.959 185.583 207.946C185.666 207.929 185.732 207.916 185.782 207.906L186.02 208.96C185.941 208.99 185.83 209.02 185.687 209.05C185.545 209.083 185.364 209.099 185.145 209.099C184.814 209.099 184.489 209.028 184.171 208.886C183.856 208.743 183.594 208.526 183.385 208.234C183.18 207.943 183.077 207.575 183.077 207.131V199.534ZM190.766 209.159C190.03 209.159 189.395 208.997 188.862 208.672C188.331 208.344 187.922 207.886 187.634 207.3C187.349 206.71 187.206 206.024 187.206 205.241C187.206 204.459 187.349 203.77 187.634 203.173C187.922 202.573 188.323 202.106 188.837 201.771C189.354 201.433 189.957 201.264 190.646 201.264C191.044 201.264 191.437 201.33 191.825 201.463C192.213 201.596 192.566 201.811 192.884 202.109C193.202 202.404 193.455 202.795 193.644 203.283C193.833 203.77 193.928 204.37 193.928 205.082V205.58H188.041V204.565H192.735C192.735 204.134 192.648 203.75 192.476 203.412C192.307 203.074 192.065 202.807 191.75 202.612C191.439 202.416 191.071 202.318 190.646 202.318C190.179 202.318 189.775 202.434 189.433 202.666C189.095 202.895 188.835 203.193 188.653 203.561C188.471 203.929 188.379 204.323 188.379 204.744V205.42C188.379 205.997 188.479 206.486 188.678 206.887C188.88 207.285 189.16 207.588 189.518 207.797C189.876 208.002 190.292 208.105 190.766 208.105C191.074 208.105 191.352 208.062 191.601 207.976C191.853 207.886 192.07 207.754 192.252 207.578C192.435 207.399 192.575 207.177 192.675 206.912L193.808 207.23C193.689 207.615 193.489 207.953 193.207 208.244C192.925 208.533 192.577 208.758 192.163 208.92C191.749 209.08 191.283 209.159 190.766 209.159ZM195.713 209V201.364H196.846V202.557H196.945C197.105 202.149 197.361 201.833 197.716 201.607C198.071 201.379 198.497 201.264 198.994 201.264C199.498 201.264 199.917 201.379 200.252 201.607C200.59 201.833 200.853 202.149 201.042 202.557H201.122C201.317 202.162 201.61 201.849 202.002 201.617C202.393 201.382 202.862 201.264 203.409 201.264C204.091 201.264 204.65 201.478 205.084 201.906C205.518 202.33 205.735 202.991 205.735 203.889V209H204.562V203.889C204.562 203.326 204.408 202.923 204.1 202.681C203.791 202.439 203.428 202.318 203.011 202.318C202.474 202.318 202.058 202.481 201.763 202.805C201.468 203.127 201.32 203.535 201.32 204.028V209H200.127V203.77C200.127 203.336 199.986 202.986 199.705 202.721C199.423 202.452 199.06 202.318 198.616 202.318C198.311 202.318 198.026 202.399 197.761 202.562C197.499 202.724 197.287 202.95 197.124 203.238C196.965 203.523 196.886 203.853 196.886 204.227V209H195.713ZM211.082 209.159C210.346 209.159 209.712 208.997 209.178 208.672C208.648 208.344 208.238 207.886 207.95 207.3C207.665 206.71 207.523 206.024 207.523 205.241C207.523 204.459 207.665 203.77 207.95 203.173C208.238 202.573 208.64 202.106 209.153 201.771C209.67 201.433 210.273 201.264 210.963 201.264C211.361 201.264 211.753 201.33 212.141 201.463C212.529 201.596 212.882 201.811 213.2 202.109C213.518 202.404 213.772 202.795 213.961 203.283C214.15 203.77 214.244 204.37 214.244 205.082V205.58H208.358V204.565H213.051C213.051 204.134 212.965 203.75 212.792 203.412C212.623 203.074 212.381 202.807 212.067 202.612C211.755 202.416 211.387 202.318 210.963 202.318C210.496 202.318 210.091 202.434 209.75 202.666C209.412 202.895 209.152 203.193 208.969 203.561C208.787 203.929 208.696 204.323 208.696 204.744V205.42C208.696 205.997 208.795 206.486 208.994 206.887C209.196 207.285 209.476 207.588 209.834 207.797C210.192 208.002 210.608 208.105 211.082 208.105C211.39 208.105 211.669 208.062 211.917 207.976C212.169 207.886 212.386 207.754 212.569 207.578C212.751 207.399 212.892 207.177 212.991 206.912L214.125 207.23C214.006 207.615 213.805 207.953 213.523 208.244C213.242 208.533 212.894 208.758 212.479 208.92C212.065 209.08 211.599 209.159 211.082 209.159ZM217.202 204.406V209H216.029V201.364H217.162V202.557H217.262C217.441 202.169 217.713 201.857 218.077 201.622C218.442 201.384 218.912 201.264 219.489 201.264C220.006 201.264 220.459 201.37 220.846 201.582C221.234 201.791 221.536 202.109 221.751 202.537C221.967 202.961 222.074 203.498 222.074 204.148V209H220.901V204.227C220.901 203.627 220.745 203.16 220.434 202.825C220.122 202.487 219.695 202.318 219.151 202.318C218.777 202.318 218.442 202.399 218.147 202.562C217.855 202.724 217.625 202.961 217.456 203.273C217.287 203.584 217.202 203.962 217.202 204.406ZM227.539 201.364V202.358H223.582V201.364H227.539ZM224.735 199.534H225.909V206.812C225.909 207.144 225.957 207.393 226.053 207.558C226.152 207.721 226.278 207.83 226.431 207.886C226.587 207.939 226.751 207.966 226.923 207.966C227.052 207.966 227.158 207.959 227.241 207.946C227.324 207.929 227.39 207.916 227.44 207.906L227.679 208.96C227.599 208.99 227.488 209.02 227.346 209.05C227.203 209.083 227.022 209.099 226.804 209.099C226.472 209.099 226.147 209.028 225.829 208.886C225.514 208.743 225.252 208.526 225.044 208.234C224.838 207.943 224.735 207.575 224.735 207.131V199.534ZM231.054 207.608L230.975 208.145C230.918 208.523 230.832 208.927 230.716 209.358C230.604 209.789 230.486 210.195 230.363 210.576C230.241 210.957 230.14 211.26 230.06 211.486H229.165C229.208 211.274 229.265 210.994 229.334 210.646C229.404 210.298 229.473 209.908 229.543 209.477C229.616 209.05 229.676 208.612 229.722 208.165L229.782 207.608H231.054ZM237.325 209V198.818H240.884C241.594 198.818 242.179 198.941 242.639 199.186C243.1 199.428 243.443 199.754 243.669 200.165C243.894 200.573 244.007 201.026 244.007 201.523C244.007 201.96 243.929 202.321 243.773 202.607C243.62 202.892 243.418 203.117 243.166 203.283C242.918 203.448 242.648 203.571 242.356 203.651V203.75C242.668 203.77 242.981 203.879 243.296 204.078C243.611 204.277 243.874 204.562 244.086 204.933C244.298 205.304 244.404 205.759 244.404 206.295C244.404 206.806 244.288 207.265 244.056 207.673C243.824 208.08 243.458 208.403 242.958 208.642C242.457 208.881 241.806 209 241.004 209H237.325ZM238.558 207.906H241.004C241.809 207.906 242.381 207.75 242.719 207.439C243.06 207.124 243.231 206.743 243.231 206.295C243.231 205.951 243.143 205.633 242.968 205.341C242.792 205.046 242.542 204.811 242.217 204.635C241.892 204.456 241.508 204.366 241.063 204.366H238.558V207.906ZM238.558 203.293H240.845C241.216 203.293 241.551 203.22 241.849 203.074C242.151 202.928 242.389 202.723 242.565 202.457C242.744 202.192 242.833 201.881 242.833 201.523C242.833 201.075 242.677 200.696 242.366 200.384C242.054 200.069 241.561 199.912 240.884 199.912H238.558V203.293ZM247.444 198.818V209H246.271V198.818H247.444ZM252.696 209.159C252.006 209.159 251.401 208.995 250.881 208.667C250.364 208.339 249.96 207.88 249.668 207.29C249.38 206.7 249.235 206.01 249.235 205.222C249.235 204.426 249.38 203.732 249.668 203.138C249.96 202.545 250.364 202.085 250.881 201.756C251.401 201.428 252.006 201.264 252.696 201.264C253.385 201.264 253.988 201.428 254.505 201.756C255.026 202.085 255.43 202.545 255.718 203.138C256.01 203.732 256.156 204.426 256.156 205.222C256.156 206.01 256.01 206.7 255.718 207.29C255.43 207.88 255.026 208.339 254.505 208.667C253.988 208.995 253.385 209.159 252.696 209.159ZM252.696 208.105C253.219 208.105 253.65 207.971 253.988 207.702C254.326 207.434 254.577 207.081 254.739 206.643C254.901 206.206 254.983 205.732 254.983 205.222C254.983 204.711 254.901 204.236 254.739 203.795C254.577 203.354 254.326 202.998 253.988 202.726C253.65 202.454 253.219 202.318 252.696 202.318C252.172 202.318 251.741 202.454 251.403 202.726C251.065 202.998 250.815 203.354 250.652 203.795C250.49 204.236 250.409 204.711 250.409 205.222C250.409 205.732 250.49 206.206 250.652 206.643C250.815 207.081 251.065 207.434 251.403 207.702C251.741 207.971 252.172 208.105 252.696 208.105ZM261.049 209.159C260.333 209.159 259.717 208.99 259.2 208.652C258.683 208.314 258.285 207.848 258.007 207.255C257.728 206.662 257.589 205.984 257.589 205.222C257.589 204.446 257.731 203.762 258.017 203.168C258.305 202.572 258.706 202.106 259.22 201.771C259.737 201.433 260.34 201.264 261.029 201.264C261.566 201.264 262.05 201.364 262.481 201.562C262.912 201.761 263.265 202.04 263.54 202.398C263.815 202.756 263.986 203.173 264.052 203.651H262.879C262.789 203.303 262.59 202.994 262.282 202.726C261.977 202.454 261.566 202.318 261.049 202.318C260.592 202.318 260.191 202.437 259.846 202.676C259.505 202.911 259.238 203.245 259.046 203.675C258.857 204.103 258.762 204.605 258.762 205.182C258.762 205.772 258.855 206.286 259.041 206.723C259.23 207.161 259.495 207.5 259.836 207.742C260.181 207.984 260.585 208.105 261.049 208.105C261.354 208.105 261.631 208.052 261.879 207.946C262.128 207.84 262.338 207.688 262.511 207.489C262.683 207.29 262.806 207.051 262.879 206.773H264.052C263.986 207.223 263.822 207.629 263.56 207.991C263.301 208.349 262.958 208.634 262.531 208.846C262.106 209.055 261.613 209.159 261.049 209.159ZM266.861 206.216L266.841 204.764H267.08L270.421 201.364H271.872L268.313 204.963H268.213L266.861 206.216ZM265.767 209V198.818H266.941V209H265.767ZM270.619 209L267.637 205.222L268.472 204.406L272.111 209H270.619ZM276.982 198.341L273.701 210.531H272.627L275.908 198.341H276.982ZM278.373 209V201.364H279.506V202.517H279.586C279.725 202.139 279.977 201.833 280.341 201.597C280.706 201.362 281.117 201.244 281.574 201.244C281.661 201.244 281.768 201.246 281.898 201.249C282.027 201.253 282.125 201.258 282.191 201.264V202.457C282.151 202.447 282.06 202.433 281.917 202.413C281.778 202.389 281.631 202.378 281.475 202.378C281.104 202.378 280.772 202.456 280.481 202.612C280.192 202.764 279.964 202.976 279.795 203.248C279.629 203.516 279.546 203.823 279.546 204.168V209H278.373ZM286.551 209.159C285.815 209.159 285.18 208.997 284.647 208.672C284.117 208.344 283.707 207.886 283.419 207.3C283.134 206.71 282.991 206.024 282.991 205.241C282.991 204.459 283.134 203.77 283.419 203.173C283.707 202.573 284.108 202.106 284.622 201.771C285.139 201.433 285.742 201.264 286.432 201.264C286.829 201.264 287.222 201.33 287.61 201.463C287.998 201.596 288.351 201.811 288.669 202.109C288.987 202.404 289.241 202.795 289.43 203.283C289.618 203.77 289.713 204.37 289.713 205.082V205.58H283.827V204.565H288.52C288.52 204.134 288.434 203.75 288.261 203.412C288.092 203.074 287.85 202.807 287.535 202.612C287.224 202.416 286.856 202.318 286.432 202.318C285.964 202.318 285.56 202.434 285.219 202.666C284.881 202.895 284.62 203.193 284.438 203.561C284.256 203.929 284.165 204.323 284.165 204.744V205.42C284.165 205.997 284.264 206.486 284.463 206.887C284.665 207.285 284.945 207.588 285.303 207.797C285.661 208.002 286.077 208.105 286.551 208.105C286.859 208.105 287.138 208.062 287.386 207.976C287.638 207.886 287.855 207.754 288.037 207.578C288.22 207.399 288.361 207.177 288.46 206.912L289.594 207.23C289.474 207.615 289.274 207.953 288.992 208.244C288.71 208.533 288.362 208.758 287.948 208.92C287.534 209.08 287.068 209.159 286.551 209.159ZM35.4508 229V221.364H36.6241V229H35.4508ZM36.0474 220.091C35.8187 220.091 35.6215 220.013 35.4558 219.857C35.2934 219.701 35.2122 219.514 35.2122 219.295C35.2122 219.077 35.2934 218.889 35.4558 218.734C35.6215 218.578 35.8187 218.5 36.0474 218.5C36.2761 218.5 36.4717 218.578 36.6341 218.734C36.7998 218.889 36.8826 219.077 36.8826 219.295C36.8826 219.514 36.7998 219.701 36.6341 219.857C36.4717 220.013 36.2761 220.091 36.0474 220.091ZM44.1822 223.074L43.1282 223.372C43.0619 223.196 42.9641 223.026 42.8349 222.86C42.7089 222.691 42.5366 222.552 42.3178 222.442C42.0991 222.333 41.819 222.278 41.4776 222.278C41.0103 222.278 40.6209 222.386 40.3093 222.602C40.0011 222.814 39.8469 223.084 39.8469 223.412C39.8469 223.704 39.953 223.934 40.1651 224.103C40.3772 224.272 40.7087 224.413 41.1594 224.526L42.293 224.804C42.9757 224.97 43.4845 225.223 43.8192 225.565C44.154 225.903 44.3214 226.339 44.3214 226.872C44.3214 227.31 44.1954 227.701 43.9435 228.045C43.695 228.39 43.3469 228.662 42.8995 228.861C42.4521 229.06 41.9317 229.159 41.3384 229.159C40.5595 229.159 39.9149 228.99 39.4045 228.652C38.8941 228.314 38.5709 227.82 38.435 227.17L39.5487 226.892C39.6547 227.303 39.8552 227.611 40.1502 227.817C40.4485 228.022 40.8379 228.125 41.3185 228.125C41.8654 228.125 42.2996 228.009 42.6211 227.777C42.9459 227.542 43.1083 227.26 43.1083 226.932C43.1083 226.667 43.0155 226.445 42.8299 226.266C42.6443 226.083 42.3593 225.947 41.9748 225.858L40.7021 225.56C40.0027 225.394 39.489 225.137 39.1609 224.789C38.8361 224.438 38.6737 223.999 38.6737 223.472C38.6737 223.041 38.7946 222.66 39.0366 222.328C39.2818 221.997 39.6149 221.737 40.0359 221.548C40.4601 221.359 40.9407 221.264 41.4776 221.264C42.2333 221.264 42.8266 221.43 43.2575 221.761C43.6916 222.093 43.9999 222.53 44.1822 223.074ZM51.4966 223.074L50.4426 223.372C50.3764 223.196 50.2786 223.026 50.1493 222.86C50.0234 222.691 49.851 222.552 49.6323 222.442C49.4135 222.333 49.1335 222.278 48.7921 222.278C48.3248 222.278 47.9353 222.386 47.6238 222.602C47.3155 222.814 47.1614 223.084 47.1614 223.412C47.1614 223.704 47.2675 223.934 47.4796 224.103C47.6917 224.272 48.0231 224.413 48.4739 224.526L49.6074 224.804C50.2902 224.97 50.7989 225.223 51.1337 225.565C51.4685 225.903 51.6358 226.339 51.6358 226.872C51.6358 227.31 51.5099 227.701 51.258 228.045C51.0094 228.39 50.6614 228.662 50.214 228.861C49.7665 229.06 49.2462 229.159 48.6529 229.159C47.874 229.159 47.2293 228.99 46.7189 228.652C46.2085 228.314 45.8854 227.82 45.7495 227.17L46.8631 226.892C46.9692 227.303 47.1697 227.611 47.4647 227.817C47.763 228.022 48.1524 228.125 48.633 228.125C49.1799 228.125 49.6141 228.009 49.9355 227.777C50.2604 227.542 50.4228 227.26 50.4228 226.932C50.4228 226.667 50.33 226.445 50.1444 226.266C49.9587 226.083 49.6737 225.947 49.2892 225.858L48.0165 225.56C47.3172 225.394 46.8034 225.137 46.4753 224.789C46.1505 224.438 45.9881 223.999 45.9881 223.472C45.9881 223.041 46.1091 222.66 46.351 222.328C46.5963 221.997 46.9294 221.737 47.3503 221.548C47.7746 221.359 48.2551 221.264 48.7921 221.264C49.5478 221.264 50.141 221.43 50.5719 221.761C51.0061 222.093 51.3143 222.53 51.4966 223.074ZM58.2145 225.878V221.364H59.3878V229H58.2145V227.707H58.1349C57.956 228.095 57.6776 228.425 57.2997 228.697C56.9219 228.965 56.4446 229.099 55.8679 229.099C55.3906 229.099 54.9664 228.995 54.5952 228.786C54.224 228.574 53.9323 228.256 53.7202 227.832C53.508 227.404 53.402 226.866 53.402 226.216V221.364H54.5753V226.136C54.5753 226.693 54.7311 227.137 55.0426 227.469C55.3575 227.8 55.7585 227.966 56.2457 227.966C56.5374 227.966 56.834 227.891 57.1357 227.742C57.4406 227.593 57.6958 227.364 57.9013 227.056C58.1101 226.748 58.2145 226.355 58.2145 225.878ZM64.7385 229.159C64.0027 229.159 63.368 228.997 62.8343 228.672C62.304 228.344 61.8947 227.886 61.6064 227.3C61.3213 226.71 61.1788 226.024 61.1788 225.241C61.1788 224.459 61.3213 223.77 61.6064 223.173C61.8947 222.573 62.2958 222.106 62.8095 221.771C63.3265 221.433 63.9297 221.264 64.6191 221.264C65.0169 221.264 65.4096 221.33 65.7974 221.463C66.1852 221.596 66.5382 221.811 66.8564 222.109C67.1745 222.404 67.4281 222.795 67.617 223.283C67.8059 223.77 67.9004 224.37 67.9004 225.082V225.58H62.014V224.565H66.7072C66.7072 224.134 66.621 223.75 66.4487 223.412C66.2797 223.074 66.0377 222.807 65.7228 222.612C65.4113 222.416 65.0434 222.318 64.6191 222.318C64.1518 222.318 63.7475 222.434 63.4061 222.666C63.068 222.895 62.8078 223.193 62.6255 223.561C62.4432 223.929 62.3521 224.323 62.3521 224.744V225.42C62.3521 225.997 62.4515 226.486 62.6504 226.887C62.8526 227.285 63.1326 227.588 63.4906 227.797C63.8485 228.002 64.2645 228.105 64.7385 228.105C65.0467 228.105 65.3251 228.062 65.5737 227.976C65.8256 227.886 66.0427 227.754 66.225 227.578C66.4073 227.399 66.5481 227.177 66.6475 226.912L67.7811 227.23C67.6618 227.615 67.4612 227.953 67.1795 228.244C66.8978 228.533 66.5498 228.758 66.1355 228.92C65.7212 229.08 65.2555 229.159 64.7385 229.159ZM76.9437 221.364V222.358H72.9863V221.364H76.9437ZM74.1397 219.534H75.313V226.812C75.313 227.144 75.3611 227.393 75.4572 227.558C75.5566 227.721 75.6826 227.83 75.835 227.886C75.9908 227.939 76.1549 227.966 76.3272 227.966C76.4565 227.966 76.5626 227.959 76.6454 227.946C76.7283 227.929 76.7946 227.916 76.8443 227.906L77.0829 228.96C77.0034 228.99 76.8923 229.02 76.7498 229.05C76.6073 229.083 76.4267 229.099 76.2079 229.099C75.8765 229.099 75.5517 229.028 75.2335 228.886C74.9186 228.743 74.6568 228.526 74.448 228.234C74.2425 227.943 74.1397 227.575 74.1397 227.131V219.534ZM80.046 224.406V229H78.8727V218.818H80.046V222.557H80.1454C80.3244 222.162 80.5929 221.849 80.9508 221.617C81.3121 221.382 81.7927 221.264 82.3926 221.264C82.9129 221.264 83.3687 221.369 83.7598 221.577C84.1509 221.783 84.4541 222.099 84.6696 222.527C84.8883 222.951 84.9977 223.491 84.9977 224.148V229H83.8244V224.227C83.8244 223.621 83.667 223.152 83.3521 222.82C83.0405 222.486 82.608 222.318 82.0545 222.318C81.67 222.318 81.3253 222.399 81.0204 222.562C80.7188 222.724 80.4802 222.961 80.3045 223.273C80.1322 223.584 80.046 223.962 80.046 224.406ZM90.3459 229.159C89.6101 229.159 88.9754 228.997 88.4418 228.672C87.9115 228.344 87.5021 227.886 87.2138 227.3C86.9287 226.71 86.7862 226.024 86.7862 225.241C86.7862 224.459 86.9287 223.77 87.2138 223.173C87.5021 222.573 87.9032 222.106 88.4169 221.771C88.9339 221.433 89.5372 221.264 90.2266 221.264C90.6243 221.264 91.017 221.33 91.4048 221.463C91.7926 221.596 92.1456 221.811 92.4638 222.109C92.782 222.404 93.0355 222.795 93.2244 223.283C93.4134 223.77 93.5078 224.37 93.5078 225.082V225.58H87.6214V224.565H92.3146C92.3146 224.134 92.2285 223.75 92.0561 223.412C91.8871 223.074 91.6451 222.807 91.3303 222.612C91.0187 222.416 90.6508 222.318 90.2266 222.318C89.7592 222.318 89.3549 222.434 89.0135 222.666C88.6754 222.895 88.4152 223.193 88.233 223.561C88.0507 223.929 87.9595 224.323 87.9595 224.744V225.42C87.9595 225.997 88.0589 226.486 88.2578 226.887C88.46 227.285 88.7401 227.588 89.098 227.797C89.456 228.002 89.8719 228.105 90.3459 228.105C90.6541 228.105 90.9325 228.062 91.1811 227.976C91.433 227.886 91.6501 227.754 91.8324 227.578C92.0147 227.399 92.1555 227.177 92.255 226.912L93.3885 227.23C93.2692 227.615 93.0687 227.953 92.7869 228.244C92.5052 228.533 92.1572 228.758 91.7429 228.92C91.3286 229.08 90.8629 229.159 90.3459 229.159ZM102.332 229.159C101.616 229.159 101 228.99 100.483 228.652C99.9659 228.314 99.5682 227.848 99.2898 227.255C99.0114 226.662 98.8722 225.984 98.8722 225.222C98.8722 224.446 99.0147 223.762 99.2997 223.168C99.5881 222.572 99.9891 222.106 100.503 221.771C101.02 221.433 101.623 221.264 102.312 221.264C102.849 221.264 103.333 221.364 103.764 221.562C104.195 221.761 104.548 222.04 104.823 222.398C105.098 222.756 105.269 223.173 105.335 223.651H104.162C104.072 223.303 103.874 222.994 103.565 222.726C103.26 222.454 102.849 222.318 102.332 222.318C101.875 222.318 101.474 222.437 101.129 222.676C100.788 222.911 100.521 223.245 100.329 223.675C100.14 224.103 100.045 224.605 100.045 225.182C100.045 225.772 100.138 226.286 100.324 226.723C100.513 227.161 100.778 227.5 101.119 227.742C101.464 227.984 101.868 228.105 102.332 228.105C102.637 228.105 102.914 228.052 103.163 227.946C103.411 227.84 103.622 227.688 103.794 227.489C103.966 227.29 104.089 227.051 104.162 226.773H105.335C105.269 227.223 105.105 227.629 104.843 227.991C104.585 228.349 104.241 228.634 103.814 228.846C103.39 229.055 102.896 229.159 102.332 229.159ZM109.298 229.179C108.814 229.179 108.375 229.088 107.98 228.906C107.586 228.72 107.272 228.453 107.04 228.105C106.808 227.754 106.692 227.33 106.692 226.832C106.692 226.395 106.779 226.04 106.951 225.768C107.123 225.493 107.354 225.278 107.642 225.122C107.93 224.966 108.249 224.85 108.597 224.774C108.948 224.695 109.301 224.632 109.656 224.585C110.12 224.526 110.496 224.481 110.784 224.451C111.076 224.418 111.288 224.363 111.42 224.287C111.556 224.211 111.624 224.078 111.624 223.889V223.849C111.624 223.359 111.49 222.978 111.222 222.706C110.956 222.434 110.554 222.298 110.013 222.298C109.453 222.298 109.014 222.421 108.696 222.666C108.378 222.911 108.154 223.173 108.025 223.452L106.911 223.054C107.11 222.59 107.375 222.229 107.707 221.97C108.041 221.708 108.406 221.526 108.8 221.423C109.198 221.317 109.589 221.264 109.974 221.264C110.219 221.264 110.501 221.294 110.819 221.354C111.14 221.41 111.45 221.528 111.749 221.707C112.05 221.886 112.3 222.156 112.499 222.517C112.698 222.878 112.798 223.362 112.798 223.969V229H111.624V227.966H111.565C111.485 228.132 111.353 228.309 111.167 228.498C110.981 228.687 110.734 228.848 110.426 228.98C110.118 229.113 109.742 229.179 109.298 229.179ZM109.477 228.125C109.941 228.125 110.332 228.034 110.65 227.852C110.971 227.669 111.213 227.434 111.376 227.146C111.541 226.857 111.624 226.554 111.624 226.236V225.162C111.575 225.222 111.465 225.276 111.296 225.326C111.13 225.372 110.938 225.414 110.719 225.45C110.504 225.483 110.294 225.513 110.088 225.54C109.886 225.563 109.722 225.583 109.596 225.599C109.291 225.639 109.006 225.704 108.741 225.793C108.479 225.879 108.267 226.01 108.104 226.186C107.945 226.358 107.866 226.594 107.866 226.892C107.866 227.3 108.017 227.608 108.318 227.817C108.623 228.022 109.009 228.125 109.477 228.125ZM114.939 229V221.364H116.073V222.517H116.152C116.291 222.139 116.543 221.833 116.908 221.597C117.272 221.362 117.683 221.244 118.141 221.244C118.227 221.244 118.335 221.246 118.464 221.249C118.593 221.253 118.691 221.258 118.757 221.264V222.457C118.718 222.447 118.626 222.433 118.484 222.413C118.345 222.389 118.197 222.378 118.041 222.378C117.67 222.378 117.339 222.456 117.047 222.612C116.759 222.764 116.53 222.976 116.361 223.248C116.195 223.516 116.112 223.823 116.112 224.168V229H114.939ZM122.799 229.159C122.163 229.159 121.601 228.998 121.114 228.677C120.627 228.352 120.245 227.895 119.97 227.305C119.695 226.711 119.558 226.01 119.558 225.202C119.558 224.4 119.695 223.704 119.97 223.114C120.245 222.524 120.628 222.068 121.119 221.746C121.609 221.425 122.176 221.264 122.819 221.264C123.316 221.264 123.709 221.347 123.997 221.513C124.289 221.675 124.511 221.861 124.664 222.07C124.819 222.275 124.94 222.444 125.026 222.577H125.126V218.818H126.299V229H125.166V227.827H125.026C124.94 227.966 124.818 228.142 124.659 228.354C124.499 228.562 124.272 228.75 123.977 228.915C123.682 229.078 123.29 229.159 122.799 229.159ZM122.958 228.105C123.429 228.105 123.827 227.982 124.151 227.737C124.476 227.489 124.723 227.146 124.892 226.708C125.061 226.267 125.146 225.759 125.146 225.182C125.146 224.612 125.063 224.113 124.897 223.685C124.731 223.254 124.486 222.92 124.161 222.681C123.837 222.439 123.436 222.318 122.958 222.318C122.461 222.318 122.047 222.446 121.715 222.701C121.387 222.953 121.14 223.296 120.975 223.73C120.812 224.161 120.731 224.645 120.731 225.182C120.731 225.725 120.814 226.219 120.98 226.663C121.149 227.104 121.397 227.455 121.725 227.717C122.057 227.976 122.468 228.105 122.958 228.105ZM132.708 229V218.818H136.148C136.947 218.818 137.6 218.962 138.107 219.251C138.617 219.536 138.995 219.922 139.24 220.409C139.485 220.896 139.608 221.44 139.608 222.04C139.608 222.64 139.485 223.185 139.24 223.675C138.998 224.166 138.624 224.557 138.117 224.849C137.61 225.137 136.96 225.281 136.168 225.281H133.702V224.188H136.128C136.675 224.188 137.114 224.093 137.445 223.904C137.777 223.715 138.017 223.46 138.166 223.138C138.319 222.814 138.395 222.447 138.395 222.04C138.395 221.632 138.319 221.268 138.166 220.946C138.017 220.625 137.775 220.373 137.441 220.19C137.106 220.005 136.662 219.912 136.108 219.912H133.941V229H132.708ZM141.435 229V221.364H142.569V222.517H142.648C142.787 222.139 143.039 221.833 143.404 221.597C143.769 221.362 144.18 221.244 144.637 221.244C144.723 221.244 144.831 221.246 144.96 221.249C145.089 221.253 145.187 221.258 145.253 221.264V222.457C145.214 222.447 145.122 222.433 144.98 222.413C144.841 222.389 144.693 222.378 144.537 222.378C144.166 222.378 143.835 222.456 143.543 222.612C143.255 222.764 143.026 222.976 142.857 223.248C142.691 223.516 142.608 223.823 142.608 224.168V229H141.435ZM149.613 229.159C148.878 229.159 148.243 228.997 147.709 228.672C147.179 228.344 146.77 227.886 146.481 227.3C146.196 226.71 146.054 226.024 146.054 225.241C146.054 224.459 146.196 223.77 146.481 223.173C146.77 222.573 147.171 222.106 147.684 221.771C148.202 221.433 148.805 221.264 149.494 221.264C149.892 221.264 150.285 221.33 150.672 221.463C151.06 221.596 151.413 221.811 151.731 222.109C152.05 222.404 152.303 222.795 152.492 223.283C152.681 223.77 152.775 224.37 152.775 225.082V225.58H146.889V224.565H151.582C151.582 224.134 151.496 223.75 151.324 223.412C151.155 223.074 150.913 222.807 150.598 222.612C150.286 222.416 149.918 222.318 149.494 222.318C149.027 222.318 148.622 222.434 148.281 222.666C147.943 222.895 147.683 223.193 147.501 223.561C147.318 223.929 147.227 224.323 147.227 224.744V225.42C147.227 225.997 147.327 226.486 147.525 226.887C147.728 227.285 148.008 227.588 148.366 227.797C148.724 228.002 149.14 228.105 149.613 228.105C149.922 228.105 150.2 228.062 150.449 227.976C150.701 227.886 150.918 227.754 151.1 227.578C151.282 227.399 151.423 227.177 151.523 226.912L152.656 227.23C152.537 227.615 152.336 227.953 152.055 228.244C151.773 228.533 151.425 228.758 151.01 228.92C150.596 229.08 150.131 229.159 149.613 229.159ZM158.935 224.088V225.182H154.481V224.088H158.935ZM164.102 229.159C163.386 229.159 162.77 228.99 162.252 228.652C161.735 228.314 161.338 227.848 161.059 227.255C160.781 226.662 160.642 225.984 160.642 225.222C160.642 224.446 160.784 223.762 161.069 223.168C161.358 222.572 161.759 222.106 162.272 221.771C162.789 221.433 163.393 221.264 164.082 221.264C164.619 221.264 165.103 221.364 165.534 221.562C165.965 221.761 166.318 222.04 166.593 222.398C166.868 222.756 167.038 223.173 167.105 223.651H165.931C165.842 223.303 165.643 222.994 165.335 222.726C165.03 222.454 164.619 222.318 164.102 222.318C163.645 222.318 163.243 222.437 162.899 222.676C162.557 222.911 162.291 223.245 162.098 223.675C161.909 224.103 161.815 224.605 161.815 225.182C161.815 225.772 161.908 226.286 162.093 226.723C162.282 227.161 162.547 227.5 162.889 227.742C163.234 227.984 163.638 228.105 164.102 228.105C164.407 228.105 164.684 228.052 164.932 227.946C165.181 227.84 165.391 227.688 165.564 227.489C165.736 227.29 165.859 227.051 165.931 226.773H167.105C167.038 227.223 166.874 227.629 166.613 227.991C166.354 228.349 166.011 228.634 165.583 228.846C165.159 229.055 164.665 229.159 164.102 229.159ZM169.993 218.818V229H168.82V218.818H169.993ZM175.244 229.159C174.555 229.159 173.95 228.995 173.43 228.667C172.913 228.339 172.508 227.88 172.217 227.29C171.928 226.7 171.784 226.01 171.784 225.222C171.784 224.426 171.928 223.732 172.217 223.138C172.508 222.545 172.913 222.085 173.43 221.756C173.95 221.428 174.555 221.264 175.244 221.264C175.934 221.264 176.537 221.428 177.054 221.756C177.575 222.085 177.979 222.545 178.267 223.138C178.559 223.732 178.705 224.426 178.705 225.222C178.705 226.01 178.559 226.7 178.267 227.29C177.979 227.88 177.575 228.339 177.054 228.667C176.537 228.995 175.934 229.159 175.244 229.159ZM175.244 228.105C175.768 228.105 176.199 227.971 176.537 227.702C176.875 227.434 177.125 227.081 177.288 226.643C177.45 226.206 177.531 225.732 177.531 225.222C177.531 224.711 177.45 224.236 177.288 223.795C177.125 223.354 176.875 222.998 176.537 222.726C176.199 222.454 175.768 222.318 175.244 222.318C174.721 222.318 174.29 222.454 173.952 222.726C173.614 222.998 173.364 223.354 173.201 223.795C173.039 224.236 172.958 224.711 172.958 225.222C172.958 225.732 173.039 226.206 173.201 226.643C173.364 227.081 173.614 227.434 173.952 227.702C174.29 227.971 174.721 228.105 175.244 228.105ZM185.905 223.074L184.851 223.372C184.785 223.196 184.687 223.026 184.558 222.86C184.432 222.691 184.259 222.552 184.04 222.442C183.822 222.333 183.542 222.278 183.2 222.278C182.733 222.278 182.344 222.386 182.032 222.602C181.724 222.814 181.57 223.084 181.57 223.412C181.57 223.704 181.676 223.934 181.888 224.103C182.1 224.272 182.431 224.413 182.882 224.526L184.016 224.804C184.698 224.97 185.207 225.223 185.542 225.565C185.877 225.903 186.044 226.339 186.044 226.872C186.044 227.31 185.918 227.701 185.666 228.045C185.418 228.39 185.07 228.662 184.622 228.861C184.175 229.06 183.654 229.159 183.061 229.159C182.282 229.159 181.638 228.99 181.127 228.652C180.617 228.314 180.294 227.82 180.158 227.17L181.271 226.892C181.377 227.303 181.578 227.611 181.873 227.817C182.171 228.022 182.561 228.125 183.041 228.125C183.588 228.125 184.022 228.009 184.344 227.777C184.669 227.542 184.831 227.26 184.831 226.932C184.831 226.667 184.738 226.445 184.553 226.266C184.367 226.083 184.082 225.947 183.697 225.858L182.425 225.56C181.725 225.394 181.212 225.137 180.884 224.789C180.559 224.438 180.396 223.999 180.396 223.472C180.396 223.041 180.517 222.66 180.759 222.328C181.004 221.997 181.338 221.737 181.759 221.548C182.183 221.359 182.663 221.264 183.2 221.264C183.956 221.264 184.549 221.43 184.98 221.761C185.414 222.093 185.723 222.53 185.905 223.074ZM191.012 229.159C190.276 229.159 189.641 228.997 189.108 228.672C188.577 228.344 188.168 227.886 187.88 227.3C187.595 226.71 187.452 226.024 187.452 225.241C187.452 224.459 187.595 223.77 187.88 223.173C188.168 222.573 188.569 222.106 189.083 221.771C189.6 221.433 190.203 221.264 190.893 221.264C191.29 221.264 191.683 221.33 192.071 221.463C192.459 221.596 192.812 221.811 193.13 222.109C193.448 222.404 193.702 222.795 193.89 223.283C194.079 223.77 194.174 224.37 194.174 225.082V225.58H188.287V224.565H192.981C192.981 224.134 192.894 223.75 192.722 223.412C192.553 223.074 192.311 222.807 191.996 222.612C191.685 222.416 191.317 222.318 190.893 222.318C190.425 222.318 190.021 222.434 189.68 222.666C189.341 222.895 189.081 223.193 188.899 223.561C188.717 223.929 188.626 224.323 188.626 224.744V225.42C188.626 225.997 188.725 226.486 188.924 226.887C189.126 227.285 189.406 227.588 189.764 227.797C190.122 228.002 190.538 228.105 191.012 228.105C191.32 228.105 191.599 228.062 191.847 227.976C192.099 227.886 192.316 227.754 192.498 227.578C192.681 227.399 192.822 227.177 192.921 226.912L194.055 227.23C193.935 227.615 193.735 227.953 193.453 228.244C193.171 228.533 192.823 228.758 192.409 228.92C191.995 229.08 191.529 229.159 191.012 229.159ZM202.998 229.159C202.282 229.159 201.666 228.99 201.149 228.652C200.632 228.314 200.234 227.848 199.956 227.255C199.677 226.662 199.538 225.984 199.538 225.222C199.538 224.446 199.681 223.762 199.966 223.168C200.254 222.572 200.655 222.106 201.169 221.771C201.686 221.433 202.289 221.264 202.979 221.264C203.515 221.264 203.999 221.364 204.43 221.562C204.861 221.761 205.214 222.04 205.489 222.398C205.764 222.756 205.935 223.173 206.001 223.651H204.828C204.738 223.303 204.54 222.994 204.231 222.726C203.926 222.454 203.515 222.318 202.998 222.318C202.541 222.318 202.14 222.437 201.795 222.676C201.454 222.911 201.187 223.245 200.995 223.675C200.806 224.103 200.711 224.605 200.711 225.182C200.711 225.772 200.804 226.286 200.99 226.723C201.179 227.161 201.444 227.5 201.785 227.742C202.13 227.984 202.534 228.105 202.998 228.105C203.303 228.105 203.58 228.052 203.829 227.946C204.077 227.84 204.288 227.688 204.46 227.489C204.632 227.29 204.755 227.051 204.828 226.773H206.001C205.935 227.223 205.771 227.629 205.509 227.991C205.251 228.349 204.907 228.634 204.48 228.846C204.056 229.055 203.562 229.159 202.998 229.159ZM207.716 229V221.364H208.85V222.517H208.93C209.069 222.139 209.321 221.833 209.685 221.597C210.05 221.362 210.461 221.244 210.918 221.244C211.004 221.244 211.112 221.246 211.241 221.249C211.371 221.253 211.468 221.258 211.535 221.264V222.457C211.495 222.447 211.404 222.433 211.261 222.413C211.122 222.389 210.974 222.378 210.819 222.378C210.448 222.378 210.116 222.456 209.824 222.612C209.536 222.764 209.307 222.976 209.138 223.248C208.973 223.516 208.89 223.823 208.89 224.168V229H207.716ZM215.895 229.159C215.159 229.159 214.524 228.997 213.991 228.672C213.46 228.344 213.051 227.886 212.763 227.3C212.478 226.71 212.335 226.024 212.335 225.241C212.335 224.459 212.478 223.77 212.763 223.173C213.051 222.573 213.452 222.106 213.966 221.771C214.483 221.433 215.086 221.264 215.775 221.264C216.173 221.264 216.566 221.33 216.954 221.463C217.341 221.596 217.694 221.811 218.013 222.109C218.331 222.404 218.584 222.795 218.773 223.283C218.962 223.77 219.057 224.37 219.057 225.082V225.58H213.17V224.565H217.863C217.863 224.134 217.777 223.75 217.605 223.412C217.436 223.074 217.194 222.807 216.879 222.612C216.568 222.416 216.2 222.318 215.775 222.318C215.308 222.318 214.904 222.434 214.562 222.666C214.224 222.895 213.964 223.193 213.782 223.561C213.599 223.929 213.508 224.323 213.508 224.744V225.42C213.508 225.997 213.608 226.486 213.807 226.887C214.009 227.285 214.289 227.588 214.647 227.797C215.005 228.002 215.421 228.105 215.895 228.105C216.203 228.105 216.481 228.062 216.73 227.976C216.982 227.886 217.199 227.754 217.381 227.578C217.564 227.399 217.704 227.177 217.804 226.912L218.937 227.23C218.818 227.615 218.617 227.953 218.336 228.244C218.054 228.533 217.706 228.758 217.292 228.92C216.877 229.08 216.412 229.159 215.895 229.159ZM223.725 229.159C223.089 229.159 222.527 228.998 222.04 228.677C221.552 228.352 221.171 227.895 220.896 227.305C220.621 226.711 220.483 226.01 220.483 225.202C220.483 224.4 220.621 223.704 220.896 223.114C221.171 222.524 221.554 222.068 222.045 221.746C222.535 221.425 223.102 221.264 223.745 221.264C224.242 221.264 224.635 221.347 224.923 221.513C225.215 221.675 225.437 221.861 225.589 222.07C225.745 222.275 225.866 222.444 225.952 222.577H226.052V218.818H227.225V229H226.091V227.827H225.952C225.866 227.966 225.743 228.142 225.584 228.354C225.425 228.562 225.198 228.75 224.903 228.915C224.608 229.078 224.215 229.159 223.725 229.159ZM223.884 228.105C224.355 228.105 224.752 227.982 225.077 227.737C225.402 227.489 225.649 227.146 225.818 226.708C225.987 226.267 226.072 225.759 226.072 225.182C226.072 224.612 225.989 224.113 225.823 223.685C225.657 223.254 225.412 222.92 225.087 222.681C224.762 222.439 224.361 222.318 223.884 222.318C223.387 222.318 222.973 222.446 222.641 222.701C222.313 222.953 222.066 223.296 221.9 223.73C221.738 224.161 221.657 224.645 221.657 225.182C221.657 225.725 221.74 226.219 221.905 226.663C222.074 227.104 222.323 227.455 222.651 227.717C222.983 227.976 223.394 228.105 223.884 228.105ZM229.537 229V221.364H230.71V229H229.537ZM230.133 220.091C229.905 220.091 229.707 220.013 229.542 219.857C229.379 219.701 229.298 219.514 229.298 219.295C229.298 219.077 229.379 218.889 229.542 218.734C229.707 218.578 229.905 218.5 230.133 218.5C230.362 218.5 230.558 218.578 230.72 218.734C230.886 218.889 230.969 219.077 230.969 219.295C230.969 219.514 230.886 219.701 230.72 219.857C230.558 220.013 230.362 220.091 230.133 220.091ZM236.18 221.364V222.358H232.223V221.364H236.18ZM233.376 219.534H234.549V226.812C234.549 227.144 234.597 227.393 234.694 227.558C234.793 227.721 234.919 227.83 235.071 227.886C235.227 227.939 235.391 227.966 235.564 227.966C235.693 227.966 235.799 227.959 235.882 227.946C235.965 227.929 236.031 227.916 236.081 227.906L236.319 228.96C236.24 228.99 236.129 229.02 235.986 229.05C235.844 229.083 235.663 229.099 235.444 229.099C235.113 229.099 234.788 229.028 234.47 228.886C234.155 228.743 233.893 228.526 233.684 228.234C233.479 227.943 233.376 227.575 233.376 227.131V219.534ZM244.985 229.159C244.269 229.159 243.652 228.99 243.135 228.652C242.618 228.314 242.221 227.848 241.942 227.255C241.664 226.662 241.525 225.984 241.525 225.222C241.525 224.446 241.667 223.762 241.952 223.168C242.24 222.572 242.641 222.106 243.155 221.771C243.672 221.433 244.275 221.264 244.965 221.264C245.502 221.264 245.986 221.364 246.417 221.562C246.847 221.761 247.2 222.04 247.475 222.398C247.751 222.756 247.921 223.173 247.988 223.651H246.814C246.725 223.303 246.526 222.994 246.218 222.726C245.913 222.454 245.502 222.318 244.985 222.318C244.527 222.318 244.126 222.437 243.782 222.676C243.44 222.911 243.173 223.245 242.981 223.675C242.792 224.103 242.698 224.605 242.698 225.182C242.698 225.772 242.791 226.286 242.976 226.723C243.165 227.161 243.43 227.5 243.772 227.742C244.116 227.984 244.521 228.105 244.985 228.105C245.29 228.105 245.566 228.052 245.815 227.946C246.064 227.84 246.274 227.688 246.446 227.489C246.619 227.29 246.741 227.051 246.814 226.773H247.988C247.921 227.223 247.757 227.629 247.495 227.991C247.237 228.349 246.894 228.634 246.466 228.846C246.042 229.055 245.548 229.159 244.985 229.159ZM251.95 229.179C251.466 229.179 251.027 229.088 250.632 228.906C250.238 228.72 249.925 228.453 249.693 228.105C249.461 227.754 249.345 227.33 249.345 226.832C249.345 226.395 249.431 226.04 249.603 225.768C249.776 225.493 250.006 225.278 250.294 225.122C250.583 224.966 250.901 224.85 251.249 224.774C251.6 224.695 251.953 224.632 252.308 224.585C252.772 224.526 253.148 224.481 253.436 224.451C253.728 224.418 253.94 224.363 254.073 224.287C254.209 224.211 254.277 224.078 254.277 223.889V223.849C254.277 223.359 254.142 222.978 253.874 222.706C253.609 222.434 253.206 222.298 252.666 222.298C252.106 222.298 251.667 222.421 251.348 222.666C251.03 222.911 250.806 223.173 250.677 223.452L249.564 223.054C249.762 222.59 250.028 222.229 250.359 221.97C250.694 221.708 251.058 221.526 251.453 221.423C251.85 221.317 252.242 221.264 252.626 221.264C252.871 221.264 253.153 221.294 253.471 221.354C253.793 221.41 254.103 221.528 254.401 221.707C254.703 221.886 254.953 222.156 255.152 222.517C255.35 222.878 255.45 223.362 255.45 223.969V229H254.277V227.966H254.217C254.137 228.132 254.005 228.309 253.819 228.498C253.634 228.687 253.387 228.848 253.078 228.98C252.77 229.113 252.394 229.179 251.95 229.179ZM252.129 228.125C252.593 228.125 252.984 228.034 253.302 227.852C253.624 227.669 253.866 227.434 254.028 227.146C254.194 226.857 254.277 226.554 254.277 226.236V225.162C254.227 225.222 254.118 225.276 253.949 225.326C253.783 225.372 253.591 225.414 253.372 225.45C253.156 225.483 252.946 225.513 252.74 225.54C252.538 225.563 252.374 225.583 252.248 225.599C251.943 225.639 251.658 225.704 251.393 225.793C251.131 225.879 250.919 226.01 250.757 226.186C250.598 226.358 250.518 226.594 250.518 226.892C250.518 227.3 250.669 227.608 250.971 227.817C251.275 228.022 251.662 228.125 252.129 228.125ZM257.591 229V221.364H258.725V222.517H258.805C258.944 222.139 259.196 221.833 259.56 221.597C259.925 221.362 260.336 221.244 260.793 221.244C260.879 221.244 260.987 221.246 261.116 221.249C261.246 221.253 261.343 221.258 261.41 221.264V222.457C261.37 222.447 261.279 222.433 261.136 222.413C260.997 222.389 260.849 222.378 260.694 222.378C260.323 222.378 259.991 222.456 259.699 222.612C259.411 222.764 259.182 222.976 259.013 223.248C258.848 223.516 258.765 223.823 258.765 224.168V229H257.591ZM265.452 229.159C264.815 229.159 264.253 228.998 263.766 228.677C263.279 228.352 262.898 227.895 262.623 227.305C262.348 226.711 262.21 226.01 262.21 225.202C262.21 224.4 262.348 223.704 262.623 223.114C262.898 222.524 263.281 222.068 263.771 221.746C264.262 221.425 264.828 221.264 265.471 221.264C265.969 221.264 266.361 221.347 266.65 221.513C266.941 221.675 267.163 221.861 267.316 222.07C267.472 222.275 267.593 222.444 267.679 222.577H267.778V218.818H268.952V229H267.818V227.827H267.679C267.593 227.966 267.47 228.142 267.311 228.354C267.152 228.562 266.925 228.75 266.63 228.915C266.335 229.078 265.942 229.159 265.452 229.159ZM265.611 228.105C266.081 228.105 266.479 227.982 266.804 227.737C267.129 227.489 267.376 227.146 267.545 226.708C267.714 226.267 267.798 225.759 267.798 225.182C267.798 224.612 267.715 224.113 267.55 223.685C267.384 223.254 267.139 222.92 266.814 222.681C266.489 222.439 266.088 222.318 265.611 222.318C265.113 222.318 264.699 222.446 264.368 222.701C264.04 222.953 263.793 223.296 263.627 223.73C263.465 224.161 263.383 224.645 263.383 225.182C263.383 225.725 263.466 226.219 263.632 226.663C263.801 227.104 264.05 227.455 264.378 227.717C264.709 227.976 265.12 228.105 265.611 228.105ZM276.374 218.818V229H275.201V218.818H276.374ZM281.625 229.159C280.936 229.159 280.331 228.995 279.811 228.667C279.294 228.339 278.889 227.88 278.598 227.29C278.309 226.7 278.165 226.01 278.165 225.222C278.165 224.426 278.309 223.732 278.598 223.138C278.889 222.545 279.294 222.085 279.811 221.756C280.331 221.428 280.936 221.264 281.625 221.264C282.315 221.264 282.918 221.428 283.435 221.756C283.955 222.085 284.36 222.545 284.648 223.138C284.94 223.732 285.086 224.426 285.086 225.222C285.086 226.01 284.94 226.7 284.648 227.29C284.36 227.88 283.955 228.339 283.435 228.667C282.918 228.995 282.315 229.159 281.625 229.159ZM281.625 228.105C282.149 228.105 282.58 227.971 282.918 227.702C283.256 227.434 283.506 227.081 283.669 226.643C283.831 226.206 283.912 225.732 283.912 225.222C283.912 224.711 283.831 224.236 283.669 223.795C283.506 223.354 283.256 222.998 282.918 222.726C282.58 222.454 282.149 222.318 281.625 222.318C281.102 222.318 280.671 222.454 280.333 222.726C279.995 222.998 279.744 223.354 279.582 223.795C279.42 224.236 279.338 224.711 279.338 225.222C279.338 225.732 279.42 226.206 279.582 226.643C279.744 227.081 279.995 227.434 280.333 227.702C280.671 227.971 281.102 228.105 281.625 228.105ZM289.979 229.159C289.263 229.159 288.646 228.99 288.129 228.652C287.612 228.314 287.215 227.848 286.936 227.255C286.658 226.662 286.519 225.984 286.519 225.222C286.519 224.446 286.661 223.762 286.946 223.168C287.235 222.572 287.636 222.106 288.149 221.771C288.666 221.433 289.27 221.264 289.959 221.264C290.496 221.264 290.98 221.364 291.411 221.562C291.842 221.761 292.195 222.04 292.47 222.398C292.745 222.756 292.915 223.173 292.982 223.651H291.808C291.719 223.303 291.52 222.994 291.212 222.726C290.907 222.454 290.496 222.318 289.979 222.318C289.521 222.318 289.12 222.437 288.776 222.676C288.434 222.911 288.168 223.245 287.975 223.675C287.786 224.103 287.692 224.605 287.692 225.182C287.692 225.772 287.785 226.286 287.97 226.723C288.159 227.161 288.424 227.5 288.766 227.742C289.11 227.984 289.515 228.105 289.979 228.105C290.284 228.105 290.561 228.052 290.809 227.946C291.058 227.84 291.268 227.688 291.441 227.489C291.613 227.29 291.735 227.051 291.808 226.773H292.982C292.915 227.223 292.751 227.629 292.49 227.991C292.231 228.349 291.888 228.634 291.46 228.846C291.036 229.055 290.542 229.159 289.979 229.159Z" fill="white"/>
</svg>