<svg width="328" height="234" viewBox="0 0 328 234" fill="none" xmlns="http://www.w3.org/2000/svg">
<path opacity="0.45" d="M225.779 140.325H101.197C90.2946 140.325 81.8339 130.774 83.1627 119.952L92.8158 40.9776C93.9969 31.3017 102.605 24.2834 112.326 25.067L224.814 34.2204C234.001 34.9699 241.179 42.4767 241.497 51.6983L243.938 121.53C244.302 131.808 236.057 140.337 225.779 140.337V140.325Z" fill="#007AFF"/>
<path d="M185.361 128.594H218.363C221.872 128.594 224.632 125.619 224.371 122.121L218.817 46.8831H193.208L185.349 128.583L185.361 128.594Z" fill="#196AE0"/>
<path d="M185.361 128.594H209.585L209.278 46.8944H193.22L185.361 128.594Z" fill="#1C3FCA"/>
<path d="M195.888 54.0491C194.946 54.0491 194.185 53.2882 194.185 52.3456V41.6817C194.185 34.8337 188.609 29.2576 181.761 29.2576C174.913 29.2576 169.337 34.8337 169.337 41.6817V52.3456C169.337 53.2882 168.576 54.0491 167.633 54.0491C166.691 54.0491 165.93 53.2882 165.93 52.3456V41.6817C165.93 32.9485 173.028 25.8506 181.761 25.8506C190.494 25.8506 197.592 32.9485 197.592 41.6817V52.3456C197.592 53.2882 196.831 54.0491 195.888 54.0491Z" fill="#196AE0"/>
<path d="M202.214 128.594H141.468C137.958 128.594 135.199 125.619 135.46 122.121L141.013 46.8831H200.011L194.458 122.121C194.196 125.619 196.967 128.594 200.465 128.594H202.214V128.594Z" fill="#3395FF"/>
<path d="M155.118 56.2409C156.73 56.2409 158.037 54.9342 158.037 53.3223C158.037 51.7104 156.73 50.4036 155.118 50.4036C153.507 50.4036 152.2 51.7104 152.2 53.3223C152.2 54.9342 153.507 56.2409 155.118 56.2409Z" fill="#1C3FCA"/>
<path d="M183.374 56.2409C184.986 56.2409 186.292 54.9342 186.292 53.3223C186.292 51.7104 184.986 50.4036 183.374 50.4036C181.762 50.4036 180.455 51.7104 180.455 53.3223C180.455 54.9342 181.762 56.2409 183.374 56.2409Z" fill="#1C3FCA"/>
<path d="M183.374 54.81C182.431 54.81 181.67 54.0491 181.67 53.1065V41.6817C181.67 34.8337 176.094 29.2576 169.246 29.2576C162.398 29.2576 156.822 34.8337 156.822 41.6817V53.1065C156.822 54.0491 156.061 54.81 155.118 54.81C154.176 54.81 153.415 54.0491 153.415 53.1065V41.6817C153.415 32.9485 160.513 25.8506 169.246 25.8506C177.979 25.8506 185.077 32.9485 185.077 41.6817V53.1065C185.077 54.0491 184.316 54.81 183.374 54.81Z" fill="#1FC994"/>
<path d="M168.099 80.2261H112.633C111.725 80.2261 110.998 80.9643 110.998 81.8615V88.5846C110.998 89.4931 111.736 90.22 112.633 90.22H112.69V126.947C112.69 127.856 113.428 128.583 114.325 128.583H166.395C167.304 128.583 168.031 127.844 168.031 126.947V90.2313H168.088C168.996 90.2313 169.723 89.4931 169.723 88.596V81.8728C169.723 80.9643 168.985 80.2375 168.088 80.2375L168.099 80.2261Z" fill="#5D49D6"/>
<path d="M101.322 89.5726H156.674V126.959C156.674 127.867 155.936 128.594 155.038 128.594H102.968C102.06 128.594 101.333 127.856 101.333 126.959V89.5726H101.322Z" fill="#8262F9"/>
<path d="M156.674 90.2313H101.322V93.7405H156.674V90.2313Z" fill="#5D49D6"/>
<path d="M128.998 74.3094C128.998 74.3094 122.275 63.566 113.996 66.2802C109.965 67.5976 108.852 71.3907 108.784 74.7523C108.727 77.7504 111.123 80.2262 114.133 80.2262H129.01V74.3207L128.998 74.3094Z" fill="#EA7FE0"/>
<path d="M126.045 79.8855C117.46 69.0853 109.476 71.4929 108.806 74.0709C108.76 74.7409 108.76 75.411 108.806 76.047C108.931 78.3864 110.861 80.2148 113.212 80.2148H126.306C126.227 80.1013 126.147 79.9991 126.057 79.8855H126.045Z" fill="#CC4EC0"/>
<path d="M137.857 74.3094C137.857 74.3094 144.58 63.566 152.859 66.2802C156.891 67.5976 158.003 71.3907 158.072 74.7523C158.128 77.7504 155.732 80.2262 152.723 80.2262H137.845V74.3207L137.857 74.3094Z" fill="#EA7FE0"/>
<path d="M140.809 79.8855C149.395 69.0853 157.379 71.4929 158.049 74.0709C158.094 74.7409 158.094 75.411 158.049 76.047C157.924 78.3864 155.993 80.2148 153.642 80.2148H140.548C140.628 80.1013 140.707 79.9991 140.798 79.8855H140.809Z" fill="#CC4EC0"/>
<path d="M137.857 74.3094H128.999V80.2148H137.857V74.3094Z" fill="#CC4EC0"/>
<path d="M156.742 80.2261H101.265C100.362 80.2261 99.6298 80.9583 99.6298 81.8615V88.596C99.6298 89.4992 100.362 90.2313 101.265 90.2313H156.742C157.645 90.2313 158.378 89.4992 158.378 88.596V81.8615C158.378 80.9583 157.645 80.2261 156.742 80.2261Z" fill="#8262F9"/>
<path d="M132.689 90.2313H125.296V93.7405H132.689V90.2313Z" fill="#86C2EA"/>
<path d="M102.378 84.7234C102.993 84.7234 103.491 84.2251 103.491 83.6105C103.491 82.9958 102.993 82.4975 102.378 82.4975C101.763 82.4975 101.265 82.9958 101.265 83.6105C101.265 84.2251 101.763 84.7234 102.378 84.7234Z" fill="#9787F9"/>
<path d="M155.118 85.0527C155.733 85.0527 156.231 84.5544 156.231 83.9397C156.231 83.3251 155.733 82.8268 155.118 82.8268C154.504 82.8268 154.005 83.3251 154.005 83.9397C154.005 84.5544 154.504 85.0527 155.118 85.0527Z" fill="#9787F9"/>
<path d="M114.462 88.9821C115.076 88.9821 115.575 88.4838 115.575 87.8692C115.575 87.2545 115.076 86.7562 114.462 86.7562C113.847 86.7562 113.349 87.2545 113.349 87.8692C113.349 88.4838 113.847 88.9821 114.462 88.9821Z" fill="#9787F9"/>
<path d="M139.241 88.2439C139.856 88.2439 140.354 87.7456 140.354 87.131C140.354 86.5163 139.856 86.018 139.241 86.018C138.627 86.018 138.128 86.5163 138.128 87.131C138.128 87.7456 138.627 88.2439 139.241 88.2439Z" fill="#9787F9"/>
<path d="M124.569 85.0527C125.183 85.0527 125.682 84.5544 125.682 83.9397C125.682 83.3251 125.183 82.8268 124.569 82.8268C123.954 82.8268 123.456 83.3251 123.456 83.9397C123.456 84.5544 123.954 85.0527 124.569 85.0527Z" fill="#9787F9"/>
<path d="M118.402 100.986C119.017 100.986 119.515 100.488 119.515 99.8731C119.515 99.2585 119.017 98.7602 118.402 98.7602C117.788 98.7602 117.289 99.2585 117.289 99.8731C117.289 100.488 117.788 100.986 118.402 100.986Z" fill="#9787F9"/>
<path d="M148.974 124.381C149.589 124.381 150.087 123.882 150.087 123.268C150.087 122.653 149.589 122.155 148.974 122.155C148.359 122.155 147.861 122.653 147.861 123.268C147.861 123.882 148.359 124.381 148.974 124.381Z" fill="#9787F9"/>
<path d="M139.241 99.8732C139.856 99.8732 140.354 99.3749 140.354 98.7602C140.354 98.1456 139.856 97.6473 139.241 97.6473C138.627 97.6473 138.128 98.1456 138.128 98.7602C138.128 99.3749 138.627 99.8732 139.241 99.8732Z" fill="#9787F9"/>
<path d="M151.212 103.337C151.826 103.337 152.324 102.839 152.324 102.224C152.324 101.609 151.826 101.111 151.212 101.111C150.597 101.111 150.099 101.609 150.099 102.224C150.099 102.839 150.597 103.337 151.212 103.337Z" fill="#9787F9"/>
<path d="M106.012 108.777C106.626 108.777 107.125 108.278 107.125 107.664C107.125 107.049 106.626 106.551 106.012 106.551C105.397 106.551 104.899 107.049 104.899 107.664C104.899 108.278 105.397 108.777 106.012 108.777Z" fill="#9787F9"/>
<path d="M107.125 124.381C107.74 124.381 108.238 123.882 108.238 123.268C108.238 122.653 107.74 122.155 107.125 122.155C106.51 122.155 106.012 122.653 106.012 123.268C106.012 123.882 106.51 124.381 107.125 124.381Z" fill="#9787F9"/>
<path d="M121.264 116.795C121.879 116.795 122.377 116.296 122.377 115.682C122.377 115.067 121.879 114.569 121.264 114.569C120.649 114.569 120.151 115.067 120.151 115.682C120.151 116.296 120.649 116.795 121.264 116.795Z" fill="#9787F9"/>
<path d="M139.241 114.557C139.856 114.557 140.354 114.059 140.354 113.444C140.354 112.83 139.856 112.331 139.241 112.331C138.627 112.331 138.128 112.83 138.128 113.444C138.128 114.059 138.627 114.557 139.241 114.557Z" fill="#9787F9"/>
<path d="M132.7 126.618C133.315 126.618 133.813 126.12 133.813 125.505C133.813 124.89 133.315 124.392 132.7 124.392C132.085 124.392 131.587 124.89 131.587 125.505C131.587 126.12 132.085 126.618 132.7 126.618Z" fill="#9787F9"/>
<path d="M133.427 80.2261H124.569V90.2313H133.427V80.2261Z" fill="#EA7FE0"/>
<path d="M132.689 90.2313H125.296V128.605H132.689V90.2313Z" fill="#EA7FE0"/>
<path d="M132.689 90.2313H125.296V93.7405H132.689V90.2313Z" fill="#CC4EC0"/>
<path d="M115.461 28.9509H113.451V29.1781C109.408 30.0866 106.376 33.7094 106.376 38.0249C106.376 42.3404 109.397 45.9632 113.451 46.8717V47.0988H115.461C120.469 47.0988 124.535 43.0331 124.535 38.0249C124.535 33.0166 120.469 28.9509 115.461 28.9509V28.9509Z" fill="#FF9D00"/>
<path d="M113.462 47.1104C118.473 47.1104 122.536 43.0479 122.536 38.0365C122.536 33.0251 118.473 28.9625 113.462 28.9625C108.451 28.9625 104.388 33.0251 104.388 38.0365C104.388 43.0479 108.451 47.1104 113.462 47.1104Z" fill="#FFCC4D"/>
<path d="M113.462 45.2023C109.51 45.2023 106.296 41.9884 106.296 38.0363C106.296 34.0842 109.51 30.8702 113.462 30.8702C117.414 30.8702 120.628 34.0842 120.628 38.0363C120.628 41.9884 117.414 45.2023 113.462 45.2023ZM113.462 31.4381C109.828 31.4381 106.864 34.4022 106.864 38.0363C106.864 41.6704 109.828 44.6345 113.462 44.6345C117.096 44.6345 120.06 41.6704 120.06 38.0363C120.06 34.4022 117.096 31.4381 113.462 31.4381V31.4381Z" fill="#FF9D00"/>
<path d="M216.205 103.939L216.523 103.325C215.354 101.747 214.831 99.4074 215.229 96.6364C216.046 90.9695 220.43 85.7 224.995 84.8482C225.359 84.7801 225.722 84.746 226.063 84.7347L226.313 84.2463L228.414 85.1776C230.958 86.3132 232.377 89.4704 231.787 93.5588C230.969 99.2257 226.585 104.495 222.02 105.347C220.782 105.574 219.658 105.461 218.692 105.052L216.205 103.939V103.939Z" fill="#FF9D00"/>
<path d="M227.805 97.6362C230.715 92.2574 230.135 86.3076 226.511 84.3471C222.886 82.3865 217.59 85.1575 214.68 90.5363C211.771 95.9151 212.35 101.865 215.975 103.825C219.599 105.786 224.896 103.015 227.805 97.6362Z" fill="#FFCC4D"/>
<path d="M218.602 102.803C217.648 102.803 216.819 102.485 216.137 101.849C214.797 100.589 214.309 98.3059 214.808 95.5689C215.672 90.9013 219.203 86.3928 222.69 85.5183C224.121 85.1549 225.393 85.4388 226.335 86.3246C227.676 87.5852 228.164 89.8679 227.653 92.6048C226.79 97.2724 223.258 101.781 219.771 102.655C219.362 102.758 218.965 102.814 218.59 102.814L218.602 102.803ZM215.376 95.6711C214.922 98.1696 215.342 100.327 216.523 101.429C217.318 102.178 218.397 102.406 219.646 102.099C222.94 101.27 226.279 96.9658 227.108 92.4913C227.562 89.9928 227.142 87.8464 225.961 86.7335C225.166 85.9839 224.087 85.7568 222.838 86.0634C219.544 86.8924 216.205 91.1966 215.376 95.6711V95.6711Z" fill="#FF9D00"/>
<path d="M120.923 53.4586L118.834 53.9582C118.436 54.0491 118.436 54.6169 118.834 54.7078L120.923 55.2075C122.298 55.5368 123.365 56.6043 123.695 57.9785L124.194 60.0681C124.285 60.4656 124.853 60.4656 124.944 60.0681L125.443 57.9785C125.773 56.6043 126.84 55.5368 128.214 55.2075L130.304 54.7078C130.702 54.6169 130.702 54.0491 130.304 53.9582L128.214 53.4586C126.84 53.1292 125.773 52.0617 125.443 50.6875L124.944 48.5979C124.853 48.2004 124.285 48.2004 124.194 48.5979L123.695 50.6875C123.365 52.0617 122.298 53.1292 120.923 53.4586Z" fill="white"/>
<path d="M177.479 79.6696C176.957 79.6696 176.491 79.3176 176.366 78.7952C176.366 78.7611 176.082 77.7276 175.253 77.3074C174.697 77.0235 173.947 77.0576 173.027 77.421C172.437 77.6595 171.778 77.3642 171.54 76.7737C171.313 76.1831 171.597 75.5245 172.187 75.286C173.766 74.6614 175.162 74.6614 176.332 75.286C178.058 76.1945 178.547 78.057 178.592 78.2614C178.74 78.8747 178.354 79.4993 177.74 79.6356C177.65 79.6583 177.559 79.6696 177.479 79.6696V79.6696Z" fill="#FFCC4D"/>
<path d="M232.468 64.4518C232.264 64.4518 232.06 64.395 231.878 64.2814L225.382 60.2839C225.03 60.0681 224.814 59.6706 224.848 59.2504C224.882 58.8302 225.121 58.4668 225.495 58.2851L232.037 55.2075C232.389 55.0371 232.798 55.0712 233.127 55.2756C233.456 55.48 233.65 55.8434 233.65 56.2409L233.604 63.3161C233.604 63.7249 233.377 64.0997 233.025 64.3041C232.855 64.395 232.661 64.4518 232.468 64.4518ZM228.357 59.4548L231.344 61.2946L231.367 58.0353L228.357 59.4548V59.4548Z" fill="#EA7FE0"/>
<path d="M91.5099 66.6663C90.2494 66.6663 89.0683 66.178 88.1597 65.4284C86.3313 63.918 85.1957 60.9653 87.0468 58.058C87.3875 57.5242 88.0916 57.3766 88.614 57.7059C89.1478 58.0466 89.2954 58.7507 88.9661 59.2731C87.8531 61.0221 88.4891 62.7369 89.6134 63.6682C90.5787 64.4631 92.1119 64.8379 93.5314 63.4978C93.9857 63.0662 94.7125 63.089 95.1327 63.5432C95.5643 63.9975 95.5416 64.7243 95.0873 65.1445C93.9516 66.212 92.7024 66.6549 91.5099 66.6549V66.6663Z" fill="#8262F9"/>
<path d="M138.288 37.0142C138.049 37.0142 137.811 36.9461 137.606 36.7871C137.141 36.4464 137.016 35.8104 137.288 35.3221C137.311 35.1176 137.266 34.652 137.231 34.334C137.118 33.2097 136.97 31.8129 137.992 31.086C139.003 30.3706 140.048 30.1662 140.82 30.0072C141.07 29.9617 141.411 29.8936 141.57 29.8255C141.57 29.7346 141.57 29.5643 141.49 29.2576L141.445 29.0759C141.002 27.2475 140.741 26.1459 141.365 25.2147C141.979 24.3061 143.114 24.079 144.92 23.8292C145.533 23.7383 146.112 24.1699 146.203 24.7945C146.294 25.4191 145.862 25.9869 145.238 26.0778C144.75 26.1459 143.455 26.3276 143.216 26.5207C143.216 26.6797 143.432 27.6223 143.659 28.5308L143.705 28.7125C143.864 29.3485 144.011 30.2911 143.5 31.0747C142.978 31.8924 142.058 32.0741 141.263 32.2331C140.65 32.358 140.014 32.4715 139.446 32.8463C139.401 33.1189 139.469 33.7435 139.503 34.0955C139.605 35.0268 139.696 35.9126 139.208 36.5599C138.98 36.8552 138.64 37.0142 138.299 37.0142H138.288Z" fill="#3395FF"/>
<path d="M204.031 120.803C201.589 120.803 199.602 118.816 199.602 116.374C199.602 113.933 201.589 111.945 204.031 111.945C206.473 111.945 208.46 113.933 208.46 116.374C208.46 118.816 206.473 120.803 204.031 120.803ZM204.031 114.228C202.839 114.228 201.873 115.193 201.873 116.386C201.873 117.578 202.839 118.543 204.031 118.543C205.223 118.543 206.189 117.578 206.189 116.386C206.189 115.193 205.223 114.228 204.031 114.228Z" fill="#1FC994"/>
<path d="M127.525 184V170.909H132.434C133.439 170.909 134.283 171.084 134.965 171.433C135.651 171.783 136.169 172.273 136.518 172.903C136.872 173.53 137.049 174.261 137.049 175.096C137.049 175.935 136.87 176.664 136.512 177.282C136.158 177.896 135.636 178.371 134.946 178.707C134.255 179.04 133.407 179.206 132.402 179.206H128.905V177.237H132.082C132.67 177.237 133.152 177.156 133.527 176.994C133.902 176.828 134.179 176.587 134.358 176.272C134.541 175.952 134.633 175.56 134.633 175.096C134.633 174.631 134.541 174.235 134.358 173.907C134.174 173.575 133.895 173.323 133.52 173.153C133.145 172.978 132.662 172.891 132.069 172.891H129.896V184H127.525ZM134.287 178.068L137.528 184H134.882L131.699 178.068H134.287ZM143.335 184.192C142.351 184.192 141.501 183.987 140.785 183.578C140.073 183.165 139.526 182.581 139.142 181.827C138.759 181.068 138.567 180.175 138.567 179.148C138.567 178.138 138.759 177.252 139.142 176.489C139.53 175.722 140.071 175.126 140.766 174.7C141.46 174.269 142.276 174.054 143.214 174.054C143.819 174.054 144.39 174.152 144.927 174.348C145.468 174.54 145.945 174.838 146.359 175.243C146.776 175.648 147.104 176.163 147.343 176.79C147.582 177.412 147.701 178.153 147.701 179.014V179.724H139.653V178.164H145.483C145.479 177.721 145.383 177.327 145.195 176.982C145.008 176.632 144.746 176.357 144.409 176.157C144.077 175.957 143.689 175.857 143.246 175.857C142.773 175.857 142.357 175.972 141.999 176.202C141.641 176.428 141.362 176.726 141.162 177.097C140.966 177.463 140.866 177.866 140.862 178.305V179.666C140.862 180.237 140.966 180.727 141.175 181.136C141.384 181.541 141.676 181.852 142.051 182.07C142.426 182.283 142.864 182.389 143.367 182.389C143.704 182.389 144.009 182.342 144.281 182.249C144.554 182.151 144.791 182.008 144.991 181.82C145.191 181.633 145.342 181.401 145.445 181.124L147.605 181.366C147.469 181.937 147.209 182.436 146.825 182.862C146.446 183.284 145.96 183.612 145.368 183.847C144.776 184.077 144.098 184.192 143.335 184.192ZM151.632 184L148.858 174.182H151.217L152.943 181.085H153.032L154.796 174.182H157.129L158.894 181.047H158.989L160.69 174.182H163.055L160.274 184H157.864L156.024 177.365H155.889L154.048 184H151.632ZM167.496 184.198C166.873 184.198 166.313 184.087 165.815 183.866C165.32 183.64 164.928 183.308 164.638 182.869C164.353 182.43 164.21 181.888 164.21 181.245C164.21 180.691 164.312 180.233 164.517 179.871C164.722 179.509 165.001 179.219 165.354 179.001C165.708 178.784 166.106 178.62 166.55 178.509C166.997 178.394 167.459 178.311 167.937 178.26C168.512 178.2 168.979 178.147 169.337 178.1C169.695 178.049 169.954 177.972 170.116 177.87C170.283 177.763 170.366 177.599 170.366 177.378V177.339C170.366 176.858 170.223 176.485 169.937 176.221C169.652 175.957 169.241 175.825 168.704 175.825C168.137 175.825 167.687 175.948 167.355 176.195C167.027 176.442 166.805 176.734 166.69 177.071L164.53 176.764C164.7 176.168 164.981 175.669 165.373 175.268C165.766 174.864 166.245 174.561 166.812 174.361C167.378 174.156 168.005 174.054 168.691 174.054C169.164 174.054 169.635 174.109 170.104 174.22C170.572 174.331 171.001 174.514 171.388 174.77C171.776 175.021 172.087 175.364 172.322 175.799C172.56 176.234 172.68 176.777 172.68 177.429V184H170.455V182.651H170.378C170.238 182.924 170.04 183.18 169.784 183.418C169.533 183.653 169.215 183.842 168.832 183.987C168.452 184.128 168.007 184.198 167.496 184.198ZM168.097 182.498C168.561 182.498 168.964 182.406 169.305 182.223C169.646 182.036 169.908 181.788 170.091 181.482C170.278 181.175 170.372 180.84 170.372 180.478V179.321C170.3 179.381 170.176 179.436 170.001 179.487C169.831 179.538 169.639 179.583 169.426 179.621C169.213 179.66 169.002 179.694 168.793 179.724C168.584 179.754 168.403 179.779 168.25 179.8C167.905 179.847 167.596 179.924 167.323 180.031C167.05 180.137 166.835 180.286 166.677 180.478C166.52 180.665 166.441 180.908 166.441 181.207C166.441 181.633 166.597 181.955 166.908 182.172C167.219 182.389 167.615 182.498 168.097 182.498ZM175.006 184V174.182H177.25V175.818H177.352C177.531 175.251 177.838 174.815 178.273 174.508C178.712 174.197 179.212 174.041 179.775 174.041C179.903 174.041 180.045 174.048 180.203 174.06C180.365 174.069 180.499 174.084 180.606 174.105V176.234C180.508 176.2 180.352 176.17 180.139 176.144C179.93 176.114 179.728 176.099 179.532 176.099C179.11 176.099 178.731 176.191 178.394 176.374C178.062 176.553 177.8 176.803 177.608 177.122C177.416 177.442 177.32 177.81 177.32 178.228V184H175.006ZM185.382 184.173C184.611 184.173 183.921 183.974 183.311 183.578C182.702 183.182 182.22 182.607 181.867 181.852C181.513 181.098 181.336 180.182 181.336 179.104C181.336 178.013 181.515 177.092 181.873 176.342C182.235 175.588 182.723 175.019 183.337 174.636C183.95 174.248 184.634 174.054 185.389 174.054C185.964 174.054 186.437 174.152 186.808 174.348C187.178 174.54 187.472 174.772 187.69 175.045C187.907 175.313 188.075 175.567 188.195 175.805H188.291V170.909H190.611V184H188.335V182.453H188.195C188.075 182.692 187.903 182.945 187.677 183.214C187.451 183.478 187.153 183.704 186.782 183.891C186.411 184.079 185.945 184.173 185.382 184.173ZM186.028 182.274C186.518 182.274 186.935 182.142 187.281 181.878C187.626 181.609 187.888 181.237 188.067 180.759C188.246 180.282 188.335 179.726 188.335 179.091C188.335 178.456 188.246 177.904 188.067 177.435C187.892 176.967 187.632 176.602 187.287 176.342C186.946 176.082 186.526 175.952 186.028 175.952C185.512 175.952 185.082 176.087 184.737 176.355C184.391 176.624 184.131 176.994 183.957 177.467C183.782 177.94 183.695 178.482 183.695 179.091C183.695 179.705 183.782 180.252 183.957 180.734C184.136 181.211 184.398 181.588 184.743 181.865C185.092 182.138 185.521 182.274 186.028 182.274ZM200.837 176.777L198.727 177.007C198.668 176.794 198.563 176.594 198.414 176.406C198.269 176.219 198.073 176.067 197.826 175.952C197.579 175.837 197.276 175.78 196.918 175.78C196.437 175.78 196.032 175.884 195.704 176.093C195.38 176.302 195.22 176.572 195.224 176.905C195.22 177.19 195.324 177.423 195.538 177.602C195.755 177.781 196.113 177.928 196.611 178.043L198.286 178.401C199.215 178.601 199.905 178.918 200.357 179.353C200.813 179.788 201.043 180.357 201.047 181.06C201.043 181.678 200.862 182.223 200.504 182.696C200.15 183.165 199.658 183.531 199.028 183.795C198.397 184.06 197.672 184.192 196.854 184.192C195.653 184.192 194.685 183.94 193.952 183.438C193.219 182.93 192.783 182.225 192.642 181.322L194.898 181.104C195.001 181.548 195.218 181.882 195.55 182.108C195.883 182.334 196.315 182.447 196.848 182.447C197.398 182.447 197.839 182.334 198.171 182.108C198.508 181.882 198.676 181.603 198.676 181.271C198.676 180.989 198.567 180.757 198.35 180.574C198.137 180.391 197.805 180.25 197.353 180.152L195.678 179.8C194.736 179.604 194.04 179.274 193.588 178.81C193.136 178.341 192.913 177.749 192.917 177.033C192.913 176.428 193.077 175.903 193.409 175.46C193.746 175.013 194.212 174.668 194.809 174.425C195.41 174.178 196.102 174.054 196.886 174.054C198.037 174.054 198.942 174.299 199.603 174.789C200.268 175.279 200.679 175.942 200.837 176.777Z" fill="white"/>
<path opacity="0.8" d="M58.7775 198.818L61.8002 207.389H61.9196L64.9423 198.818H66.2349L62.4963 209H61.2235L57.4849 198.818H58.7775ZM67.6618 209V201.364H68.835V209H67.6618ZM68.2583 200.091C68.0297 200.091 67.8324 200.013 67.6667 199.857C67.5043 199.701 67.4231 199.514 67.4231 199.295C67.4231 199.077 67.5043 198.889 67.6667 198.734C67.8324 198.578 68.0297 198.5 68.2583 198.5C68.487 198.5 68.6826 198.578 68.845 198.734C69.0107 198.889 69.0936 199.077 69.0936 199.295C69.0936 199.514 69.0107 199.701 68.845 199.857C68.6826 200.013 68.487 200.091 68.2583 200.091ZM74.1857 209.159C73.4499 209.159 72.8152 208.997 72.2816 208.672C71.7513 208.344 71.342 207.886 71.0536 207.3C70.7686 206.71 70.6261 206.024 70.6261 205.241C70.6261 204.459 70.7686 203.77 71.0536 203.173C71.342 202.573 71.743 202.106 72.2567 201.771C72.7738 201.433 73.377 201.264 74.0664 201.264C74.4641 201.264 74.8569 201.33 75.2447 201.463C75.6325 201.596 75.9854 201.811 76.3036 202.109C76.6218 202.404 76.8754 202.795 77.0643 203.283C77.2532 203.77 77.3477 204.37 77.3477 205.082V205.58H71.4613V204.565H76.1545C76.1545 204.134 76.0683 203.75 75.896 203.412C75.7269 203.074 75.485 202.807 75.1701 202.612C74.8585 202.416 74.4906 202.318 74.0664 202.318C73.5991 202.318 73.1947 202.434 72.8533 202.666C72.5153 202.895 72.2551 203.193 72.0728 203.561C71.8905 203.929 71.7994 204.323 71.7994 204.744V205.42C71.7994 205.997 71.8988 206.486 72.0977 206.887C72.2998 207.285 72.5799 207.588 72.9379 207.797C73.2958 208.002 73.7118 208.105 74.1857 208.105C74.494 208.105 74.7724 208.062 75.021 207.976C75.2728 207.886 75.4899 207.754 75.6722 207.578C75.8545 207.399 75.9954 207.177 76.0948 206.912L77.2283 207.23C77.109 207.615 76.9085 207.953 76.6268 208.244C76.3451 208.533 75.997 208.758 75.5827 208.92C75.1684 209.08 74.7028 209.159 74.1857 209.159ZM80.8626 209L78.5359 201.364H79.7688L81.4194 207.21H81.4989L83.1296 201.364H84.3825L85.9933 207.19H86.0728L87.7234 201.364H88.9563L86.6296 209H85.4762L83.8058 203.134H83.6864L82.016 209H80.8626ZM96.6921 209.179C96.2082 209.179 95.7691 209.088 95.3746 208.906C94.9802 208.72 94.667 208.453 94.435 208.105C94.203 207.754 94.087 207.33 94.087 206.832C94.087 206.395 94.1732 206.04 94.3455 205.768C94.5179 205.493 94.7482 205.278 95.0366 205.122C95.3249 204.966 95.6431 204.85 95.9911 204.774C96.3424 204.695 96.6954 204.632 97.0501 204.585C97.5141 204.526 97.8903 204.481 98.1786 204.451C98.4703 204.418 98.6824 204.363 98.815 204.287C98.9509 204.211 99.0188 204.078 99.0188 203.889V203.849C99.0188 203.359 98.8846 202.978 98.6161 202.706C98.351 202.434 97.9483 202.298 97.408 202.298C96.8479 202.298 96.4087 202.421 96.0906 202.666C95.7724 202.911 95.5487 203.173 95.4194 203.452L94.3058 203.054C94.5046 202.59 94.7698 202.229 95.1012 201.97C95.436 201.708 95.8005 201.526 96.195 201.423C96.5927 201.317 96.9838 201.264 97.3683 201.264C97.6135 201.264 97.8952 201.294 98.2134 201.354C98.5349 201.41 98.8448 201.528 99.1431 201.707C99.4447 201.886 99.695 202.156 99.8938 202.517C100.093 202.878 100.192 203.362 100.192 203.969V209H99.0188V207.966H98.9592C98.8796 208.132 98.747 208.309 98.5614 208.498C98.3758 208.687 98.1289 208.848 97.8207 208.98C97.5124 209.113 97.1362 209.179 96.6921 209.179ZM96.8711 208.125C97.3351 208.125 97.7262 208.034 98.0444 207.852C98.3659 207.669 98.6078 207.434 98.7702 207.146C98.936 206.857 99.0188 206.554 99.0188 206.236V205.162C98.9691 205.222 98.8597 205.276 98.6907 205.326C98.525 205.372 98.3327 205.414 98.114 205.45C97.8986 205.483 97.6881 205.513 97.4826 205.54C97.2804 205.563 97.1164 205.583 96.9904 205.599C96.6855 205.639 96.4004 205.704 96.1353 205.793C95.8735 205.879 95.6613 206.01 95.4989 206.186C95.3398 206.358 95.2603 206.594 95.2603 206.892C95.2603 207.3 95.4111 207.608 95.7127 207.817C96.0176 208.022 96.4038 208.125 96.8711 208.125ZM103.507 204.406V209H102.334V201.364H103.467V202.557H103.567C103.746 202.169 104.017 201.857 104.382 201.622C104.747 201.384 105.217 201.264 105.794 201.264C106.311 201.264 106.763 201.37 107.151 201.582C107.539 201.791 107.84 202.109 108.056 202.537C108.271 202.961 108.379 203.498 108.379 204.148V209H107.206V204.227C107.206 203.627 107.05 203.16 106.738 202.825C106.427 202.487 105.999 202.318 105.456 202.318C105.081 202.318 104.747 202.399 104.452 202.562C104.16 202.724 103.93 202.961 103.76 203.273C103.591 203.584 103.507 203.962 103.507 204.406ZM113.407 209.159C112.77 209.159 112.208 208.998 111.721 208.677C111.234 208.352 110.853 207.895 110.578 207.305C110.303 206.711 110.165 206.01 110.165 205.202C110.165 204.4 110.303 203.704 110.578 203.114C110.853 202.524 111.236 202.068 111.726 201.746C112.217 201.425 112.783 201.264 113.426 201.264C113.924 201.264 114.316 201.347 114.605 201.513C114.896 201.675 115.118 201.861 115.271 202.07C115.427 202.275 115.548 202.444 115.634 202.577H115.733V198.818H116.907V209H115.773V207.827H115.634C115.548 207.966 115.425 208.142 115.266 208.354C115.107 208.562 114.88 208.75 114.585 208.915C114.29 209.078 113.897 209.159 113.407 209.159ZM113.566 208.105C114.036 208.105 114.434 207.982 114.759 207.737C115.084 207.489 115.331 207.146 115.5 206.708C115.669 206.267 115.753 205.759 115.753 205.182C115.753 204.612 115.67 204.113 115.505 203.685C115.339 203.254 115.094 202.92 114.769 202.681C114.444 202.439 114.043 202.318 113.566 202.318C113.069 202.318 112.654 202.446 112.323 202.701C111.995 202.953 111.748 203.296 111.582 203.73C111.42 204.161 111.338 204.645 111.338 205.182C111.338 205.725 111.421 206.219 111.587 206.663C111.756 207.104 112.005 207.455 112.333 207.717C112.664 207.976 113.075 208.105 113.566 208.105ZM123.156 209V201.364H124.289V202.517H124.369C124.508 202.139 124.76 201.833 125.125 201.597C125.489 201.362 125.9 201.244 126.358 201.244C126.444 201.244 126.551 201.246 126.681 201.249C126.81 201.253 126.908 201.258 126.974 201.264V202.457C126.934 202.447 126.843 202.433 126.701 202.413C126.561 202.389 126.414 202.378 126.258 202.378C125.887 202.378 125.556 202.456 125.264 202.612C124.975 202.764 124.747 202.976 124.578 203.248C124.412 203.516 124.329 203.823 124.329 204.168V209H123.156ZM131.334 209.159C130.598 209.159 129.964 208.997 129.43 208.672C128.9 208.344 128.49 207.886 128.202 207.3C127.917 206.71 127.775 206.024 127.775 205.241C127.775 204.459 127.917 203.77 128.202 203.173C128.49 202.573 128.891 202.106 129.405 201.771C129.922 201.433 130.525 201.264 131.215 201.264C131.613 201.264 132.005 201.33 132.393 201.463C132.781 201.596 133.134 201.811 133.452 202.109C133.77 202.404 134.024 202.795 134.213 203.283C134.402 203.77 134.496 204.37 134.496 205.082V205.58H128.61V204.565H133.303C133.303 204.134 133.217 203.75 133.044 203.412C132.875 203.074 132.633 202.807 132.319 202.612C132.007 202.416 131.639 202.318 131.215 202.318C130.748 202.318 130.343 202.434 130.002 202.666C129.664 202.895 129.404 203.193 129.221 203.561C129.039 203.929 128.948 204.323 128.948 204.744V205.42C128.948 205.997 129.047 206.486 129.246 206.887C129.448 207.285 129.728 207.588 130.086 207.797C130.444 208.002 130.86 208.105 131.334 208.105C131.642 208.105 131.921 208.062 132.169 207.976C132.421 207.886 132.638 207.754 132.821 207.578C133.003 207.399 133.144 207.177 133.243 206.912L134.377 207.23C134.257 207.615 134.057 207.953 133.775 208.244C133.493 208.533 133.145 208.758 132.731 208.92C132.317 209.08 131.851 209.159 131.334 209.159ZM139.164 209.159C138.528 209.159 137.966 208.998 137.479 208.677C136.992 208.352 136.611 207.895 136.336 207.305C136.06 206.711 135.923 206.01 135.923 205.202C135.923 204.4 136.06 203.704 136.336 203.114C136.611 202.524 136.993 202.068 137.484 201.746C137.975 201.425 138.541 201.264 139.184 201.264C139.681 201.264 140.074 201.347 140.363 201.513C140.654 201.675 140.876 201.861 141.029 202.07C141.185 202.275 141.306 202.444 141.392 202.577H141.491V198.818H142.664V209H141.531V207.827H141.392C141.306 207.966 141.183 208.142 141.024 208.354C140.865 208.562 140.638 208.75 140.343 208.915C140.048 209.078 139.655 209.159 139.164 209.159ZM139.324 208.105C139.794 208.105 140.192 207.982 140.517 207.737C140.842 207.489 141.088 207.146 141.257 206.708C141.426 206.267 141.511 205.759 141.511 205.182C141.511 204.612 141.428 204.113 141.262 203.685C141.097 203.254 140.851 202.92 140.527 202.681C140.202 202.439 139.801 202.318 139.324 202.318C138.826 202.318 138.412 202.446 138.081 202.701C137.752 202.953 137.506 203.296 137.34 203.73C137.177 204.161 137.096 204.645 137.096 205.182C137.096 205.725 137.179 206.219 137.345 206.663C137.514 207.104 137.762 207.455 138.091 207.717C138.422 207.976 138.833 208.105 139.324 208.105ZM148.178 209.159C147.442 209.159 146.807 208.997 146.274 208.672C145.743 208.344 145.334 207.886 145.046 207.3C144.761 206.71 144.618 206.024 144.618 205.241C144.618 204.459 144.761 203.77 145.046 203.173C145.334 202.573 145.735 202.106 146.249 201.771C146.766 201.433 147.369 201.264 148.059 201.264C148.456 201.264 148.849 201.33 149.237 201.463C149.625 201.596 149.978 201.811 150.296 202.109C150.614 202.404 150.868 202.795 151.056 203.283C151.245 203.77 151.34 204.37 151.34 205.082V205.58H145.453V204.565H150.147C150.147 204.134 150.06 203.75 149.888 203.412C149.719 203.074 149.477 202.807 149.162 202.612C148.851 202.416 148.483 202.318 148.059 202.318C147.591 202.318 147.187 202.434 146.846 202.666C146.507 202.895 146.247 203.193 146.065 203.561C145.883 203.929 145.792 204.323 145.792 204.744V205.42C145.792 205.997 145.891 206.486 146.09 206.887C146.292 207.285 146.572 207.588 146.93 207.797C147.288 208.002 147.704 208.105 148.178 208.105C148.486 208.105 148.765 208.062 149.013 207.976C149.265 207.886 149.482 207.754 149.664 207.578C149.847 207.399 149.988 207.177 150.087 206.912L151.221 207.23C151.101 207.615 150.901 207.953 150.619 208.244C150.337 208.533 149.989 208.758 149.575 208.92C149.161 209.08 148.695 209.159 148.178 209.159ZM156.326 209.159C155.591 209.159 154.956 208.997 154.422 208.672C153.892 208.344 153.483 207.886 153.194 207.3C152.909 206.71 152.767 206.024 152.767 205.241C152.767 204.459 152.909 203.77 153.194 203.173C153.483 202.573 153.884 202.106 154.397 201.771C154.914 201.433 155.518 201.264 156.207 201.264C156.605 201.264 156.998 201.33 157.385 201.463C157.773 201.596 158.126 201.811 158.444 202.109C158.762 202.404 159.016 202.795 159.205 203.283C159.394 203.77 159.488 204.37 159.488 205.082V205.58H153.602V204.565H158.295C158.295 204.134 158.209 203.75 158.037 203.412C157.868 203.074 157.626 202.807 157.311 202.612C156.999 202.416 156.631 202.318 156.207 202.318C155.74 202.318 155.335 202.434 154.994 202.666C154.656 202.895 154.396 203.193 154.213 203.561C154.031 203.929 153.94 204.323 153.94 204.744V205.42C153.94 205.997 154.039 206.486 154.238 206.887C154.44 207.285 154.721 207.588 155.078 207.797C155.436 208.002 155.852 208.105 156.326 208.105C156.635 208.105 156.913 208.062 157.162 207.976C157.413 207.886 157.631 207.754 157.813 207.578C157.995 207.399 158.136 207.177 158.235 206.912L159.369 207.23C159.25 207.615 159.049 207.953 158.767 208.244C158.486 208.533 158.138 208.758 157.723 208.92C157.309 209.08 156.843 209.159 156.326 209.159ZM161.273 209V201.364H162.407V202.557H162.506C162.665 202.149 162.922 201.833 163.277 201.607C163.631 201.379 164.057 201.264 164.554 201.264C165.058 201.264 165.477 201.379 165.812 201.607C166.15 201.833 166.414 202.149 166.603 202.557H166.682C166.878 202.162 167.171 201.849 167.562 201.617C167.953 201.382 168.422 201.264 168.969 201.264C169.652 201.264 170.21 201.478 170.645 201.906C171.079 202.33 171.296 202.991 171.296 203.889V209H170.123V203.889C170.123 203.326 169.968 202.923 169.66 202.681C169.352 202.439 168.989 202.318 168.571 202.318C168.034 202.318 167.618 202.481 167.324 202.805C167.029 203.127 166.881 203.535 166.881 204.028V209H165.688V203.77C165.688 203.336 165.547 202.986 165.265 202.721C164.984 202.452 164.621 202.318 164.176 202.318C163.872 202.318 163.587 202.399 163.321 202.562C163.06 202.724 162.847 202.95 162.685 203.238C162.526 203.523 162.446 203.853 162.446 204.227V209H161.273ZM177.538 209V198.818H180.978C181.777 198.818 182.43 198.962 182.937 199.251C183.447 199.536 183.825 199.922 184.07 200.409C184.316 200.896 184.438 201.44 184.438 202.04C184.438 202.64 184.316 203.185 184.07 203.675C183.828 204.166 183.454 204.557 182.947 204.849C182.44 205.137 181.79 205.281 180.998 205.281H178.532V204.188H180.958C181.505 204.188 181.944 204.093 182.276 203.904C182.607 203.715 182.847 203.46 182.996 203.138C183.149 202.814 183.225 202.447 183.225 202.04C183.225 201.632 183.149 201.268 182.996 200.946C182.847 200.625 182.605 200.373 182.271 200.19C181.936 200.005 181.492 199.912 180.938 199.912H178.771V209H177.538ZM189.286 209.159C188.596 209.159 187.991 208.995 187.471 208.667C186.954 208.339 186.549 207.88 186.258 207.29C185.969 206.7 185.825 206.01 185.825 205.222C185.825 204.426 185.969 203.732 186.258 203.138C186.549 202.545 186.954 202.085 187.471 201.756C187.991 201.428 188.596 201.264 189.286 201.264C189.975 201.264 190.578 201.428 191.095 201.756C191.616 202.085 192.02 202.545 192.308 203.138C192.6 203.732 192.746 204.426 192.746 205.222C192.746 206.01 192.6 206.7 192.308 207.29C192.02 207.88 191.616 208.339 191.095 208.667C190.578 208.995 189.975 209.159 189.286 209.159ZM189.286 208.105C189.809 208.105 190.24 207.971 190.578 207.702C190.916 207.434 191.166 207.081 191.329 206.643C191.491 206.206 191.572 205.732 191.572 205.222C191.572 204.711 191.491 204.236 191.329 203.795C191.166 203.354 190.916 202.998 190.578 202.726C190.24 202.454 189.809 202.318 189.286 202.318C188.762 202.318 188.331 202.454 187.993 202.726C187.655 202.998 187.405 203.354 187.242 203.795C187.08 204.236 186.999 204.711 186.999 205.222C186.999 205.732 187.08 206.206 187.242 206.643C187.405 207.081 187.655 207.434 187.993 207.702C188.331 207.971 188.762 208.105 189.286 208.105ZM194.537 209V201.364H195.71V209H194.537ZM195.133 200.091C194.905 200.091 194.707 200.013 194.542 199.857C194.379 199.701 194.298 199.514 194.298 199.295C194.298 199.077 194.379 198.889 194.542 198.734C194.707 198.578 194.905 198.5 195.133 198.5C195.362 198.5 195.558 198.578 195.72 198.734C195.886 198.889 195.969 199.077 195.969 199.295C195.969 199.514 195.886 199.701 195.72 199.857C195.558 200.013 195.362 200.091 195.133 200.091ZM199.032 204.406V209H197.859V201.364H198.993V202.557H199.092C199.271 202.169 199.543 201.857 199.907 201.622C200.272 201.384 200.743 201.264 201.319 201.264C201.836 201.264 202.289 201.37 202.676 201.582C203.064 201.791 203.366 202.109 203.581 202.537C203.797 202.961 203.904 203.498 203.904 204.148V209H202.731V204.227C202.731 203.627 202.575 203.16 202.264 202.825C201.952 202.487 201.525 202.318 200.981 202.318C200.607 202.318 200.272 202.399 199.977 202.562C199.685 202.724 199.455 202.961 199.286 203.273C199.117 203.584 199.032 203.962 199.032 204.406ZM209.369 201.364V202.358H205.412V201.364H209.369ZM206.566 199.534H207.739V206.812C207.739 207.144 207.787 207.393 207.883 207.558C207.982 207.721 208.108 207.83 208.261 207.886C208.417 207.939 208.581 207.966 208.753 207.966C208.882 207.966 208.988 207.959 209.071 207.946C209.154 207.929 209.22 207.916 209.27 207.906L209.509 208.96C209.429 208.99 209.318 209.02 209.176 209.05C209.033 209.083 208.852 209.099 208.634 209.099C208.302 209.099 207.977 209.028 207.659 208.886C207.344 208.743 207.083 208.526 206.874 208.234C206.668 207.943 206.566 207.575 206.566 207.131V199.534ZM216.407 203.074L215.353 203.372C215.287 203.196 215.189 203.026 215.059 202.86C214.934 202.691 214.761 202.552 214.542 202.442C214.324 202.333 214.044 202.278 213.702 202.278C213.235 202.278 212.845 202.386 212.534 202.602C212.226 202.814 212.072 203.084 212.072 203.412C212.072 203.704 212.178 203.934 212.39 204.103C212.602 204.272 212.933 204.413 213.384 204.526L214.518 204.804C215.2 204.97 215.709 205.223 216.044 205.565C216.379 205.903 216.546 206.339 216.546 206.872C216.546 207.31 216.42 207.701 216.168 208.045C215.92 208.39 215.572 208.662 215.124 208.861C214.677 209.06 214.156 209.159 213.563 209.159C212.784 209.159 212.14 208.99 211.629 208.652C211.119 208.314 210.796 207.82 210.66 207.17L211.773 206.892C211.879 207.303 212.08 207.611 212.375 207.817C212.673 208.022 213.063 208.125 213.543 208.125C214.09 208.125 214.524 208.009 214.846 207.777C215.171 207.542 215.333 207.26 215.333 206.932C215.333 206.667 215.24 206.445 215.055 206.266C214.869 206.083 214.584 205.947 214.199 205.858L212.927 205.56C212.227 205.394 211.714 205.137 211.385 204.789C211.061 204.438 210.898 203.999 210.898 203.472C210.898 203.041 211.019 202.66 211.261 202.328C211.506 201.997 211.84 201.737 212.26 201.548C212.685 201.359 213.165 201.264 213.702 201.264C214.458 201.264 215.051 201.43 215.482 201.761C215.916 202.093 216.224 202.53 216.407 203.074ZM225.352 209.159C224.663 209.159 224.058 208.995 223.537 208.667C223.02 208.339 222.616 207.88 222.324 207.29C222.036 206.7 221.892 206.01 221.892 205.222C221.892 204.426 222.036 203.732 222.324 203.138C222.616 202.545 223.02 202.085 223.537 201.756C224.058 201.428 224.663 201.264 225.352 201.264C226.041 201.264 226.645 201.428 227.162 201.756C227.682 202.085 228.086 202.545 228.375 203.138C228.666 203.732 228.812 204.426 228.812 205.222C228.812 206.01 228.666 206.7 228.375 207.29C228.086 207.88 227.682 208.339 227.162 208.667C226.645 208.995 226.041 209.159 225.352 209.159ZM225.352 208.105C225.876 208.105 226.306 207.971 226.645 207.702C226.983 207.434 227.233 207.081 227.395 206.643C227.558 206.206 227.639 205.732 227.639 205.222C227.639 204.711 227.558 204.236 227.395 203.795C227.233 203.354 226.983 202.998 226.645 202.726C226.306 202.454 225.876 202.318 225.352 202.318C224.828 202.318 224.397 202.454 224.059 202.726C223.721 202.998 223.471 203.354 223.309 203.795C223.146 204.236 223.065 204.711 223.065 205.222C223.065 205.732 223.146 206.206 223.309 206.643C223.471 207.081 223.721 207.434 224.059 207.702C224.397 207.971 224.828 208.105 225.352 208.105ZM231.776 204.406V209H230.603V201.364H231.737V202.557H231.836C232.015 202.169 232.287 201.857 232.651 201.622C233.016 201.384 233.487 201.264 234.063 201.264C234.58 201.264 235.033 201.37 235.421 201.582C235.808 201.791 236.11 202.109 236.325 202.537C236.541 202.961 236.649 203.498 236.649 204.148V209H235.475V204.227C235.475 203.627 235.32 203.16 235.008 202.825C234.696 202.487 234.269 202.318 233.725 202.318C233.351 202.318 233.016 202.399 232.721 202.562C232.429 202.724 232.199 202.961 232.03 203.273C231.861 203.584 231.776 203.962 231.776 204.406ZM243.486 211.864C243.287 211.864 243.11 211.847 242.954 211.814C242.798 211.784 242.69 211.754 242.631 211.724L242.929 210.69C243.214 210.763 243.466 210.79 243.685 210.77C243.903 210.75 244.097 210.652 244.266 210.477C244.439 210.304 244.596 210.024 244.739 209.636L244.957 209.04L242.134 201.364H243.406L245.514 207.449H245.594L247.702 201.364H248.974L245.733 210.114C245.587 210.508 245.406 210.835 245.191 211.093C244.976 211.355 244.725 211.549 244.44 211.675C244.159 211.801 243.84 211.864 243.486 211.864ZM253.352 209.159C252.663 209.159 252.058 208.995 251.537 208.667C251.02 208.339 250.616 207.88 250.324 207.29C250.036 206.7 249.892 206.01 249.892 205.222C249.892 204.426 250.036 203.732 250.324 203.138C250.616 202.545 251.02 202.085 251.537 201.756C252.058 201.428 252.663 201.264 253.352 201.264C254.041 201.264 254.645 201.428 255.162 201.756C255.682 202.085 256.086 202.545 256.375 203.138C256.666 203.732 256.812 204.426 256.812 205.222C256.812 206.01 256.666 206.7 256.375 207.29C256.086 207.88 255.682 208.339 255.162 208.667C254.645 208.995 254.041 209.159 253.352 209.159ZM253.352 208.105C253.876 208.105 254.306 207.971 254.645 207.702C254.983 207.434 255.233 207.081 255.395 206.643C255.558 206.206 255.639 205.732 255.639 205.222C255.639 204.711 255.558 204.236 255.395 203.795C255.233 203.354 254.983 202.998 254.645 202.726C254.306 202.454 253.876 202.318 253.352 202.318C252.828 202.318 252.397 202.454 252.059 202.726C251.721 202.998 251.471 203.354 251.309 203.795C251.146 204.236 251.065 204.711 251.065 205.222C251.065 205.732 251.146 206.206 251.309 206.643C251.471 207.081 251.721 207.434 252.059 207.702C252.397 207.971 252.828 208.105 253.352 208.105ZM263.416 205.878V201.364H264.589V209H263.416V207.707H263.336C263.157 208.095 262.879 208.425 262.501 208.697C262.123 208.965 261.646 209.099 261.069 209.099C260.592 209.099 260.168 208.995 259.796 208.786C259.425 208.574 259.133 208.256 258.921 207.832C258.709 207.404 258.603 206.866 258.603 206.216V201.364H259.776V206.136C259.776 206.693 259.932 207.137 260.244 207.469C260.559 207.8 260.96 207.966 261.447 207.966C261.739 207.966 262.035 207.891 262.337 207.742C262.642 207.593 262.897 207.364 263.102 207.056C263.311 206.748 263.416 206.355 263.416 205.878ZM266.738 209V201.364H267.871V202.517H267.951C268.09 202.139 268.342 201.833 268.707 201.597C269.071 201.362 269.482 201.244 269.94 201.244C270.026 201.244 270.134 201.246 270.263 201.249C270.392 201.253 270.49 201.258 270.556 201.264V202.457C270.516 202.447 270.425 202.433 270.283 202.413C270.143 202.389 269.996 202.378 269.84 202.378C269.469 202.378 269.138 202.456 268.846 202.612C268.558 202.764 268.329 202.976 268.16 203.248C267.994 203.516 267.911 203.823 267.911 204.168V209H266.738ZM155.454 229.159C154.739 229.159 154.122 228.99 153.605 228.652C153.088 228.314 152.69 227.848 152.412 227.255C152.133 226.662 151.994 225.984 151.994 225.222C151.994 224.446 152.137 223.762 152.422 223.168C152.71 222.572 153.111 222.106 153.625 221.771C154.142 221.433 154.745 221.264 155.435 221.264C155.972 221.264 156.455 221.364 156.886 221.562C157.317 221.761 157.67 222.04 157.945 222.398C158.22 222.756 158.391 223.173 158.457 223.651H157.284C157.195 223.303 156.996 222.994 156.687 222.726C156.382 222.454 155.972 222.318 155.454 222.318C154.997 222.318 154.596 222.437 154.251 222.676C153.91 222.911 153.643 223.245 153.451 223.675C153.262 224.103 153.168 224.605 153.168 225.182C153.168 225.772 153.26 226.286 153.446 226.723C153.635 227.161 153.9 227.5 154.241 227.742C154.586 227.984 154.99 228.105 155.454 228.105C155.759 228.105 156.036 228.052 156.285 227.946C156.533 227.84 156.744 227.688 156.916 227.489C157.088 227.29 157.211 227.051 157.284 226.773H158.457C158.391 227.223 158.227 227.629 157.965 227.991C157.707 228.349 157.364 228.634 156.936 228.846C156.512 229.055 156.018 229.159 155.454 229.159ZM162.42 229.179C161.936 229.179 161.497 229.088 161.102 228.906C160.708 228.72 160.395 228.453 160.163 228.105C159.931 227.754 159.815 227.33 159.815 226.832C159.815 226.395 159.901 226.04 160.073 225.768C160.245 225.493 160.476 225.278 160.764 225.122C161.052 224.966 161.371 224.85 161.719 224.774C162.07 224.695 162.423 224.632 162.778 224.585C163.242 224.526 163.618 224.481 163.906 224.451C164.198 224.418 164.41 224.363 164.543 224.287C164.678 224.211 164.746 224.078 164.746 223.889V223.849C164.746 223.359 164.612 222.978 164.344 222.706C164.079 222.434 163.676 222.298 163.136 222.298C162.575 222.298 162.136 222.421 161.818 222.666C161.5 222.911 161.276 223.173 161.147 223.452L160.033 223.054C160.232 222.59 160.497 222.229 160.829 221.97C161.164 221.708 161.528 221.526 161.922 221.423C162.32 221.317 162.711 221.264 163.096 221.264C163.341 221.264 163.623 221.294 163.941 221.354C164.262 221.41 164.572 221.528 164.871 221.707C165.172 221.886 165.422 222.156 165.621 222.517C165.82 222.878 165.92 223.362 165.92 223.969V229H164.746V227.966H164.687C164.607 228.132 164.475 228.309 164.289 228.498C164.103 228.687 163.856 228.848 163.548 228.98C163.24 229.113 162.864 229.179 162.42 229.179ZM162.599 228.125C163.063 228.125 163.454 228.034 163.772 227.852C164.093 227.669 164.335 227.434 164.498 227.146C164.664 226.857 164.746 226.554 164.746 226.236V225.162C164.697 225.222 164.587 225.276 164.418 225.326C164.253 225.372 164.06 225.414 163.842 225.45C163.626 225.483 163.416 225.513 163.21 225.54C163.008 225.563 162.844 225.583 162.718 225.599C162.413 225.639 162.128 225.704 161.863 225.793C161.601 225.879 161.389 226.01 161.226 226.186C161.067 226.358 160.988 226.594 160.988 226.892C160.988 227.3 161.139 227.608 161.44 227.817C161.745 228.022 162.131 228.125 162.599 228.125ZM168.061 229V221.364H169.195V222.517H169.274C169.413 222.139 169.665 221.833 170.03 221.597C170.395 221.362 170.805 221.244 171.263 221.244C171.349 221.244 171.457 221.246 171.586 221.249C171.715 221.253 171.813 221.258 171.879 221.264V222.457C171.84 222.447 171.748 222.433 171.606 222.413C171.467 222.389 171.319 222.378 171.163 222.378C170.792 222.378 170.461 222.456 170.169 222.612C169.881 222.764 169.652 222.976 169.483 223.248C169.317 223.516 169.234 223.823 169.234 224.168V229H168.061ZM175.921 229.159C175.285 229.159 174.723 228.998 174.236 228.677C173.749 228.352 173.368 227.895 173.092 227.305C172.817 226.711 172.68 226.01 172.68 225.202C172.68 224.4 172.817 223.704 173.092 223.114C173.368 222.524 173.75 222.068 174.241 221.746C174.731 221.425 175.298 221.264 175.941 221.264C176.438 221.264 176.831 221.347 177.119 221.513C177.411 221.675 177.633 221.861 177.786 222.07C177.941 222.275 178.062 222.444 178.149 222.577H178.248V218.818H179.421V229H178.288V227.827H178.149C178.062 227.966 177.94 228.142 177.781 228.354C177.622 228.562 177.395 228.75 177.1 228.915C176.805 229.078 176.412 229.159 175.921 229.159ZM176.08 228.105C176.551 228.105 176.949 227.982 177.274 227.737C177.598 227.489 177.845 227.146 178.014 226.708C178.183 226.267 178.268 225.759 178.268 225.182C178.268 224.612 178.185 224.113 178.019 223.685C177.854 223.254 177.608 222.92 177.283 222.681C176.959 222.439 176.558 222.318 176.08 222.318C175.583 222.318 175.169 222.446 174.837 222.701C174.509 222.953 174.262 223.296 174.097 223.73C173.934 224.161 173.853 224.645 173.853 225.182C173.853 225.725 173.936 226.219 174.102 226.663C174.271 227.104 174.519 227.455 174.847 227.717C175.179 227.976 175.59 228.105 176.08 228.105Z" fill="white"/>
</svg>